<mxfile host="app.diagrams.net" modified="2023-02-13T16:30:20.499Z" agent="5.0 (Windows)" etag="j5Sp2K4rfdbgfAJmTru_" version="20.8.19" type="github">
  <diagram id="R2lEEEUBdFMjLlhIrx00" name="Etat transition">
    <mxGraphModel dx="2393" dy="1276" grid="1" gridSize="10" guides="1" tooltips="1" connect="1" arrows="1" fold="1" page="1" pageScale="1" pageWidth="850" pageHeight="1100" math="0" shadow="0" extFonts="Permanent Marker^https://fonts.googleapis.com/css?family=Permanent+Marker">
      <root>
        <mxCell id="0" />
        <mxCell id="1" parent="0" />
        <mxCell id="_cFpUyDurThmrXsbFItN-6" value="" style="edgeStyle=orthogonalEdgeStyle;rounded=0;orthogonalLoop=1;jettySize=auto;html=1;fontFamily=Verdana;startArrow=none;" edge="1" parent="1" source="_cFpUyDurThmrXsbFItN-70" target="_cFpUyDurThmrXsbFItN-5">
          <mxGeometry relative="1" as="geometry" />
        </mxCell>
        <mxCell id="_cFpUyDurThmrXsbFItN-7" value="Enregistrer/" style="edgeLabel;html=1;align=center;verticalAlign=middle;resizable=0;points=[];fontFamily=Verdana;" vertex="1" connectable="0" parent="_cFpUyDurThmrXsbFItN-6">
          <mxGeometry x="0.1966" y="-3" relative="1" as="geometry">
            <mxPoint x="-140" y="-23" as="offset" />
          </mxGeometry>
        </mxCell>
        <mxCell id="_cFpUyDurThmrXsbFItN-69" value="" style="edgeStyle=orthogonalEdgeStyle;rounded=0;orthogonalLoop=1;jettySize=auto;html=1;fontFamily=Verdana;fontColor=#000000;exitX=0.5;exitY=1;exitDx=0;exitDy=0;" edge="1" parent="1" source="_cFpUyDurThmrXsbFItN-70" target="_cFpUyDurThmrXsbFItN-68">
          <mxGeometry relative="1" as="geometry">
            <Array as="points">
              <mxPoint x="511" y="808" />
              <mxPoint x="511" y="808" />
            </Array>
          </mxGeometry>
        </mxCell>
        <mxCell id="_cFpUyDurThmrXsbFItN-77" value="EncoderFPE [facultatif] /" style="edgeLabel;html=1;align=center;verticalAlign=middle;resizable=0;points=[];fontFamily=Verdana;fontColor=#000000;" vertex="1" connectable="0" parent="_cFpUyDurThmrXsbFItN-69">
          <mxGeometry x="-0.3324" y="-3" relative="1" as="geometry">
            <mxPoint x="-95" y="-43" as="offset" />
          </mxGeometry>
        </mxCell>
        <mxCell id="_cFpUyDurThmrXsbFItN-4" value="/1er encodage (coté client)" style="rounded=0;whiteSpace=wrap;html=1;fontFamily=Verdana;fillColor=#dae8fc;strokeColor=#6c8ebf;" vertex="1" parent="1">
          <mxGeometry x="200" y="600" width="120" height="60" as="geometry" />
        </mxCell>
        <mxCell id="_cFpUyDurThmrXsbFItN-9" value="" style="edgeStyle=orthogonalEdgeStyle;rounded=0;orthogonalLoop=1;jettySize=auto;html=1;fontFamily=Verdana;" edge="1" parent="1" source="_cFpUyDurThmrXsbFItN-5" target="_cFpUyDurThmrXsbFItN-8">
          <mxGeometry relative="1" as="geometry" />
        </mxCell>
        <mxCell id="_cFpUyDurThmrXsbFItN-31" value="&lt;div&gt;Finaliser / &lt;br&gt;&lt;/div&gt;" style="edgeLabel;html=1;align=center;verticalAlign=middle;resizable=0;points=[];fontFamily=Verdana;" vertex="1" connectable="0" parent="_cFpUyDurThmrXsbFItN-9">
          <mxGeometry x="-0.1587" y="2" relative="1" as="geometry">
            <mxPoint x="3" y="-18" as="offset" />
          </mxGeometry>
        </mxCell>
        <mxCell id="_cFpUyDurThmrXsbFItN-58" style="edgeStyle=orthogonalEdgeStyle;rounded=0;orthogonalLoop=1;jettySize=auto;html=1;exitX=0.75;exitY=1;exitDx=0;exitDy=0;entryX=0;entryY=0.5;entryDx=0;entryDy=0;fontFamily=Verdana;fontColor=#000000;" edge="1" parent="1" source="_cFpUyDurThmrXsbFItN-5" target="_cFpUyDurThmrXsbFItN-56">
          <mxGeometry relative="1" as="geometry" />
        </mxCell>
        <mxCell id="_cFpUyDurThmrXsbFItN-59" value="annuler/" style="edgeLabel;html=1;align=center;verticalAlign=middle;resizable=0;points=[];fontFamily=Verdana;fontColor=#000000;" vertex="1" connectable="0" parent="_cFpUyDurThmrXsbFItN-58">
          <mxGeometry x="0.664" y="1" relative="1" as="geometry">
            <mxPoint x="-27" y="-13" as="offset" />
          </mxGeometry>
        </mxCell>
        <mxCell id="_cFpUyDurThmrXsbFItN-5" value="Brouillon" style="rounded=0;whiteSpace=wrap;html=1;fontFamily=Verdana;fillColor=#dae8fc;strokeColor=#6c8ebf;" vertex="1" parent="1">
          <mxGeometry x="580" y="600" width="120" height="60" as="geometry" />
        </mxCell>
        <mxCell id="_cFpUyDurThmrXsbFItN-11" value="" style="edgeStyle=orthogonalEdgeStyle;rounded=0;orthogonalLoop=1;jettySize=auto;html=1;fontFamily=Verdana;" edge="1" parent="1" source="_cFpUyDurThmrXsbFItN-8" target="_cFpUyDurThmrXsbFItN-10">
          <mxGeometry relative="1" as="geometry" />
        </mxCell>
        <mxCell id="_cFpUyDurThmrXsbFItN-109" value="Valider/" style="edgeLabel;html=1;align=center;verticalAlign=middle;resizable=0;points=[];fontFamily=Verdana;fontColor=#000000;" vertex="1" connectable="0" parent="_cFpUyDurThmrXsbFItN-11">
          <mxGeometry x="-0.2448" y="1" relative="1" as="geometry">
            <mxPoint y="-14" as="offset" />
          </mxGeometry>
        </mxCell>
        <mxCell id="_cFpUyDurThmrXsbFItN-54" style="edgeStyle=orthogonalEdgeStyle;rounded=0;orthogonalLoop=1;jettySize=auto;html=1;exitX=0.25;exitY=0;exitDx=0;exitDy=0;entryX=0.5;entryY=0;entryDx=0;entryDy=0;fontFamily=Verdana;fontColor=#000000;" edge="1" parent="1" source="_cFpUyDurThmrXsbFItN-8" target="_cFpUyDurThmrXsbFItN-5">
          <mxGeometry relative="1" as="geometry">
            <Array as="points">
              <mxPoint x="890" y="496" />
              <mxPoint x="640" y="496" />
            </Array>
          </mxGeometry>
        </mxCell>
        <mxCell id="_cFpUyDurThmrXsbFItN-55" value="Modifier /" style="edgeLabel;html=1;align=center;verticalAlign=middle;resizable=0;points=[];fontFamily=Verdana;fontColor=#000000;" vertex="1" connectable="0" parent="_cFpUyDurThmrXsbFItN-54">
          <mxGeometry x="-0.0588" y="-3" relative="1" as="geometry">
            <mxPoint x="-20" y="-21" as="offset" />
          </mxGeometry>
        </mxCell>
        <mxCell id="_cFpUyDurThmrXsbFItN-57" style="edgeStyle=orthogonalEdgeStyle;rounded=0;orthogonalLoop=1;jettySize=auto;html=1;exitX=0.5;exitY=1;exitDx=0;exitDy=0;fontFamily=Verdana;fontColor=#000000;" edge="1" parent="1" source="_cFpUyDurThmrXsbFItN-8" target="_cFpUyDurThmrXsbFItN-56">
          <mxGeometry relative="1" as="geometry" />
        </mxCell>
        <mxCell id="_cFpUyDurThmrXsbFItN-60" value="Annuler/" style="edgeLabel;html=1;align=center;verticalAlign=middle;resizable=0;points=[];fontFamily=Verdana;fontColor=#000000;" vertex="1" connectable="0" parent="_cFpUyDurThmrXsbFItN-57">
          <mxGeometry x="-0.2601" y="-1" relative="1" as="geometry">
            <mxPoint x="-46" y="-1" as="offset" />
          </mxGeometry>
        </mxCell>
        <mxCell id="_cFpUyDurThmrXsbFItN-8" value="A valider" style="rounded=0;whiteSpace=wrap;html=1;fontFamily=Verdana;fillColor=#dae8fc;strokeColor=#6c8ebf;" vertex="1" parent="1">
          <mxGeometry x="860" y="600" width="120" height="60" as="geometry" />
        </mxCell>
        <mxCell id="_cFpUyDurThmrXsbFItN-13" value="" style="edgeStyle=orthogonalEdgeStyle;rounded=0;orthogonalLoop=1;jettySize=auto;html=1;fontFamily=Verdana;" edge="1" parent="1" source="_cFpUyDurThmrXsbFItN-10" target="_cFpUyDurThmrXsbFItN-12">
          <mxGeometry relative="1" as="geometry" />
        </mxCell>
        <mxCell id="_cFpUyDurThmrXsbFItN-48" value="Signe [si titulaire] /" style="edgeLabel;html=1;align=center;verticalAlign=middle;resizable=0;points=[];fontFamily=Verdana;" vertex="1" connectable="0" parent="_cFpUyDurThmrXsbFItN-13">
          <mxGeometry x="0.161" relative="1" as="geometry">
            <mxPoint x="-15" y="-15" as="offset" />
          </mxGeometry>
        </mxCell>
        <mxCell id="_cFpUyDurThmrXsbFItN-41" value="" style="edgeStyle=orthogonalEdgeStyle;rounded=0;orthogonalLoop=1;jettySize=auto;html=1;fontFamily=Verdana;entryX=0.5;entryY=0;entryDx=0;entryDy=0;" edge="1" parent="1" source="_cFpUyDurThmrXsbFItN-10" target="_cFpUyDurThmrXsbFItN-23">
          <mxGeometry relative="1" as="geometry">
            <mxPoint x="1170" y="770" as="targetPoint" />
          </mxGeometry>
        </mxCell>
        <mxCell id="_cFpUyDurThmrXsbFItN-42" value="&lt;div&gt;Demande acceptation &lt;br&gt;&lt;/div&gt;&lt;div&gt;[si salarié != titulaire] /&lt;/div&gt;" style="edgeLabel;html=1;align=center;verticalAlign=middle;resizable=0;points=[];fontFamily=Verdana;" vertex="1" connectable="0" parent="_cFpUyDurThmrXsbFItN-41">
          <mxGeometry x="-0.2229" relative="1" as="geometry">
            <mxPoint x="93" y="-4" as="offset" />
          </mxGeometry>
        </mxCell>
        <mxCell id="_cFpUyDurThmrXsbFItN-10" value="A signer" style="rounded=0;whiteSpace=wrap;html=1;fontFamily=Verdana;fillColor=#dae8fc;strokeColor=#6c8ebf;" vertex="1" parent="1">
          <mxGeometry x="1110" y="600" width="120" height="60" as="geometry" />
        </mxCell>
        <mxCell id="_cFpUyDurThmrXsbFItN-15" value="" style="edgeStyle=orthogonalEdgeStyle;rounded=0;orthogonalLoop=1;jettySize=auto;html=1;fontFamily=Verdana;" edge="1" parent="1" source="_cFpUyDurThmrXsbFItN-12" target="_cFpUyDurThmrXsbFItN-14">
          <mxGeometry relative="1" as="geometry" />
        </mxCell>
        <mxCell id="_cFpUyDurThmrXsbFItN-20" value="&lt;div&gt;Paiement rapproché &lt;br&gt;&lt;/div&gt;&lt;div&gt;[coda reçu] / &lt;/div&gt;" style="edgeLabel;html=1;align=center;verticalAlign=middle;resizable=0;points=[];fontFamily=Verdana;" vertex="1" connectable="0" parent="_cFpUyDurThmrXsbFItN-15">
          <mxGeometry x="-0.1667" y="3" relative="1" as="geometry">
            <mxPoint y="-17" as="offset" />
          </mxGeometry>
        </mxCell>
        <mxCell id="_cFpUyDurThmrXsbFItN-18" style="edgeStyle=orthogonalEdgeStyle;rounded=0;orthogonalLoop=1;jettySize=auto;html=1;exitX=0.5;exitY=1;exitDx=0;exitDy=0;entryX=0;entryY=0.5;entryDx=0;entryDy=0;fontFamily=Verdana;" edge="1" parent="1" source="_cFpUyDurThmrXsbFItN-12" target="_cFpUyDurThmrXsbFItN-16">
          <mxGeometry relative="1" as="geometry" />
        </mxCell>
        <mxCell id="_cFpUyDurThmrXsbFItN-19" value="Modifier /" style="edgeLabel;html=1;align=center;verticalAlign=middle;resizable=0;points=[];fontFamily=Verdana;" vertex="1" connectable="0" parent="_cFpUyDurThmrXsbFItN-18">
          <mxGeometry x="0.4514" y="-1" relative="1" as="geometry">
            <mxPoint x="-78" y="-21" as="offset" />
          </mxGeometry>
        </mxCell>
        <mxCell id="_cFpUyDurThmrXsbFItN-12" value="Valider" style="rounded=0;whiteSpace=wrap;html=1;fontFamily=Verdana;fillColor=#dae8fc;strokeColor=#6c8ebf;" vertex="1" parent="1">
          <mxGeometry x="1480" y="600" width="120" height="60" as="geometry" />
        </mxCell>
        <mxCell id="_cFpUyDurThmrXsbFItN-66" style="edgeStyle=orthogonalEdgeStyle;rounded=0;orthogonalLoop=1;jettySize=auto;html=1;exitX=1;exitY=0.5;exitDx=0;exitDy=0;fontFamily=Verdana;fontColor=#000000;" edge="1" parent="1" source="_cFpUyDurThmrXsbFItN-14" target="_cFpUyDurThmrXsbFItN-65">
          <mxGeometry relative="1" as="geometry" />
        </mxCell>
        <mxCell id="_cFpUyDurThmrXsbFItN-91" style="edgeStyle=orthogonalEdgeStyle;rounded=0;orthogonalLoop=1;jettySize=auto;html=1;exitX=0.5;exitY=1;exitDx=0;exitDy=0;entryX=0;entryY=0.5;entryDx=0;entryDy=0;fontFamily=Verdana;fontColor=#000000;" edge="1" parent="1" source="_cFpUyDurThmrXsbFItN-14" target="_cFpUyDurThmrXsbFItN-16">
          <mxGeometry relative="1" as="geometry" />
        </mxCell>
        <mxCell id="_cFpUyDurThmrXsbFItN-14" value="Payé" style="rounded=0;whiteSpace=wrap;html=1;fontFamily=Verdana;fillColor=#dae8fc;strokeColor=#6c8ebf;" vertex="1" parent="1">
          <mxGeometry x="1770" y="600" width="120" height="60" as="geometry" />
        </mxCell>
        <mxCell id="_cFpUyDurThmrXsbFItN-27" style="edgeStyle=orthogonalEdgeStyle;rounded=0;orthogonalLoop=1;jettySize=auto;html=1;exitX=1;exitY=0.5;exitDx=0;exitDy=0;entryX=0.5;entryY=0;entryDx=0;entryDy=0;" edge="1" parent="1" source="_cFpUyDurThmrXsbFItN-16" target="_cFpUyDurThmrXsbFItN-8">
          <mxGeometry relative="1" as="geometry">
            <Array as="points">
              <mxPoint x="2027" y="830" />
              <mxPoint x="2180" y="830" />
              <mxPoint x="2180" y="410" />
              <mxPoint x="920" y="410" />
            </Array>
          </mxGeometry>
        </mxCell>
        <mxCell id="_cFpUyDurThmrXsbFItN-47" value="Modifier / envoyer contrat au conseiller" style="edgeLabel;html=1;align=center;verticalAlign=middle;resizable=0;points=[];fontFamily=Verdana;" vertex="1" connectable="0" parent="_cFpUyDurThmrXsbFItN-27">
          <mxGeometry x="-0.0684" y="-2" relative="1" as="geometry">
            <mxPoint x="-191" y="-28" as="offset" />
          </mxGeometry>
        </mxCell>
        <mxCell id="_cFpUyDurThmrXsbFItN-16" value="Modifier" style="rounded=0;whiteSpace=wrap;html=1;fontFamily=Verdana;fillColor=#dae8fc;strokeColor=#6c8ebf;" vertex="1" parent="1">
          <mxGeometry x="1967" y="810" width="120" height="60" as="geometry" />
        </mxCell>
        <mxCell id="_cFpUyDurThmrXsbFItN-25" style="edgeStyle=orthogonalEdgeStyle;rounded=0;orthogonalLoop=1;jettySize=auto;html=1;exitX=0.5;exitY=0;exitDx=0;exitDy=0;fontFamily=Verdana;entryX=0.5;entryY=1;entryDx=0;entryDy=0;" edge="1" parent="1" source="_cFpUyDurThmrXsbFItN-21" target="_cFpUyDurThmrXsbFItN-5">
          <mxGeometry relative="1" as="geometry">
            <Array as="points">
              <mxPoint x="1170" y="950" />
              <mxPoint x="640" y="950" />
            </Array>
          </mxGeometry>
        </mxCell>
        <mxCell id="_cFpUyDurThmrXsbFItN-26" value="Modifier/" style="edgeLabel;html=1;align=center;verticalAlign=middle;resizable=0;points=[];fontFamily=Verdana;" vertex="1" connectable="0" parent="_cFpUyDurThmrXsbFItN-25">
          <mxGeometry x="-0.4886" y="3" relative="1" as="geometry">
            <mxPoint x="-97" y="-26" as="offset" />
          </mxGeometry>
        </mxCell>
        <mxCell id="_cFpUyDurThmrXsbFItN-21" value="Refusé par l&#39;employé" style="rounded=0;whiteSpace=wrap;html=1;fontFamily=Verdana;fillColor=#e1d5e7;strokeColor=#9673a6;" vertex="1" parent="1">
          <mxGeometry x="1110" y="860" width="120" height="60" as="geometry" />
        </mxCell>
        <mxCell id="_cFpUyDurThmrXsbFItN-110" style="edgeStyle=orthogonalEdgeStyle;rounded=0;orthogonalLoop=1;jettySize=auto;html=1;exitX=1;exitY=0.5;exitDx=0;exitDy=0;entryX=0.25;entryY=1;entryDx=0;entryDy=0;fontFamily=Verdana;fontColor=#000000;" edge="1" parent="1" source="_cFpUyDurThmrXsbFItN-23" target="_cFpUyDurThmrXsbFItN-12">
          <mxGeometry relative="1" as="geometry" />
        </mxCell>
        <mxCell id="_cFpUyDurThmrXsbFItN-113" value="signe /" style="edgeLabel;html=1;align=center;verticalAlign=middle;resizable=0;points=[];fontFamily=Verdana;fontColor=#000000;" vertex="1" connectable="0" parent="_cFpUyDurThmrXsbFItN-110">
          <mxGeometry x="-0.3707" y="1" relative="1" as="geometry">
            <mxPoint x="8" y="-19" as="offset" />
          </mxGeometry>
        </mxCell>
        <mxCell id="_cFpUyDurThmrXsbFItN-23" value="En attente de validation" style="rounded=0;whiteSpace=wrap;html=1;fontFamily=Verdana;fillColor=#e1d5e7;strokeColor=#9673a6;" vertex="1" parent="1">
          <mxGeometry x="1110" y="740" width="120" height="60" as="geometry" />
        </mxCell>
        <mxCell id="_cFpUyDurThmrXsbFItN-45" style="edgeStyle=orthogonalEdgeStyle;rounded=0;orthogonalLoop=1;jettySize=auto;html=1;fontFamily=Verdana;" edge="1" parent="1" target="_cFpUyDurThmrXsbFItN-21">
          <mxGeometry relative="1" as="geometry">
            <mxPoint x="1170" y="800" as="sourcePoint" />
          </mxGeometry>
        </mxCell>
        <mxCell id="_cFpUyDurThmrXsbFItN-46" value="Refus /" style="edgeLabel;html=1;align=center;verticalAlign=middle;resizable=0;points=[];fontFamily=Verdana;" vertex="1" connectable="0" parent="_cFpUyDurThmrXsbFItN-45">
          <mxGeometry x="-0.3184" y="-1" relative="1" as="geometry">
            <mxPoint x="-39" y="6" as="offset" />
          </mxGeometry>
        </mxCell>
        <mxCell id="_cFpUyDurThmrXsbFItN-53" value="" style="edgeStyle=orthogonalEdgeStyle;rounded=0;orthogonalLoop=1;jettySize=auto;html=1;fontFamily=Verdana;fontColor=#000000;" edge="1" parent="1" source="_cFpUyDurThmrXsbFItN-51" target="_cFpUyDurThmrXsbFItN-4">
          <mxGeometry relative="1" as="geometry" />
        </mxCell>
        <mxCell id="_cFpUyDurThmrXsbFItN-51" value="" style="ellipse;fillColor=strokeColor;fillStyle=solid;fontFamily=Verdana;labelBackgroundColor=none;labelBorderColor=none;fontColor=#000000;" vertex="1" parent="1">
          <mxGeometry x="82" y="615" width="30" height="30" as="geometry" />
        </mxCell>
        <mxCell id="_cFpUyDurThmrXsbFItN-64" style="edgeStyle=orthogonalEdgeStyle;rounded=0;orthogonalLoop=1;jettySize=auto;html=1;exitX=0.5;exitY=1;exitDx=0;exitDy=0;entryX=0.5;entryY=0;entryDx=0;entryDy=0;fontFamily=Verdana;fontColor=#000000;" edge="1" parent="1" source="_cFpUyDurThmrXsbFItN-56" target="_cFpUyDurThmrXsbFItN-63">
          <mxGeometry relative="1" as="geometry" />
        </mxCell>
        <mxCell id="_cFpUyDurThmrXsbFItN-56" value="Annulé" style="rounded=0;whiteSpace=wrap;html=1;fontFamily=Verdana;fillColor=#dae8fc;strokeColor=#6c8ebf;" vertex="1" parent="1">
          <mxGeometry x="860" y="764" width="120" height="60" as="geometry" />
        </mxCell>
        <mxCell id="_cFpUyDurThmrXsbFItN-61" style="edgeStyle=orthogonalEdgeStyle;rounded=0;orthogonalLoop=1;jettySize=auto;html=1;exitX=1;exitY=0.25;exitDx=0;exitDy=0;entryX=0.75;entryY=0;entryDx=0;entryDy=0;fontFamily=Verdana;fontColor=#000000;" edge="1" parent="1" source="_cFpUyDurThmrXsbFItN-5" target="_cFpUyDurThmrXsbFItN-5">
          <mxGeometry relative="1" as="geometry">
            <Array as="points">
              <mxPoint x="714" y="615" />
              <mxPoint x="714" y="569" />
              <mxPoint x="670" y="569" />
            </Array>
          </mxGeometry>
        </mxCell>
        <mxCell id="_cFpUyDurThmrXsbFItN-62" value="Modifier /" style="edgeLabel;html=1;align=center;verticalAlign=middle;resizable=0;points=[];fontFamily=Verdana;fontColor=#000000;" vertex="1" connectable="0" parent="_cFpUyDurThmrXsbFItN-61">
          <mxGeometry x="-0.2" y="2" relative="1" as="geometry">
            <mxPoint x="3" y="-18" as="offset" />
          </mxGeometry>
        </mxCell>
        <mxCell id="_cFpUyDurThmrXsbFItN-63" value="" style="ellipse;html=1;shape=endState;fillColor=strokeColor;labelBackgroundColor=none;labelBorderColor=none;fillStyle=solid;fontFamily=Verdana;fontColor=#000000;" vertex="1" parent="1">
          <mxGeometry x="905" y="860" width="30" height="30" as="geometry" />
        </mxCell>
        <mxCell id="_cFpUyDurThmrXsbFItN-65" value="" style="ellipse;html=1;shape=endState;fillColor=strokeColor;labelBackgroundColor=none;labelBorderColor=none;fillStyle=solid;fontFamily=Verdana;fontColor=#000000;" vertex="1" parent="1">
          <mxGeometry x="1990" y="615" width="30" height="30" as="geometry" />
        </mxCell>
        <mxCell id="_cFpUyDurThmrXsbFItN-67" value="" style="shape=image;verticalLabelPosition=bottom;labelBackgroundColor=default;verticalAlign=top;aspect=fixed;imageAspect=0;image=data:image/png,iVBORw0KGgoAAAANSUhEUgAABV4AAAHwCAYAAABe5HQGAAAgAElEQVR4Xuy9C3xdZZX3v05uveWeFtIUi0iTlEtbsCCoBaoiIBScv4II+L4woqioI4qjVZkBRpSiojgiDMzgwLxcRBkdpDh4QxQGZKTYG5eWau5pQXpJG5K0Tc75P2snu0lKs8/OOXvvsy/f/flAmpxnP2s937Wes/fz289ZJ5UZ2JGRGB3d64pFUilpOHowRqNiKEkn8J3v3Sqf/fQnko6B8UeMwIbflErzu/ZGzGvchQAEbAIP/ORBOfGE4+WQOQ1AgQAE8iCgc+nc9703jx44NdIE9vaJlM+O9BBwHgIQgAAEcieQQnjNHR5nQiAoAgivQZHGjpcEEF69pElfEAieAMJr8MyxGE8CCK/xjKvrUSG8ukZFQwhAAAJxJIDwGseoMqbYEUB4jV1IEzEghNdEhJlBxpgAwmuMg8vQAiWA8Boo7vAZQ3gNX0zwCAIQgECABBBeA4SNKQjkSgDhNVdynFdIAgivhaSPbQjkTwDhNX+G9AABJYDwmvA8cBBed+/eLa2trdLc3OwIqb29XSoqKqSmpsax3Zo1a2TRokWObQYGBqStrc2VzcrKSqmurg7MpvpVVVWFzRHibuOp+dHU1OQYJy/Z9vf3S0dHhyubmj8aU6fDzTjd2tT5pPMEm8PEvWZbW1sr+r7gRTw7OzulsbHRsa+Wlhapq6vzxGZfX590dXUVxCbCa8LvAxh+NAggvEYjTng5ngDCKxkBgWgTQHiNdvzwPjwEEF7DE4uCeJJlx2s6nZaioiJH1zKZjPkak1RW9wcHB6WkpCRrO2yOIoLt+HQhh8bzYK4wVyZ6Q53MXEF4zXpZogEECk8A4bXwMcCDyRNAeJ08M86AQJgIILyGKRr4EmUCCK9Rjp4HvlNqwAOIdAEBCEAgugQQXqMbOzxPEAGE1wQFO0ZDRXiNUTAZSiIJILwmMuwM2gcCCK8+QI1SlwivUYoWvkIAAhDwnADCq+dI6RAC3hNAePWeKT36TwDh1X/GWICAnwQQXv2kS99JIoDwmqRoH2CsCK8JTwCGDwEIJJ0AwmvSM4DxR4IAwmskwoST+xFAeCUlIBBtAgiv0Y4f3oeHAMJreGJREE8QXguCHaMQgAAEwkIA4TUskcAPCDgQQHglPaJIAOE1ilHDZwiMEkB4JRsg4A0BhFdvOEa2F4TXyIYOxyEAAQh4QQDh1QuK9AEBnwkgvPoMmO59IYDw6gtWOoVAYAQQXgNDjaGYE0B4jXmAsw0P4TUbIV6HAAQgEGsCCK+xDi+DiwsBhNe4RDJZ40B4TVa8GW38CCC8xi+mjKgwBBBeC8M9NFYRXkMTChyBAAQgUAgCCK+FoI5NCEySAMLrJIHRPBQEEF5DEQacgEDOBBBec0bHiRAYRwDhNeEJkUV4TafTUlRU5Agpk8lIKpXKCnJwcFBKSkqytsPmKCLYjk8Xcmg8D+YKc2WiN9TJzBWE16yXJRpAoPAEEF4LHwM8mDwBhNfJM+MMCISJAMJrmKKBL1EmgPAa5eh54LuD8DowMCBtbW3S3NzsaKi9vV0qKiqkpqbGsd2aNWtk0aJFjm0mY7OyslKqq6sDs6ksqqqqsDlC3Mt4esm2v79fOjo6pKmpyTE3WltbrZzVmDodbsaJzfEEo862r69Purq6pLGx0TE3WlpapK6uTvS9KN8cKqRNhFcPrqV0AQG/CSC8+k2Y/v0ggPDqB1X6hEBwBBBeg2ONpXgTQHiNd3yzjo5SA1kR0QACEIBAnAkgvMY5uowtNgQQXmMTykQNBOE1UeFmsDEkgPAaw6AypIIQQHgtCPbwGEV4DU8s8AQCEIBAAQggvBYAOiYhMFkCCK+TJUb7MBBAeA1DFPABArkTQHjNnR1nQmAsAYTXhOcDwmvCE4DhQwACSSeA8Jr0DGD8kSCA8BqJMOHkfgQQXkkJCESbAMJrtOOH9+EhgPAanlgUxBOE14JgxygEIACBsBBAeA1LJPADAg4EEF5JjygSQHiNYtTwGQKjBBBeyQYIeEMA4dUbjpHtBeE1sqHDcQhAAAJeEEB49YIifUDAZwIIrz4DpntfCCC8+oKVTiEQGAGE18BQYyjmBBBeYx7gbMNDeM1GiNchAAEIxJoAwmusw8vg4kIA4TUukUzWOBBekxVvRhs/Agiv8YspIyoMAYTXwnAPjVWE19CEAkcgAAEIFIIAwmshqGMTApMkgPA6SWA0DwUBhNdQhAEnIJAzAYTXnNFxIgTGEUB4TXhCILwmPAEYPgQgkHQCsRJed7+Wkns/WiFlMzJy7k29MsX85IBA1Anccefd8stfPyo33nCdHDKnIerDwf8EEUB4TVCwGWrsCHR2dcvb33GGdd35n98+ErvxMSAIBEkA4TVI2iG05SC8ptNp2bp1q8yaNcvR8Z6eHpk2bZqUlZU5ttu8ebPMnj3bsU2hbG7btk1mzpwZ6DixOYp7x44dMn36dM9yyA3bJNmcMWOGlJaWejI/3bKNss2hoSHR/Kirq3Nkpm28GmchbcZKeNWIrX1oikyZnpHmd+0J4VUXlyAweQK621Vv2O+/+wcIr5PHxxkFIqAPwlr/UGLei/cWyAPMQgAC+RK49mvfkLeecJycduo78+2K8yGQaAIIr4kOvwjCq6jY60ZM8lpgxibC60TvPm4fUrjJIS/FQbdzJeo2CymCFkLsDUR4be8tkvbeVCyvuHPLMzK3PB3LsTGoiQn07EnJum1FgSDauXOXPPW/z8jpp74jEHtVZRlZUEtOBwI7YCNB5u3mFdNk1ytFcsyX+qVvlv/5RN4GnEyYKxgB7qkKhj4ww/perffN+jOOx5L6oTgOy3FMCK+JC/n4AVNqIOEJwPAhAIGkE/BdeNWbxjfcVxlrzh0X7BRd9HMkh8DbHyo3wmtxbAd87zv6ZNlcdirGLcBH/2eFWcwH88Dg3S+IHNUt8i8niww4f+rGM8zkrWco6SikBJ7YUixn/qI8pN7l75beS+k9VdKP5f87VW55YUpsMVx0+B65dUl/bMd3oIEhvCYq3K8fLMJrwhOA4UMAAkkn4Lvwqot8XezH+Vj//l3seo1zgA8wtiAFrEKgvfXtfXLRPITXQrD302blXVV+dl/wvsnbgocAB3wmEHfhVfHtvLjHZ4rh7/4TT0yTe/7sXMcx/KOY2EOE1yhHD99zIoDwmhM2ToIABCAQFwIIrx5EEuHVA4gR6wLhNWIBw12LAMIriQCBaBNAeI12/Nx6j/DqllR02rHjNTqx8sVThFdfsNIpBCAAgagQQHj1IFIIrx5AjFgXCK8RCxjuIrySAxCIAQGE1xgE0cUQEF5dQIpYE4TXiAXMa3cRXr0mSn8QgAAEIkUA4dWDcCG8egAxYl0gvEYsYLiL8EoOQCAGBBBeYxBEF0NAeHUBKWJNEF4jFjCv3UV49Zoo/UEAAhCIFAGEVw/ChfDqAcSIdYHwGrGA4S7CKzkAgRgQQHiNQRBdDAHh1QWkiDVBeI1YwLx2F+HVa6L0BwEIQCBSBBBePQgXwqsHECPWBcJrxAKGuwiv5AAEYkAA4TUGQXQxBIRXF5Ai1gThNWIB89pdhFevidIfBCAAgUgRQHj1IFwIrx5AjFgXCK8RCxjuIrySAxCIAQGE1xgE0cUQEF5dQIpYE4TXiAXMa3cdhNeBgQFpa2uT5uZmR6vt7e1SUVEhNTU1ju3WrFkjixYtcmwzGZuVlZVSXV0dmE1lUVVVhc0R4l7G00u2/f390tHRIU1NTY650draauWsxtTpcDNObI4nGHW2fX190tXVJY2NjY650dLSInV1daLvRfnmUCFtIrx6cGFFePUAYsS6QHiNWMBwF+GVHIBADAggvMYgiC6GgPDqAlLEmiC8RixgXrubZcdrOp2WoqIiR6uZTEZSqVRWzwYHB6WkpCRrO2yOIoLt+HQhh8bzYK4wVyZ6Q53MXImE8LpktsihFSI9e0RWtma9jlgNLjIPXx7vHj5nQZ3IE5vdnZdLqzgJr489/oTs2tVrYagoL5fmxnkye3b9AbFs3rzF+vszz66Ws886Ixd0kT3HC+F1Qe1wfrYP45a55cM/9Xf9d1WZyLptw3/Tf+vfFs4UuWfj+L/ZbbyEeevb++SieXvz7nLVn1bL4mOPsfrR3Fp60pJ9feprDfX10m3yaPGbh9uMbX/f/Q/IBeefm5MPmsMVFeWjuWz+PdFht3UypLlebvrQOeF0PPTzR+TsM93PBTe2cwIwwUmVdzk/bXZra//cHXue5uqSBpGHW9325l07r/LWO4/c9+Q0Vza+tMnKZ+u9diS/9G/63jw2J+180jxcevKSrPmq3mWbZ0Hn6ETEDjTe/dvqPN3V2ytN5ro10fHQw2aORvh65aXwqvdW67aO3CeZ65Fee/SapId9PVp2mMgt68b/zb5muc/uybXceXHP5E7IobV9r6PzR+dK2A6/hNdlbxy+n1hr4q6xdzq07Y7d/tw/X3T4Hrl1SX/YsPvqD8Krr3jD3zmlBsIfIzyEAAQg4COB1IZ1z2ScFim52v7xTx6U8973XnMjXyQqUuVz3LrUiE0bRE4yi/n2XcM3i1VTzI3jq8N/05+6WNCbSVu0UoFKf28z7S8yn9z4xGMiehOpbbXNQiPGzjVu2eJsrv6VtP1BvtH0knzkg+fk2kWozrvmuhXysUsvsXzSBawuSlQY03+rCFtuftcFy3FGTOveskUsQWpGuSWc2X9XMUBFBMmI9fdVRizQwxbXQjXgSTjzh6f/KCeecLx1hhfCq+a1Hpqbemi+fuk4keVPiqx4q1nsrh9+4KAc20zO6sOEJ8zDhMfNQwTNe/Pg2/qpi+Kx80DP0dfyEWS9ErBu/O7NcpnJp14jhN52x51y5Wc+ZeWG5tLt5vfPmd83mzyabQRY/fvvfv+EXH3VciuXNLcu+MCo8Do2p/S1DZs2SfO80QcDKhBZ4pXJORWTNHc1b/VQH/Q1/Zu+36mIo3mtfqhIpX9XkXdsG2sOjPSp7VVA1nNtG7bgpb9rO128a67bbRrMPNC5oL7atvR3tafzR48bb7pZrv6H5RYffc0S2HTOGSa2nypOT/Tww036js1br4TXe08bfh/VXLUPzUHNVc1Pfdil79X75+XY91z7/Vjfu73IWfXDq7x1w9XrNjofNMc0fz//xauseWDPFc0Z+wGGnV+aaxeanNVcsfNP379VmFWR1m5nv6a5pfNhbD7Zua992+/f+h4vuqHGxLLXtL/mayuseWvP0bEP4+z5YV8bxp6nOauv6/y2HuaZPu35N3bOjJ3LY23bfY2d0zo2u1+bjf6uvut7gbJQLvq+Yb+ufeo4Npjx6xy135OyPUTxOr759Ldz5y7ZuWuXHDKnQbwWXvVeSa8h955urkW/HZ2zOid1vtoPvHUu22KsPgC357aOS9vpfPdKkA1CeLXvde790QPDDwRNfo6dK/b7r+b92Lmh+ayHH/fN+l59yCFzrDj7Jbz+y1KR75t46/2EPsStNvfS9vu2xte+h9a4axuNtVdxHTsHEF7zeUfg3EgSQHiNZNhwGgIQgIBXBFLdLS9m7EX9L3/9qDz3glE4PThu+t6tcq4RXj9z1dc8EV7tXRi6QLjBiFJ3mxtGvfFX4VRvDu81v6twpYt+/V0XDfqaLbz2mKf2tmClIu6XFg/vyFpgFh1jxYPJDr3ma4dap+hY9WY5aof6rAK5fXx++VXWgkIXG7oQ0UW6CgKXfeQS0Z1C1gLFfBJGhS0Vs3TRrLuw7IW+3sDreSok6SJY2+tC9xojItgLFV1E3nHX3VFDJbpbQY///tmP5W2/bLAeKuR66AJHRVbNy+tXje4yUkHrwl+afDY/NS81x3X3oP3gQfN6ZYv525zhha7mvD6E0FxXIUtz+izzU/vU13M9bljwsgz8z7/ndPpnP/2Jfeep+LFx46Z9u0V1YdvcNE/uNfmj2s4ys/NMc+gxI7jqv2//tzvlxhXXWa+rAKVikeaZLnxXrTI7ZI3IojtPV5pcvOCD58rKlY/It264zrKnfejrmqeaj/q+ZuWh6b/J2NRD+9OcHJvTeo62V4FG/639aBu1f60Rsk45ZYn87nfGPyP63GcW6eqP+ql2Vci69qsrLN9VfFJxWcc19hzN/yuv+JTll7Vb0TRQ/7UfXfzra2rT/t0+XwUki4Hhp6KwLRRN9n36B2auVZqaYJq3h/zkkJxiOvYkzd3LFw6LMPrQQN+bTzI75zRP9d92Ltp5efnRw/l4+YLR91ztb2zOXmjes5c/lV/Oap/55G3eYHLo4NJLPmTFRg/NJc2rpSbfuru3WGKhxl//pvlrPdDS91qTp4sXDz9cuOYryy0hX9+n9XzN71OMuKgPMDRnNOc0L/U1nUP6t/t++IDc9v2bLJu2CPmYye+KyuF5pedrf5qnmns6h1V41baa59rmW2aO6qHXC/tvY8/TOa3zRX3Tf+t/Ogb133oIYn7aO1OtHbcjc1nnjbUL3lw79OfY+abn28Kr2tV+Nhj/NpoHMPY80Tbqs3IY65fa07ltv3/o+4L6p0cUrkfqo87jK8x76/HnfUrO/IXzzvvJpKJea3Qer3jb8PzUS7jeQ91q7rVUULXvs+xrjV5X9Bqjop2+ptcwPfRBof3vydg/UNsH5vzUs3vRsf2PvTbtL7zaD920vYr0+r6sD8Y0ZzSvNO81p3Su6MNpP+6bVXjt7Oo218Cvyl17T5Z7/mwu8B4fKrzq+/EnzPuyLaBbn7zZae49zCYFve+w7k1G3ss1F/SexOsD4dVrovQXegIIr6EPEQ5CAAIQ8JOAb6UGzv/Qh+Xqr3xRyt9whCfCq94o6o2/iksqPn3cLBTuMwuGC8wNoYqoesNv3ShOILyqmKHn6E2kLiy0D+1Tdx3aOw5zAT39oSvl2L3r5F9v+e7rhFe9gbZ3/gYlyuZrc+yO12dGPgqui2cVTj/2ySusHUO6YNZFyljhVRciKpapgKWH/fFUba9/1/Ojflz7tW/I6e9+h5z4luPz3vGqeaiLVxWndLFrf5RTxSlr57ZZ3Go+q5ilH+vWRa7mrP6nDxP0d3s+6JzQ8+0d3/rTLkeQK3Mvdw7q7j3NC93Bp/mlC1lbCLGFVxXvNUdUULGEI7O41cWuivWaQyrOqICq/ejuPDsntT87t/TfKuqqGKNCjC3g6NxXeyqs6vljc1JzWn3QtitNntuLaW2jtu3+1Z4euvjWvu0dsvo3FbeeNfNBRS1rDhg7ltA6IoiN9VXPVUFNhdbbbr7J6l/nkdoeK7wqKxV9bX9swSmXeH708ivk0ksusvLWix2vuhtbBRn9TxfpWsbF3q2tYqy+r2pO6qcK7PdnFVlVpLHfc6tNjuqi38ucVTZe5m0urPM9R/Nf80dzwc45W4C3hVcVDVX0t3fIai7Z77tqX3NFX3vzSJ5qLmue6aFzRfNK80sP/ffnTK7q/NJDbdnzQYVXFUz1b9pefVPBVQXYC82OUvXHnh/aj/XAbuQhxljhVeeWXi9sv1Tw1HzXQ+eDPfe1r7Hzdv/5ptcdex5of9a4DSu1Zc8Te4e5Cq+2r2rffhBjt7X9yzdeQZ2v1/XvmIfZKhy2Fr/BU+FV57Neb/Sj57r7VW+QVID7kpnbtvCq90x6n6QPWPRv+vq95gH22Ad/XpZzCmLHq/2QWfNWH06MvX/RuFoPk80uas13uxSBXpPGivZex/+OO+829067LIHdrx2vet+ssdZ7ZRVb9SGaxlw/SWZ/UkFfU4HWvq9QUd3rA+HVa6L0F3oCCK+hDxEOQgACEPCTgG/Cq+20V6UG7FICKlLpol5FVBWpLAFgZOeV7tzQdnoDuf+OV/umUtvqzirtwwvhVceZrcarvWDyM5D7952rzbFC1v7C0VjhVRe9Ki7ZO171o9O6S0QXvPbuPl24q4Cgu0biILyOZZxvqQF7Z6suXFX8t3eU6O/rLxB5+09GF7m6GFKRyhZe9WOCmvv2wwbNeZ0Heq4uhvXfYRJeVQRS0dQWVu2PcKpoYguv+roemnP33vVvliCkr6sIq4tezTNdGGtO6W7U/YVXa+fpiPijfek5uutP+9cdfrqjzt4JOzYnNad1N/fYNirUqhil9lWQ0rxWsVQ/vmyLsyrwqAikdrWN/lx8zPDHtXURrz7oR1L1nLG+7tt9aHzTcVr2zRyxRDQjQul5al+FLtu2ctE55cVHo70QXg+Uu5qjmpN62Luz7frathg7VnjV92M7Z/U93YuHBWo76sKrxlyFThVWVRiySgCYXNHcsIVXzSHNSZ0Tmhe2YKT5oZ9U0B2gKg5pDtvivZ2b+wuvak/no+4steelvSvWesgxkpP6ml0/VXNdd8DqoXmrh1VCwIhSujtXH6zoefaO1/2FVxWE9cGK3f9Y4VVrr+pc1Emw/3xT+7bwqmKYPR/0p/LQQ3cL645Xu8yIvatW55QtyupDQR1PVEvfeFlqQJlpnVcV2Y6+b3gO61zUh4JjhdeHzKcstNarHlruRueuHtrW3hkZNeF17L2O5onep2hOWtcl897+cfPe/LOf/HDfQz/r/dw8XAtKtPdLeNVY6/2zHXvrXsLcQ2hc9aHu/rmgsc5nc8KwpdcfCK8TkeHvsSWA8Brb0DIwCEAAAm4IREJ4dRqI7hh0+/G2ybR1A89uk014/cPTz0hlZYUceYTZJhLQUQibAQ0tFGbyFV7dDsJtzrpt59Zu1AUst+P0o529E8/exZpPfVav/fNCeHX7fqy7unUnnf3xVbtcjH2+1zmr/cYtb/3+YiurBIERQVXw9NvW2LwJ0tb++Wrv3PV6bgXVn9fC6/5+TzQv9/+7H/PX9iWIHa9O8bJL2+iDjUIdfgmvTvHWDQljH4L5GWOE10JlFnYLRgDhtWDoMQwBCEAgDAQiL7yGAWI24VU/JviUqd01tpaq336rzc6uLuvjxRzeEwhKePXec3c9xk3Acjdq71rt/yVd3vWcX09+C69jvbM/jaBf8ub24Vh+o4uf8JovD86PHwG/hdcwECu08Kqf3PHjy7MmwzYo4XWsT/rJBf00QhAHwmsQlLERKgIIr6EKB85AAAIQCJoAwqsHxBFePYAYsS4QXiMWMNy1CAQpvBYCOQ8MCkEdm0ESQHgNknbhbBVCeA1ytAivQdLGVigIZBFe0+m0FBU5f2lvJpORVEqL5zgfg4ODUlJSkq2ZYHMUEWzHpws5NJ4Hc4W5MtEb6mTmCsJr1stS9gYIr9kZxa0FwmvcIpqM8SC8JiPOjDK+BBBe4xvbsSNDeI1fnB/4yYNy7vveG7+BMSJ3BByE1927d0tra6s0NzuXpGtvbze1qCukpqbG0eaaNWtk0aJFjm0GBgakra3Nlc3Kykqprq4OzKb6VVVVhc0R4m7jqfnR1GTqfDkcXrLt7++Xjo4OVzY1fzSmToebcbq1qfNJ5wk2h4l7zba2ttaU0az0JJ6dnZ3S2Njo2FdLS4vU1dV5YrOvr0+6zKfCC2ET4dXd5dKxFcKrBxAj1gXCa8QChrsWAYRXEgEC0SaA8Brt+Ln1HuHVLanotEN4jU6sfPGUUgO+YKVTCEAAAlEhgPDqQaQQXj2AGLEuEF4jFjDcRXglByAQAwIIrzEIooshILy6gBSxJgivEQuY1+4ivHpNlP4gAAEIRIoAwqsH4UJ49QBixLpAeI1YwHAX4ZUcgEAMCCC8xiCILoaA8OoCUsSaILxGLGBeu4vw6jVR+oMABCAQKQIIrx6EC+HVA4gR6wLhNWIBw12EV3IAAjEggPAagyC6GALCqwtIEWuC8BqxgHntLsKr10TpDwIQgECkCCC8ehAuhFcPIEasC4TXiAUMdxFeyQEIxIAAwmsMguhiCAivLiBFrAnCa8QC5rW7CK9eE6U/CEAAApEi4LvwqjSW/+806dkbKS6una0qFVnxln7H9p1d3fLU03+U8wL8NlO12Wm+se3Etxzveiw0dE/gluenyLrtRe5PiFjLLy3aLXPL0xHzGnezESBvsxHidQiEm0DPnpRcv3pqbO+pFtSk5fIjd4c7CAF4t3Zbsdz6QlkAlgpj4sLD98pJ9YOFMV4gqwivBQIfFrMIr2GJBH5AAAIQKAiBQITXIEemu0GqzL3qgtqhIM0ivIaGdjwd+c73bpXPfvoT8Rwco4IABCAAgVASWNleIgtr0zyIC2V0vHPqjjvvlksv+ZB3HdLT6wggvCY8KRBeE54ADB8CEEg6gdgJr09u2CyZqVXy9kOnhya27HgNTSgi6wjCa2RDh+MQgAAEIkvg/t88K2+fXy+HzGmI7BhwPDsB7jGyM8q3BcJrvgQjfj7Ca8QDiPsQgAAE8iMQO+H1qTUbLCJvXdScHxkPz0Z49RBmQrtiUZTQwDNsCEAAAgUkcN9z/eZB9gx2vBYwBkGY5h7Df8oIr/4zDrUFB+E1nU7L1q1bZdasWY5D6OnpkalTp8qUKVMc223evFlmz57t2GYyNqdNmyZlZc6lT7A5ilvZbtu2TWbOnOkYgx07dsj06dM9Y+ulze7ubmlocH7g6vU4sZlbDs2YMUNKS03tS4fDDduhoSHZvn27q7wN2qb6VV5e7tk4de7V1dU5MvPDZuyEVy01IJKSJSGqHYXwGupboUg4x6IoEmHCSQhAAAKxInDPpjI5uWabvKGuPFbjYjDjCXCP4X9GILz6zzjUFrIIr25EMxVevRRBsTmaMbAdP3vcCulhzSEV1tyIg16O02ubKvxlEwejblPFXjciqJfjLKRNhNcArtIIrwFAjrkJFkUxDzDDgwAEIBBCAp98eKt86ZjdlBoIYWy8dIl7DC9pHrgvhFf/GYfaAqUGQh0enIMABCDgN4HYCa9a41V3vL6tud5vdq77R3h1jYqGExBgUURqQAACEIBA0ARULDrxhOMRXoMGH7A97jH8B47w6j/jUFtAeA11eHAOAhCAgN8EYim8pgZ2UuO1q1s6u7rkxLcc73cO0X8ABFgUBQAZExCAAG27sxAAACAASURBVAQiTKBnT0rWbSuS9t4iU5M1Y9VlHS6/JJP+vc30cfmRe+RXK/8L4TXCOeHWde4x3JLKvR3Ca+7sYnEmwmsswsggIAABCORKIHbCKzVeh1NBd9kivOY6LcJ3Houi8MUEjyAAAQiEicDK9lI51IitVWWZff+pCKuH/Te3v6toqwc7XsMUYf984R7DP7Z2zwiv/jMOtQWE11CHB+cgAAEI+E0A4dVvwiMi6FNP/1HOe997A7A2bALhNTDUgRhiURQIZoxAAAIQiBwBFVNtYdVr5xFevSYazv64x/A/Lgiv/jMOtQWE11CHB+cgAAEI+E0gdsLrU2s2SmZqJTVe2fHq99wJtH8WRYHixhgEIACByBC4fvUU6wuw/DgQXv2gGr4+ucfwPyYIr/4zDrUFhNdQhwfnIAABCPhNIHbCq365FjVe2fHq98QJun8WRUETxx4EIACBaBC45fkpph4rwms0ohVOL7nH8D8uCK/+Mw61BYTXUIcH5yAAAQj4TSB2wis1XodThlIDfk+dYPtnURQsb6xBAAIQiAoBhNeoRCq8fnKP4X9sEF79ZxxqCwivoQ4PzkEAAhDwmwDCq9+ER0RQarwGADrGJlgUxTi4DA0CEIBASAlQaiCkgfHYLe4xPAZ6gO4QXv1nHGoLDsLrwMCAtLa2yvz58x2H0N7eLhUVFVJTU+PYbs2aNbJo0SLHNmqzra1NmpubHdtpm8rKysBtVlVVSXV1daDjxOYobjc51N/fLx0dHdLU1OQYJ81tzVnl63Rgc5ROmNm2tLRIbW2tJ/Hs6+uTzs7OrDmkNuvq6qz3onxzSG12dXVJY2OjY19+2Iyd8EqN1+EcYsdrqG+/Ju0ci6JJI+MECEAAAokgQI3XRITZ10Fyj+ErXqtzhFf/GYfaQpYdr+l0WoqKihyHkMlkJJVKZR3m0NCQFBcXZ20XdZuDg4NSUlIS6DixOR63lzkEW9hONJndvveFPYdiJ7xqjdddr3TJ6Scdl/WNOKgGz7/wouzctUtOfMvxQZlEeA2MdDCGWBQFwxkrEIAABKJGAOE1ahELn7/cY/gfE4RX/xmH2gKlBkIdHpyDAAQg4DeB2AmvWuP1F7/+rXz1QycfkN1jv3/C+vvSk5dYP6+5boVcc9XyCds2N82TZ55dLRXl5bLK/GxoqJcLPnDupOJSiBtadrxOKkShb1yIHAo9FByEAAQgAAGhxitJkC8B7jHyJZj9fITX7Ixi3QLhNdbhZXAQgAAEshGIpfD63AsbpKT9D3LpxR963fhvv+NO2bhxk3zrhuvkscefkGu/ukJ++8uV8tDPH7H+ftlHLpHNm7fIQw8/Irt6e+XC88+VXbt6Rc9b/OZjpKlxniXajm2/atVq2bjJnHvpJa+zpzdalZUVctqp78wWC09fR3j1FGfBO2NRVPAQ4AAEIACBxBGgxmsyQs49hv9xRnj1n3GoLSC8hjo8OAcBCEDAbwKxE1579qRE/yvq6TQ7Xx+VnTt3yaWXfEgqTTFyPVRAVWF12ZlnWMJrrxFVTzlliWzu3mIJqvfe/4Bs3rJFrv7Kcvn2d2+WZWedYe101eNsc46er+31b9pef+p/31pxnSl4Xr4vXnoTq8d573uvHDKnwe84vq5/hNfAkftqkEWRr3jpHAIQgEBkCVBqILKhC43j3GP4HwqEV/8Zh9oCwmuow4NzEIAABPwmEDvhtb13uDD53PL0AdmpcKqC6X1GYM2YFlqi/M1mJ6uWEtC/a+kBFWN1R+y15t8HEl61vYq3ugNWz1OxdqJyBX4HcKL+EV4LRd4fuyyK/OFKrxCAAASiTgDhNeoRLLz/3GP4HwOEV/8Zh9oCwmuow4NzEIAABPwmEDvhVWu8qpy6pH7wgOy0hMBSs2N1pf7UkgHm5wUfPNcSYrWkgJYW0B2sG17aZO181fIBG0wJAj30vPt++MC49mebHbFaN/ZAZQb8Dp5T/wivhaTvvW0WRd4zpUcIQAACcSBwz6YyuWjeHl+GQqkBX7CGrlPuMfwPCcKr/4xDbQHhNdThwTkIQAACfhNInPDqN9Cw9I/wGpZIeOMHiyJvONILBCAAAQi4J4Dw6p5VlFtyj+F/9BBe/WccagsIr6EOD85BAAIQ8JtA7IRXre+qR1WZFhJI7oHwGq/YsyiKVzwZDQQgAAGvCFBqwCuSye2Hewz/Y4/w6j/jUFvIIrym02kpKhoulzfRkclkJJUaXuc6HYODg1JSUpKtmWBzFBFsx6cLOTSeB3OFuTLRG+pk5krshNd124qM6DpxjdesV6GYNEB4jUkgR4bBoihe8WQ0EIAABLwigPDqFcnk9sM9hv+xR3j1n3GoLTgIr7t375bW1lZpbm52HEJ7e7v5IucKqampcWy3du1aWbhwoWObgYEBaWtrc2WzsrJSqqurA7OpflVVVYXS5po1a2TRokVZ2WqsmpqaHNu5HafXNjWWytfpcGOzv79fOjo6XI0zaJs6n3SeBDnOONjs7OyUxsZGx9zQcdbW1oq+L3iRQ0Hb7Ovrk66urqzjbGlpkbq6Ok/GaduMnfCarcZrqC/KHjqH8OohzBB0xaIoBEHABQhAAAIhJLCyvVSWzd3ri2eUGvAFa+g65R7D/5AgvPrPONQWKDUQ6vDgHAQgAAG/CSC8+k24QP0jvBYIvE9mWRT5BJZuIQABCEScgJZY8qu8EsJrxJPDpfvcY7gElUczhNc84MXhVITXOESRMUAAAhDImUDshFcl4eciJGfSAZ+I8BowcJ/NsSjyGTDdQwACEIgoAUoNRDRwIXKbewz/g4Hw6j/jUFtAeA11eHAOAhCAgN8EYie8ao1XkZQsqB3ym12o+0d4DXV4Ju0ci6JJI+MECEAAAokggPCaiDD7OkjuMXzFa3WO8Oo/41BbQHgNdXhwDgIQgIDfBGInvFLjdThlEF79njrB9s+iKFjeWIMABCAQFQLrthX79rCZUgNRyYL8/OQeIz9+bs5GeHVDKcZtEF5jHFyGBgEIQCA7AYTX7Iwi2QLhNZJhm9BpFkXxiiejgQAEIOAVAYRXr0gmtx/uMfyPPcKr/4xDbQHhNdThwTkIQAACfhOInfDqN7Co9I/wGpVIufOTRZE7TrSCAAQgkDQClBpIWsS9Hy/3GN4z3b9HhFf/GYfaAsJrqMODcxCAAAT8JhA74VVLDVSViW8fu/M7IF71j/DqFclw9MOiKBxxwAsIQAACYSOA8Bq2iETPH+4x/I8Zwqv/jENtAeE11OHBOQhAAAJ+E4il8KpfrrWkftBvdqHuH+E11OGZtHMsiiaNjBMgAAEIJIIApQYSEWZfB8k9hq94rc4RXv1nHGoLDsJrOp2WrVu3yqxZsxyH0NPTI1OnTpUpU6Y4tuvu7paGhgbHNmG3OW3aNCkrMzupHA4vx7ljxw6ZPn16pG1u27ZNZs6c6cjM63FicxS3l2yHhoZk+/btgcbTrU31q7y8XEpLS/Oen0mzGTvhVRcgPXsQXhFeQ337NWnnWBRNGhknQAACEEgEAYTXRITZ10Fyj+ErXoRX//GG30IW4dWNgLVz505LeM0mSG7evFlmz56dVXh1Y1PFXjciKDZHcauoDdtRHl7nkAp/dXV1WR9SqJCeTRx0m7dubKrwOmPGDGyORCasbFXs1VhlyyEv42nbjJ3wGv4rbzAeIrwGwzkoKyyKgiKNHQhAAALRIkCpgWjFK4zeco/hf1TY8eo/41BboNRAqMODcxCAAAT8JhA74ZUar8Mpg/Dq99QJtn8WRcHyxhoEIACBqBBAeI1KpMLrJ/cY/scG4dV/xqG2gPAa6vDgHAQgAAG/CcRSeKXGK8Kr3xMn6P5ZFAVNHHsQgAAEokGAUgPRiFOYveQew//oILz6zzjUFhBeQx0enIMABCDgN4HYCa/UeB1OGXa8+j11gu2fRVGwvLEGAQhAICoEHt9SIif59IWiKhadeMLxcsgc5y9qiQor/DwwAe4x/M8MhFf/GYfaAsJrqMODcxCAAAT8JhA74dVvYFHpH+E1KpFy5yeLInecaAUBCEAgaQQoNZC0iHs/Xu4xvGe6f48Ir/4zDrUFhNdQhwfnIAABCPhNIHbCKzVeh1MG4dXvqRNs/yyKguWNNQhAAAJRIYDwGpVIhddP7jH8jw3Cq/+MQ20B4TXU4cE5CEAAAn4TiKXwSo1XhFe/J07Q/bMoCpo49iAAAQhEg0B7b5HMLU/74iylBnzBGrpOucfwPyQIr/4zDrUFhNdQhwfnIAABCPhNIHbCKzVeh1OGHa9+T51g+2dRFCzvMFgb3DsoPbtek7raqjC4gw8QgEBICVDjNaSBiZBb3GP4HyyEV/8Zh9oCwmuow4NzEIAABPwmEDvh1W9gUekf4TUqkXLnJ4sid5zi0mrr9h754+rnpapihrz1uIVxGRbjgAAEfCBAqQEfoCasy0LcYzzcXiI9e1KxJL2gNi0LaofGjQ3hNZahdj8oB+F1YGBAWltbZf78+Y79tbe3S0VFhdTU1Di2W7NmjSxatMixjdpsa2uT5uZmx3baprKyMnCbVVVVUl1dHeg4k2BT80y5esG2v79fNCez5ZDa1JxVvk6Hm7xVmx0dHdLU1OTYFzbH4/GSbUtLi9TW1noSz76+Puns7MwaT7VZV1dnvRflm0Nqs6urSxobGx378sNm7IRXrfFKqQF2vLq/E4pGy0IsiqJBJr5edna/LHsHh+SwuXybeHyjzMggkD8BhNf8GSa9h6DvMfRe/cxflMcWe1VZRjou2InwGtsI5zCwLDte0+m0FBUVOXacyWQklcr+sGJoaEiKi3U97Hxgc5QPbMfnCjk0ngdzhbky0bvpZOYKwmu2q1JEX2fHa0QDN4HbQS+K3NB7bsNfjDA4KM1vOlSmTZvi5hTaQAACEICAxwSo8eox0AR2F/Q9RtyFV02hnRf3ILwmcC5NOGRKDZANEIAABBJNIHbCq9Z41WP/j/gkLcoIr/GKeNCLIjf0Vj+3Ufr7B+So5sOl0nwkngMCEIAABIInsLK9VJbN3euLYb5cyxesoes06HsMhNfQpQAO+U0A4dVvwvQPAQhAINQEYie8ar0o/YhP0g+E13hlQNCLIjf09povfyotLXHTlDYQgAAEIOATAUoN+AQ2Qd0GfY+B8Jqg5GKowwQQXskECEAAAokmEDvhlRqvw/mM8BqveR30oihe9BgNBCAAgfgSuOX5KXL5kbt9GSA7Xn3BGrpOg77HQHgNXQrgkN8EEF79Jkz/EIAABEJNAOE11OHJ3TmE19zZhfHMoBdFYWSATxCAAAQg8HoCfn7SB+E1GRkX9D0Gwmsy8opRjiGA8Eo6QAACEEg0gdgJr/olE7oIocZrt9n12iUnvuX4RCd4XAYf9KIoLtwYBwQgAIG4E7hnU6lcNI8ar3GPs5/jC/oeA+HVz2jSdygJILyGMiw4BQEIQCAoArETXlV01SPpdV7Z8RrUFArGTtCLomBGhRUIQAACEMiXADVe8yXI+UHfYyC8knOJI4DwmriQM2AIQAACYwnETnilxutweBFe4zXRg14UxYseo4EABCAQXwLUeI1vbIMa2R133i2XXvKhoMxJEoXXoBkHFkwMuSOQRXgdGhqS4uJix74ymYykUsMbjJyOwcFBKSnJ/uW3hbCZTqelqKgo0HFicxS31zkEW9hONJndvg8lKYcQXrNdvSL6OsJrRAM3gdsIr/GKJ6OBAAQgEAUCO3fukh//9EG59OLgRLkwcVn17GqpqCiXpsZ5llv33f+AXHD+uQd08bHfPyGL33yM6M+K8nLZ+NImq91ll14SpiEd0Jega/l6IbxWlYkse6PIPRuHh3RRk8jjm0Xad71+iHPLzSfhpoh8coHIF58UWfE2kXVbRda+KvKEOcePY+fFPeO6vfbr35Crv/wFP0zRZxQIOAivu3fvltbWVmlubnYcSXt7u1RWVkp1dbVju7Vr18rChQsd2wwMDEhbWxs2Rygpi6qqKs/YaqyamsybksNRKJuaPzpWp8NtDrkdpxuba9askUWLFjn61d/fLx0dHa7YBm1T53BNTU1Wtm7H2dnZKY2NjY48CmWztrbWei9yOrwep1c2+/r6pMuU48zGtqWlRerq6jwZp20zdsKr1njVY255OgqXYd98RHj1DW1BOkZ4LQh2jEIAAhAIPYFbni+Ty4/c45ufKsplTO/nve+9vtkIa8e333GnqPh62/dvkod+/ojo7w/95w+tf+tx9plnyObNW6zfVWi9+qrlVnttp6+VG9FWf45t/9DD5lyzaU3/HqbjyuVXyWc/fbkcMqfBF7dUxP/Frx+18sgL4XVuhcj/vF/k6HvFfLfD8L9VVO3ZbQTZw4wgu8GIsL0ilx89/Loe+nNBnciS2SLXrxr5u0luu732udC8vrLtwALuZMCMFV51t+vp736nb2wn4xdtC0SAUgMFAo9ZCEAAAuEgEEvhVeu7UuOVL9cKxxTzxguEV2840gsEIACBuBHws8arzer5FzZYotkbfBLlwhSTc8cIzCqgqrD6uSs+Jd++6WZLgF56yhLZ3L3F7LiZZ4msluD6leXy+S9dZf1caURYPUd3ul7ztRWyzAis2kZ3zfbu6rV2xF5jBNrZs+utYasg+UvDNgyH+nHEEfN9ibOOU3d9nnbqO+Xif/yenPkLsw01j0NF0luXmh2r3cMi6UlGL77biK0XmU2Dt6wzgqvZ3aqv6aFiq+5w1TYrW4zwOsf8bna76rHE/O3hVpGz3jjcz1rTTnfBqoCbz7F98W9kqGWj/PsDD8pZX/8Ooms+MONwLsJrHKLIGCAAAQjkTCB2wis1XodzgR2vOc+JUJ6I8BrKsOAUBCAAgYIT8LPGa8EHV2AHVHhdevISudeUGFh87DGy6k+rpdkIqCqiNhjhVP+uoqruiP282TH6uc986nXC69KTllg7XMtN+QE9V89R4TVph96X6u7pD5tasmtfq/ZEeNXyAiqq6k5WFVl3mJ8qri43O1/vPd0IqTuNCLte5FCj8apQq6/pTlgVW1Vk1fIDKrjq37RyprbR0gUHKlcw2XjZO17Tr3RL0UH+7CKerE+0LyABhNcCwsc0BCAAgcITQHgtfAx88QDh1ResBesU4bVg6DEMAQhAAAIJJaA1XVV4vfG7N8uVRlTVkgFa4/Xa61bI7Pp6udD8W3ewdpsdrhs3De98/d3I7/qaCre6W1bba91X3QWrwuuV5m9JPrwqNbDs0FEBVXeoqvC6cOawgKri6eNGjNWdr/qaCrMLzGsrW40Aa0oN2OKq/k0FWG2j/3lRZkBju3+N18GnfyslJ7wjyWFP9tgRXpMdf0YPAQgknkDshNeePSnz5DtFjVezs6DTFA4+8S3HJz7J4wAA4TUOUWQMEIAABLwnEESpAe+9psckE/BCeA07v/2F172PPiSl7zw77G7jn18EEF79Iku/EIAABCJBIHbCq365FjVeKTUQidk3CScRXicBi6YQgAAEEkQA4TVBwY7JUJMpvP7MCK/nxCSCDGPSBBBeJ42MEyAAAQjEiUDshFdqvA6nJ6UG4jRNRRBe4xVPRgMBCEDAKwLUePWKJP0ERSCJwmu6ZYMUHWa++YsjmQQQXpMZd0YNAQhAYIQAwmtMUwHhNV6BRXiNVzwZDQQgAAEIQCCpBBIpvPIlW0lN9+FxI7wmO/6MHgIQSDyB2Amv1HgdzmmE13jNbYTXeMWT0UAAAhDwigClBrwiST9BEUii8Lr3UUoNBJVfobTjILym02nZunWrzJo1y9H1np4emTp1qkyZYr4NzuHo7u6WhoYGxzZhtrljxw6ZNm1aoONUm9OnT5eysrLA2GJzPGq3ebtt2zaZOdN8K6LD4TXboG0ODQ3J9u3bs45T28yYMcOTvA27zXLzBaWlpaV5z8/JjNNrm7ETXqnxivAayhuuPJ1CeM0TIKdDAAIQiCkBhNeYBjbGw0J4jXFwGdqBCTgIr5lMxhJes4lJO3futITXbOLgli1bpL6+Pqvw6kZMKoRNFZhVeA1ynGG2uXnzZpk9e3bWeKoIV1dXl1W8d8PWa5sqamcTzbA5Gjp9MOImniowq/AaJFtsjp9ibvJWxV7lFjvhlRqvCK9xvOdDeI1jVBkTBCAAgfwJ3LOpTC6atyf/jugBAgERSKLwSo3XgJIrrGYoNRDWyOAXBCAAgUAIILwGgjl4I5QaCJ65nxYRXv2kS98QgAAEIAABCARFAOE1KNLYCQ0BhNfQhAJHIAABCBSCQOyEV2q8DqcRwmshppN/NhFe/WNLzxCAAASiTIBSA1GOXjJ9T6LwSo3XZOb6vlEjvCY8ARg+BCCQdAKxE161xqsec8vTiY4twmu8wo/w6k889f1iZXuJ6AObOB4LatOybO7eOA6NMUEAAiMEEF5JhagR0GvuPZtKY3vtnVueeV35D4TXqGWpx/4ivHoMlO4gAAEIRItA7IRXarwOJyDCa7QmYjZvEV6zEcrtdRUsrl8zNbeTI3CWPoBa//5dEfAUFyEAgVwJrGwv5QFLrvA4DwIBEUi/0i1FBzl/03xArmCmEAQQXgtBHZsQgAAEQkMA4TU0ofDWEYRXb3kWujeEV38igPDqD1d6hQAEgiOguweryjLBGcQSBCAwaQJD61dJ8dGLJ30eJ8SEAMJrTALJMCAAAQjkRiB2wqv9keGkL0IQXnObEGE9C+HVn8ggvPrDlV4hAIHgCFBqIDjWWIJArgQoNZAruZich/Aak0AyDAhAAAK5EYid8LpuW5HZ+UGNV4TX3CZEWM9CePUnMgiv/nClVwhAIDgCCK/BscYSBHIlgPCaK7mYnIfwGpNAMgwIQAACuRGInfBKjdfhREB4zW1ChPUshFd/IoPw6g9XeoUABIIjsG5bsSyoHQrOIJYgAIFJE8i8tktSMyomfR4nxISAg/A6MDAgra2tMn/+fMfBtrW1SWVlpdTU1Di2W7NmjSxatMixTaFs6hiam5uzjrOqqkqqq6s9GWcSbPb390t7e3tWtppnytULtoWy2dHRIU1NTY65oePUeaJ55HS4mSs6TmyOUmxpaZHa2lpP2Pb19UlnZ2fWeKrNuro66/0v33h6bXP16tVyzDHHOPqlNru6ugThNSbX8/2HgfAar8AivPoTT4RXf7jSKwQgEBwBhNfgWGMJArkSoMZrruRicl6WHa/pdFqKioocB5vJZCSVSmUFMjQ0JMXFxVnbYXMUEWzHpws5NJ4Hc4W5MtEb6mTmSuyEV4XCF02w4zXr3UbEGiC8+hMwhFd/uNIrBCAQHAFKDQTHGksQyJUApQZyJReT8yg1EJNAMgwIQAACuRGInfCqNV5FUon/2J3ueH3+hRfltFPfmVtmcFaoCCC8+hMOhFd/uNIrBCAQHAGE1+BYYwkCuRJAeM2VXEzOQ3iNSSAZBgQgAIHcCMROeKXG63Ai7Ny5S37x60flvPe9N7fM4KxQEUB49SccCK/+cKVXCEAgOAKUGgiONZYgAAEI5EQA4TUnbJwEAQhAIC4EEF7jEskDjAOxLrjgPvb7J2Tz5i1ywfnnTsro7XfcKZddeknWczSWl17yIams4IsZssKaRAMvhddlbxSpKhO5Z6N7B7T9SQ0iK1vdnzOZlnPL07L+/bsmcwptIQCBiBFAeI1YwHA3kQQGn35MSk5YmsixM2hDAOGVNIAABCCQaAKxE14THc39Bq/lBnTX6+mm3MAhc4y6w+EbgWuvWyG7envlWyuuE0uE3bJFuru3yGUfuUTuu/8B2bWrVxa/efgb7/Tnxpc2SUN9vdxmhNePXXqJ3GvaNDXNk+bGedb5Tebn0pOX7PNXdzB/52Yjvl78IWKZZxSfevqP8oO77parv/JF+X9/PUyuXzM1zx6HT7/3NK0vLfKJx0QuGvmyzblGJ79lnfndfIGr/vueDSIL64bFWRVq24wmqj9Xtpg25stsH+82u9V3i5x1mMjD5m+Pb87PNYTX/PhxNgSiQIBSA1GIEj4mnQClBhKeAQivCU8Ahg8BCCSdQOyEVy01oLvIFtQOJT221vhVfP2DEZoy0PCUwOnvfue+3ae601UFVBVNVTBd9afVsvjYY6TbiK8qrqrw+q0brpNrjDjbMLtezj7zDHnGtNHXHvr5I9JrBNsLPnCu3PejB2TZWWfIxo2bxu2C1Vq9z71gFDtz/OHpZ+TII5vZ+ZpHNJXhAz99UCorK+SYz98jD+5elEdvw6fOLRe5fKERXo1oquKpCq2W4GoEWN3Nqr8vf1JkxduG26s4+6XFw211x+sCI8beatovN3+714iyO4yA+7A5L98D4TVfgpwPgfATQHgNf4zwEALseE14DiC8JjwBGD4EIJB0ArEUXvXLtZbUDyY9tow/IAIqnq561gipRlTtNiLsgcTVa65aPk54tXe17hNeTYkC3SHb0FBvlSxYZsRZDn8IPG9EbN0JrqUbvv/nmZ7seF3xVuNryvxnnnDorlfd3Xr9qmHh1RZX9fdblw6PyRZhdQesCq8nzRb5unm92jw0qpoyvBP2iTx3u6odhFd/coheIRAmApQaCFM08AUCByaQeW2XpGZQLiqx+YHwmtjQM3AIQAACSiB2wqsuQHr2ILyS3sERGFun9cbv3ixN80yZgFOW7BNjVZTV2q/aTssH6M+KinJrl6u+pqUHVIitKC+3/j22LEFwo0imJa9qvOruVRVW9VARVsVX3fGqZQTWbh0tL3D50cPlAy5fINJuxFXdDaulB3aYnbILZw7/TXfNtvWKrDPn5XsgvOZLkPMhEH4Cj28pkZN42Bz+QOFhoglQaiDR4c9a43VoaEiKi4sdIWUyGUml9Cm/8zE4OCglJSXZmgk2RxHFgW06nZaioqJAcwib/uUQbOPHNnbCa9arDA0gAAEIjBDwSngNK1CE17BGBr8g4B0BSg14x5KeIOAXAYRXv8hGpF+HHa+7d++W1tZWaW42dakcjvb2dlMmmcvwYAAAIABJREFUq1Kqq6sd261du1YWLjT1rxyOgYEBaWtrS4RN5dbUNPLlCxMwURZVVVWesQ2zTc0fHavT4TaH3I7TK5v9/f3S0dHhKp5B29Q5XFNT4wlbHWdnZ6c0NjY6xklt1tbWWu8L+cbTa5tr1qyRRYucy/kVwmZfX590dXV5xtbNOG2bsRNeqfEakRsQ3IRACAggvIYgCLgAAQjkRQDhNS98nAyBQAgMrV8lxUebj8dwJJMApQaSGXdGDQEIQGCEQCyFV2q8kt8QgIAbAgivbijRBgIQCDOB9t4iq54zBwQgEF4C1HgNb2wC8QzhNRDMGIEABCAQVgKxE16p8RrWVMMvCISPAMJr+GKCRxCAwOQIUON1crxoDYFCEKDUQCGoh8gmwmuIgoErEIAABIInEDvhNXiEWIQABKJKAOE1qpHDbwhAwCZAqQFyAQLhJ4DwGv4Y+eohwquveOkcAhCAQNgJxE54pcZr2FMO/yAQHgIIr+GJBZ5AAAK5EUB4zY0bZ0EgSALplg1SdJjzlycF6Q+2AiaA8BowcMxBAAIQCBeBWAqv1HgNV5LhDQTCSgDhNayRwS8IQMAtAWq8uiVFOwgUjkD6lW4pOqihcA5gubAEEF4Lyx/rEIAABApMIHbCKzVeC5xRmIdAhAggvEYoWLgKAQgckMDK9lJZNncvdCAAgRAToNRAiIMThGsIr0FQxgYEIACB0BKInfAaWtI4BgEIhI7ALc+XyfI/TgudX145tKB2SP7n7F6vuqMfCEAghAQoNRDCoOASBPYjgPCa8JRAeE14AjB8CEAg6QRiJ7xqjVdKDSQ9rRk/BNwR6NmTkie2lIj+DOII+qOGKrzqfxwQgEB8Cdzy/BS5/Mjd8R0gI4NADAgEff2PAbJ4DcFBeE2n07J161aZNWuW45h37Ngh06ZNkylTpji26+7uloYG57IW2ByPsFBsp0+fLmVlZYHGMwk2t2/fLjNmzPCE7dDQkGzbti3r/PTapvY3c+ZMx9xIks3y8nIpLS3Ne65oPN2y9domwmu8LuuMBgIQCDGBvY8+JKXvPDvEHuIaBCAQNQL64KiqLBM1t/EXAokiMLR+lRQfvThRY2awYwg4CK+ZTMYSXrOJLDt37pSpU6dmFZO2bNki9fX1jvhVeFUxKQk2VWSpq6tz5NHT02OJ2tlEULdsw2xThddsApbX48TmaPrBdpSFvg+5mSv6YESFdK/yVvurra3N+qDLa5uxE161xqse7PLidgcCEAgbgYz5co0UX64RtrDgDwQiTeCeTaVy0TxqvEY6iDgfewKUGoh9iJ0HSKmBhCcAw4cABJJOIHbCKzs/kp7SjB8C4SWQbtkgRYc1h9dBPIMABCJHgBqvkQsZDieQAMJrAoM+dsgIrwlPAIYPAQgknUDshFdqvCY9pRk/BMJLgFID4Y0NnkEgqgSo8RrVyOF3kghQ4zVJ0T7AWBFeE54ADB8CEEg6AYTXpGcA44cABAIjgPAaGGoMQQACEIAABEJDgBqvoQlFYRxBeC0Md6xCAAIQCAmB2Amv7b1F1jeUU+M1JBmGGxCAwD4ClBogGSAAAa8J3PJ8mVx+5B6vu6U/CEDAQwKUGvAQZhS7QniNYtTwGQIQgIBnBGInvKroqgff8OtZjtARBCDgEQG+XMsjkHQDAQjsI0CNV5IBAuEngPAa/hj56iHCq6946RwCEIBA2AnETnilxmvYUw7/IJBcApQaSG7sGTkE/CJAjVe/yNIvBCAAAY8IILx6BJJuIAABCESTAMJrNOOG1xCAQAQJILxGMGi4DAEIQAACEMiTwODTj0nJCUvz7IXTI0sA4TWyocNxCEAAAl4QiJ3wqjVe9ZhbnvaCD31AAAIQ8IwANV49Q0lHEIDACAFKDZAKEAg/AUoNhD9GvnroILwODAxIa2urzJ8/39GFtrY2qayslJqaGsd2a9askUWLFjm2KZRNHUNzc3PWcVZVVUl1dbUn40yCzf7+fmlvb8/KVvNMuXrBNuw2dZ5oHjkdbuaKjrOjo0Oampoc+1K2bmyuXr1ajjnmGMe+3NpsaWmR2trarON0Y7Ovr086OzuzjjNJNuvq6qz3XKfDLduuri6JpfCq9V2p8err7QOdQwACORCgxmsO0DgFAhBwJIDwSoJAIPwE2PEa/hj56mGWHa/pdFqKioY3D010ZDIZSaWGv8vE6RgaGpLi4uJszQSbo4hgOz5dyKHxPJgr8Zorbua7mzZKxe1csfrLDOzIZH1njlADarxGKFi4CoGEEaDUQMICznAhEAABarwGABkTEIAABPIhQKmBfOhxLgQgAIHIE0B4jXwIGQAEIBAVAgivUYkUfkIAAhCAAAS8I0CpAe9YRrInhNdIhg2nIQABCHhFIHbCa8+elOh/1Hj1KkXoBwIQ8IoANV69Ikk/EICATYBSA+QCBMJPAOE1/DHy1UOEV1/x0jkEIACBsBOInfCqX65Fjdewpx3+QSCZBKjxmsy4M2oI+EkA4dVPuvQNAW8IUOPVG46R7QXhNbKhw3EIQAACXhCInfBKjVcv0oI+IAABPwhQasAPqvQJgWQTuGdTmVw0b0+yITB6CIScQOa1XZKaURFyL3HPNwIIr76hpWMIQAACUSCA8BqFKOEjBCAQCwIIr7EII4OAQKgIaHkl/aQPBwQgEF4ClBoIb2wC8QzhNRDMGIEABCAQVgKxE16p8RrWVMMvCEBgaP0zUnz0cYCAAAQg4BkBSg14hpKOIOAbAYRX39BGo2OE12jECS8hAAEI+EQgdsIrNV59yhS6hQAE8iZAjde8EdIBBCCwHwGEV1ICAuEnMLR+lXnwujj8juKhPwSyCK9DQ0NSXFzsaDuTyUgqlcrq3+DgoJSUlGRth81RRLAdny7k0Hge6XRaioqKAp2f2PRvfrph66aNeuh2rmh/sRNeqfGa9TpLAwhAoEAEKDVQIPCYhUCMCaxsL5Vlc/fGeIQMDQLRJ5B+pVuKDmqI/kAYQW4EHITX3bt3S2trqzQ3Nzv23d7eLpWVlVJdXe3Ybu3atbJw4ULHNgMDA9LW1ha4TR1DU1NToOMMq03lr7GsqqryJJ5uxhl1m/39/dLR0ZE1h7wcp9rs7OyUxsZGxzjpHK6pqfEknpOxWVtba70vOB1u3hOwOZ6gxtMrtn19fdLd3Y3wmtvVk7MgAAEITJ4AwuvkmXEGBCDgTIAar2QIBMJPgFID4Y+Rrx5SasBXvHQOAQhAIOwEYrfjlRqvYU85/INAcglQ4zW5sWfkEPCLAKUG/CJLvxDwjgDCq3csI9kTwmskw4bTEIAABLwiEDvhVWu86jG3PO0VI/qBAAQg4AkBarx6gpFOIACBMQQQXkkHCISfQLplgxQd5vxR8vCPAg9zJoDwmjM6ToQABCAQBwKxE16p8RqHtGQMEIgnAUoNxDOujAoChSSwbluxLKgdKqQL2IYABLIQQHhNeIogvCY8ARg+BCCQdAIIr0nPAMYPAQgERgDhNTDUGIJAYgggvCYm1Aw0wgQoNRDh4HnhOsKrFxTpAwIQgEBkCcROeNUar3pUlWUiGxQchwAE4kmAGq/xjCujgkAhCVBqoJD0sQ0BdwQQXt1xim0rhNfYhpaBQQACEHBDIHbC67ptRUZ0pcarm+DTBgIQCJZA5rVdkppREaxRrEEAArEmgPAa6/AyuJgQSL/SLUUHNcRkNAxj0gQQXieNjBMgAAEIxIlA7IRXarzGKT0ZCwTiRYBSA/GKJ6OBQBgIUGogDFHABwg4Exhav0qKj14MpqQSQHhNauQZNwQgAAGLAMIriQABCEAgIAIIrwGBxgwEEkQA4TVBwWaokSVAqYHIhs4bxx2E13Q6La+++qocdNBBjrZ27Ngh06ZNkylTpji26+7uloYG593VhbK5detWmTVrVqDjDLPN6dOnS1mZ+aiuw+E2nm7HGbTN7du3y4wZM7KOs6urS+bMmePIYmhoSLZt25Y1h7A5HmOY2WqsZs6c6Rh3r+Pp1mZ5ebmUlpY6+uaWrdqMnfBKjVdv7g/oBQIQ8J4ANV69Z0qPEEg6AUoNJD0DGH8UCCC8RiFKPvroILxmMhlR0Syb+LBz506ZOnVqVgFry5YtUl9f7zgYtakCVl1dnWM7L22q2KviAzaHkff09IiKoNmEHTfxdMsWm+PTHbajPDSH9OFObW2t43uC1zkUVpvqlz4w8Gp+an+xE161xqvZyCsLaod8vHrSNQQgAIHJE6DG6+SZcQYEIOBMAOGVDIFA+Alw/Q9/jHz1kFIDvuKlcwhAAAJhJxBD4bVYdNfrkvrBsLPHPwhAIGEEKDWQsIAzXAgEQIBSAwFAxgQE8iRAjdc8AUb9dITXqEcQ/yEAAQjkRSB2wmteNDgZAhCAgI8E9jx0r5SdfaGPFugaAhBIGoHHt5TISTxsTlrYGW/ECFBqIGIB89pdhFevidIfBCAAgUgRQHiNVLhwFgIQiDIBrfGamlEhRYc1R3kY+A4BCISIAKUGQhQMXIHABAR2//A2mfLBj8EnqQQQXpMaecYNAQhAwCKA8EoiQAACEAiQAHXeAoQdclOfX36VNDXOk40vbZKrr1ouFebbMwt13Hf/A3LB+edO2vxDDz8iZ591xrjz9G8Ns+tl8ZuPmXR/E51w+x13ymWXXuJZf3HqCOE1TtFkLHElwJdrxjWyLseF8OoSFM0gAAEIxJNATsJrrgu0AyF87PdPWAs0/Wkvqlb9abVIRsT6aQ5dDG7cuGnfIu5AC7Bdvb1WH727enNaPNq+aT86PjcLPPVPF8q6cHY6bvzuzbL42GNk6clLXtfMHuv+C9SHfm4WruYbKXVBruPX348zfcw2rDggAIFoE9AF2FDLRik+rGnfDlj9mx72jlj7d/1b8dHHid+/p1s2iIrCtr1cf2dHr/vc/NinrpDbbr5JHnt8+Nr1zLOrrff9iopy6TbfSqz/1muSXgNWmmuAXkf0+ldurjsfu/QS65qn1whzuZQLTZvuzVus66R9LdTX9JphX8/0OrLZtJlt+u19zfT7geFri17Hvn3TzfKtG66zrrvaz9KTlsjGTZusf1sGUsPjunDkHP372WeeITea86684lOWH+qzHnqt0z7t67peU/Vv9/7oAevvOh49r9eMbazwvNIItva4yw0D7XOX4aJj+/wXr7LEaS/FXPeRCnfL9t4imVueDreTeAeBhBLQa7d+ykWvjRwJJoDwmuDgM3QIQAACIztedXFk77Rpaponq8ziTxdnugDShZW+rosjWzi85roV1qLvXrOYUtHU3iWjiytrcWYWafo3/V0XjdqHLYxqP83mP13s6YJQz9fFpfapr+miShed+rfbzALT+t0s1HSxeeOK6yxf7D71fF2U3WcWc/bRNG+e7DILShVqdbH2zIh4q+PRxaf6pAtGfW2sTzo27Uf709ft8SkP9Vft6qJX/dG+dOz2AlP7UWa660d91df0PB23tr3S7GpS29YicoSHzdQe6/7j0vHagq7at/tU8VXZ6eFGHCbJIQCBcBKwRE7zXqVH6qDZknll8z5Ho/x7+pVu6yKgYrEeOk6tbWsfWuPWFp71b/rRS31d2xUd1CAlJyzd116Fae3HPr/k6MVWN4PrV1k/y955thGwN1gitvW76Xvw6d9KeoSl9q0f79TjQH3rYli/8MzuS33f17dPfo79qKkKryqC6qHXHBUjr/6H5dbPa4zIqDtireuruabqtUuvK3qtUuFVhVi9zqlYarfT682bzTXCes1cb04xbfXfKu7qoaKq/n2DOU8v1Spk6rVGr1V6Db7sI+Y6ZV5Tmyp06vVJrzPaRttqmys/8ylZ+d+PWNc8W7hV4XWsz2pXr+F6rdJx6HkqsurfnzXn6U/1Q6+nam92Q71s7t5itbdEZiPA6ms61g2mnfalPtz2/eFx6KEPBvY+/ZgV87H5dKDf98+JsflWanLIKUfG5t+B8jFlctbOoQPl57icOkC+7u/7RL7ac+VAvj5haryevPAgx7mjvo/Nd/VVhSBleMD8d+FrNt/H+hoHzhO9j+yfI5HmPCYnsr7fusiRXPI5DJz1fVprsk50LXGbzzrHis11pnjk2rXvDYx/JI8AwmvyYs6IIQABCIwhYO141QWNLnBu/7c75ZRThneq6CJPFznWgs7scNHfdUGor+kiyhIujUh5+w/ulGu+stwSUbXt1ebfKmDqgk1ft3e26CJvmVnc6d9VZNT2Kijaiyrt315Ajl206XkfHVn4qbBpC6C66NPFnr0zVFeR1kJwZMGoi0V9Tc/Xf+tOGxVOdeGpv2tbXZB+y4i56rfa1LGpEKwipy4SrXGb8/Q1W7hVdtpeF5/av70DyV6c2kKxLpD1NT2Uly4+P/ZJs7vJMNUFpx66UF02ItZau2zNolcXmMpGY6I/1a6163XEF2WoY9DdSOz8YS5DAAJhJaCCk4qdHBMTsHe82i0sYdNc16796op910MVPPWas+w9Z+zbIarXURVPf2eupXrdvPDij1jXGOuaNCJm6vVX+9LdtHq90Id+2q9eZ/QaZ18b7U+QqG1biNXr27VfW2FdE/cXXq0SAiPXUv1p3xtYO1/NeZav5rqm1zJ9TX2wHqyaa6LultUHuvZuWPtBpl7rVIDV+wEdh17z9FqvgrA+PD2Q8EpejRKg1ADZAAEIQCDcBDL9WyVV/aZwO4l3EIAABCDgG4FU50urM/f9+KdykVkQ/ey/f2EJfddc9UW5+uvflmu//Dn52N99QT56yYXy0ksvGVHzPMsRfa1yxhTro+/33v/jYeHV7Fi54u+/JF/5wufkV7/9vWlllnWZjBFo3y9Xfvmf5LKLz5ctL78q9z7woFz5qY/Izt6+4Z02y840Yuds8+//kNu+902zQLtBFi8+1toF9MBPfipTp0w1O4Eultt+cJcsO+N0eXb1WrOwXCSZdFqOM+3uvPuH0jjvcJlVWy2/ffxJucgIr7rIG94llDEL0V9Y4/nO926VRUcfJZv+0mIWkhfLqlWr5Pa77pfb/vkbI4vCJmPzYKkqn244/FJPlXPM4rG7u9vyZfPLfzWLwNOs8V917dfkM5dfZo2zoaFBVq78uWWvu6treEesaXvbv/273HDd1VJdXS3Xft3Y+MooU+Vx4bnvtcRgFXXLZ8yQyvIZ1sc6y8srjd3TzW7fu0zfs439zVZMTn3nKbLFLFhPf/e7jPC6xiymn7Ti0TzvsHHJsX37dstmKjXyudADpE7GDG7Hjh1SU1PjmFj9/f3W69OmTXNsh81RPLAdnype51BPT4+V306H2tT8nzp1at55mzbvMzt37sxqs6+vT4qKirA5QlzfE8o7XpLBR34q075w/QHjAFuxhFIVF/XQHPr9E0/KGaedah4MrjHv83+SU046SZqbDjci5P9Yn4BomH2w/Mc990lxcYlc9MHzjPj6Z/nd449b14Tbbv7Ovk9D1B90sMyYMV2eePIpI5Iea10z9VB7va8NyOyDZ5r+GuVHD/ynzJnTIO9597vN9fNx628bzbVerznLznyPJYDqdf5Xj/5W/uacs4wt9aNR7nvgp9J0+ButvrWNCqk9Zp68uGGDvPLqVrngvHOth6w6Bj2GS/I0moed/y1VVZXyrqWnSFt7p/VwUQVhfV1/arkFe9wdHR1ywvHHGaH2Zasv2449Fu2XHBqeWtevmS5fWtRn5VBxcbFMmTIlsPe+1157TUpKSkJpc9u2bVJbW+vIwm0OuR0nNkdxK9tdu3aZOV/lGAMv2Q4NDVkPqLA5jBy241PPzfycTA6VlpZKWVmZY35bNqsqJDO1VlIlB35vHhgYkNbWVpk/f75jX21tbVJZWZl1/bZmzRpZuHCh41rQD5uLFg3fa0x0FMqmcmtudv5SW22j7xvZ1hjK1s043djUmKs9L2zq2qe9vT3rON3aXL16tRxzjHOd/rDbVJ0j27XA7Tj1nrSpqckxv5Vt0DZbWlqs+xwvxqn3kJ2dnVnHmSSbdXV11nuu0+Emh2y2qauvvjqj4uEFF1xgFlubLUFS/33fffdZPx977DGzE2Wj1Bvx8ZxzzrHs6muzjViqf9dD21VUVMg111xj/bT7u/HGG63fly5dagmY2re+Ns+UA/iTWZDpv7UfbaN29AZN/6aJrX978cUXrYvG2WefLdrXhRdeKA89NPyxUP2bnqvnqD/aXn9XW7fffrvVRvtSIUzbPvroo3L88cdbbfXY36dly5ZZr+k4VUBRH/R3/Wm3Xbx4+GOuOm6bgb6m49Lx2b7b4zzzzDOtvlauXCl2/8rK9k/70j5nGOH1979XsXp0XMpDx2Qz0XHrRUPb6/n6UdMrr7zydXmgN7pqM9vhtl22fvR1t325befGpt4Y6QIz24HNbIRe/zpsxzMhh3LPod13f1emfOgzE3YA29zZjj1TrwmXXXbZuM4Kxfb++++37gnyPXgfcv8+1G6qlsydRPlI2LpnO9k8hi1sJ5sz+7cnh8ihiXJI17ROG2vs87zMIWyOjwZsJz8/yaHccsgNNzdt1LrbvHXTn5s22Hz9u7jFzfxPvzbDk+NAiz9POqYTCEAAAhCIHIG9v/pPKX33+yPnNw5DIEoEVraaUk5vjJLH+AoBCEAAAhCAAAQgAIHkEPBUeE0ONkYKAQhAAALZCGR6d0rKlE/hgAAE/CPw9WdEvjz8XXYcEIAABCAAAQhAAAIQgEDICCC8hiwguAMBCEAgLgQGn/yllLxtuDY2BwQg4A+B768V+eRCf/qmVwhAAAIQgAAEIAABCEAgPwKxE14f7x4GchJfpp1fZnA2BCAAgTwJUGogT4CcDgEXBHr2iFQ5f7+Li15oAgEIQAACEIAABCAAAQj4QSB2wqt+yYQWrT10El804QdY+oQABCCQdAIIr0nPAMYfBIF7Nohc5PyFzUG4gQ0IQAACEIAABCAAAQhA4AAEYim8Vk1h9wfZDgEIQKDQBKjxWugIYD8JBKjxmoQoM0YIQAACEIAABCAAgagSiJ3wSqmBqKYifkMAAnEjQI3XuEWU8YSRADVewxgVfIIABCAAAQhAAAIQgMAwgdTevXszJSUlWXkMDg6Km3ZZOzIN3Pbltt1YmxMJr277ctuu0OOcyL5b/922Y5yjBNwyc9sOtrDNdx6HPYeylRpwM1cymYykUqmsQ3XTl3bipp3XNoeGhqS4uNhxDNgcj8dNnPQM2I5yI4fIIac3GeYKcyXfew5yiBwih9zpIcyVaMwVo4NJaWlp1jWGl/EMs810Oi1FRUWOPNy00Q7cjtNNf27aRMFmav369Znm5mZHUVUH+/zzz8vRRx/tGIhXXnlFtG19fb1ju+eee07mz5/vuBDVBH/hhRcmbVO/ZGLH7tfXeHVr88UXX5SjjjrK0f+XX37Zev3ggw/2ZJzYHMWYFLZbtmyx3tgOOuggxxwy81OOOOKIrHPFTQ5NxuaRRx7p+MarosiGDRuyzhWvbW7cuFHUN6ejEDY3b95svYfOmjUrazzdsHUzzijYHPrNT6X03e8/IBPNoTCPU2/EZs6cGVg8u7u7payszBOberOzadMm673D6XBrc926ddZcd7oZ88Om3nM4ie5httnV1SVTp06Vuro6xxgo23zHae94DdKmPSgvbe7Zs0f+/Oc/Z81br23+5S9/se5JnQ61OW3aNKmtrc07njpONzY7Oztl+vTp2Bwh7mauhJltR0eHlJeXS01NjWMOrV27VhYsWOD43rd7925pbW0VXb85HdgcT6dQbBcuXOgYJ7fxbG9vl8rKSqmurs6aQ2G0OTAwIDqGpqYmR/+9HGeYbba1tVmxrKqqyjuebscZdZv9/f2i18bGxkZHZl6OM8w29Tqg9yX6vuB06HtftvcEt+PE5uuvK9nY9vX1ia65YldqQL9cixqvjnOPFyEAAQgEQoAar4FgxkjCCVDjNeEJwPAhAAEIQAACEIAABEJNIHbCKzVeQ51vOAcBCCSIADVeExRshlowAtR4LRh6DEMAAhCAAAQgAAEIQCArAYTXrIhoAAEIQAACuRDIVuM1lz45BwIQgAAEIAABCEAAAhCAAAQgEBUCsRNeJ6rxGpWA4CcEIACBuBBAeI1LJBlHmAlQaiDM0cE3CEAAAhCAAAQgAIGkE4id8EqN16SnNOOHAATCQoAar2GJBH7EmQDCa5yjy9ggAAEIQAACEIAABKJOIHbCKzVeo56S+A8BCMSFADVe4xJJxhFmAtR4DXN08A0CEIAABCAAAQhAIOkEEF6TngGMHwIQgIBPBCg14BNYuoUABCAAAQhAAAIQgAAEIACBSBCInfBKjddI5B1OQgACCSCA8JqAIDPEghOg1EDBQ4ADEIAABCAAAQhAAAIQmJBAavPmzZn6+vqsiEw7mT17tmO71157TTKZjJSXlzu2c9OXduCm3f42tcZrxpx7aMV4F9z0lavNiQYbB5s6thkzZgQWz97eXkmlUtgcIe5lDnnNdsuWLZLtvSNJNouKimT69Ol5zxV9D3355Zezst21a5cUFxeH2qZTjVevx9nd3S0NDQ2O/LE5Ho/bHPKS7c6dO6W0tFSmTZvmGKsw23zllVfk4IMPdvTf63E62bSF1yBt2oPH5vg0cJu3bnKop6dHpkyZIlOnTvVkrmBzFKOXbNPptLz66qty0EEHOcYJm5OfK27Z7tixw7qm6HxxOtzMT69tdnV1yZw5cxz9wuZ4PG7jGWa2W7dulVmzZjnG3etxurG5fft2a41dVlbm6JtbtkHbHBoakm3btmVl6+U4sTk+VeLAVscwc+ZMxzmgeaaaphdzRXNIbabMAj+T7WZBvdIbtmzt+vv7LeE1m/jgpq9cbU5U49VPmxNFzUubfX19lpkg2SbJpoq92YQAr+OJzdGZ4yVbfRijImi2eKq4mU08cfs+5LXNv/71r1lvKqJgc2jtH6R44YkTXtjcjlMF5mzig9t4YnM0HJpDQbPVhzElJSWBxtNT6lbPAAAgAElEQVRLm3qPoyJLtgVVkDbv2SByUbOI2lRRO5v44GauTGacXtrURVy2m2GvxxlWm/pgRG/4vYqnm3Fic/zlyu1ccctWY5ltEefmobbOT2yOxkofAOk9gldsdcFdV1eX9eEaNkcRuc3boNmqqK2Ch5t46rpBr2dOh5txYnM8QX3opPpFkGzjYFOF+dra2qwP9Lxki83xD2j1IYWuWbx4T1C2sSs1wJdrOeYGL0IAAhAIjAClBgJDjaEEE9ASS1XOm1cSTIehQwACEIAABCAAAQhAoLAEYie86gJEDxYhhU0srEMAAhBAeCUHIOA/AWq8+s8YCxCAAAQgAAEIQAACEMiVQOyE14lqvOYKiPMgAAEIQCA3Ak41XnPrkbMgAIH9CSC8khMQgAAEIAABCEAAAhAIL4HYCa+UGghvsuEZBCCQLALZarwmiwajhYA/BFa2iix7oz990ysEIAABCEAAAhCAAAQgkB8BhNf8+HE2BCAAAQhMQIBSA6QGBPwnQI1X/xljAQIQgAAEIAABCEAAArkSiJ3wSo3XXFOB8yAAAQh4SwDh1Vue9AaBAxGg1AB5AQEIQAACEIAABCAAgfASiJ3wuvbVYdgLZ4YXepw9S0tadqb7JJOJ8ygZGwQg4IZA5rWdkppR6aYpbSAAgRwJfOdPpfLZY/fmeDanQQACEIAABCAAAQhAoDAEdsseqSuqlNJUSWEcCMhq7IRXarwGlDkTmHllaIdMT00prBNYhwAEQkEgs+4ZSS04LhS+4AQE4krguW0pOaqWp51xjS/jggAEIAABCEAAAnEmMJDZKzOL471ZJ7Vu3brM/PnzpaRkYoV5aGhInn/+eVmwYIFjvF9++WVJp9Mye/Zsx3br168Xv2xOJLx6bTNjtnTW19dnHecRRxwhxcXFE7Zzy3bLli1WH2G0aXJIjjzySGucW4d2ypRUaZzfFxgbBCDgkkDm1w9K6tT3umxNMwhAIBcCCK+5UOMcCEAAAhCAAAQgAIEwEBg0n5quLppxQFdaWlqktrZWqqqqHF1dvXq1HHPMMY5t+vr6pLOzU5qamhzbqc26ujqprHQWgydjM2WEv0xRUVFW3iqoummXtSPTwG1fbtthc5SAW2Zu202WLcKrG2K0gUAyCCC8JiPOjLKwBG58tkSufPNgYZ3AOgQgAAEIQAACEIAABHIg4CS86obHVCqVtVfd0Oi04dHuwE1/btpof5OyaTqN1efTqPGaNSd9bYDw6iteOodAdAj8+r8k07tLUm97p8hBc6LjN55CIGIEEF4jFjDchQAEIAABCEAAAhDYR8BJeI0LJmq8xiWSIRkHwmtIAoEbECgwgcy/3iDy1G8kteLfEV4LHAvMx5sApQbiHV9GBwEIQAACEIAABOJMAOE1gtHly7UKGzQn4TUjGVm/7c/S1tMt23p3FNbRBFuvmFYhc6vr5Yi6N/FFaAnOA9+H/toukXV/FDnR7HjlgAAEfCOA8OobWjqGAAQgAAEIQAACEPCZAMKrz4DpPn4EJhJeVXT98YZfyd70oEydMU1mVJVLSRlfwhV0Bmhlkd7tO6W/t08y6Yyc1vh2mVXiXKg6aB+x5x+BB9qflM6+rf4ZKHDPHz78XVJZOr3AXmAeAsESoNRAsLyxBgEIQAACEIAABCDgHQGEV+9YBtaT7nitKhNZODMwkxgaQ2Ai4XXdtk2y9uWNcvAbG+AVEgKvdr0ib5hxsLx99qKQeIQbfhM47MHL/DZR0P6/eewlcu7ctxXUB4xDIGgCCK9BE8ceBCAAAQhAAAIQgIBXBBBevSIZYD+UGggQ9gFMTSS8rmz5vewuHpKqWTWFdRDr+wi81tMrAz2vyXnNp0mRZP+mQNBFnwDCa/RjyAggsD8BSg2QExCAAAQgAAEIQAACUSWA8BrByK01n6Lt2S1yEhsrCxK9iYTX/1j3Mzlo7mzKCxQkKhMbfbm1W06Z82Y5pLI+ZJ7hjh8EEF79oEqfECgsgSc3F8nbZqcL6wTWIQABCEAAAhCAAAQgkAOBRAive/fuzZSUlGTFMzg4KG7aZe3INHDbl9t22Bwl4JaZ23aTZeskvDbMmzuuu/5dfdKy7iWZ9YZ689/B+15rXb9Jpk6fKvVvOmRC80MmH3v+ukOmV86wasbmerSuM7bM+fVvmuOqC/Wtd7v50qAxR019ncxpHD82p86+/8nrpfG4I+W0v31vVpt7d++RTc++KEODQ+PaHn3SsfKX1RukzzC0j5LSEnnD/DfKjOoKaVm7UV4zu1nHHnUNs2T24eOZIrxmDUGsGiC8xiqcDAYCFgFKDZAIEIAABCAAAQhAAAJRJeAkvKbTaSkqKso6NKNrSmlp9u8QGhoakuLiYsf+vLap/aWee+65TFNTk6Ooqg1feOEFOeqooxwdfOWVV0Tb1tc7754zNmX+/PmOA1YgL7744qRtTlTj1Wub+iVFBx88KhYeCIyXNl9++WXLRNhtTkZ43bTqBfmHMz9liZBfvOfrlmCox7XnXCFvOOIw+fANn5kw3zpeaJFvfOjL8v4r/68svfA9WSfiRA2uOeczcuhRh8vfXv93rvq49r1XGMFzoxy2sFFSRcMfzz/21BPlnE9/0NX52mgywqvWYb3ihP8jc4xoPb1qxj4bVz94k3xh6Ufk1Y6XZa7xP23miwqxx591knz61q9YXLs2tskbF8yTVGrYz7eY195z2fvH+Ynw6jpssWiI8BqLMDIICIwjgPBKQkAAAhCAAAQgAAEIRJWAk/Da2toqtbW1UllZ6Ti8tWvXysKFCx3b9Pf3S1dXl8ybN8+xnZc2+/r6pLu7W1JGQMxENUAH8psar4WNZi7Ca5F54vDBL18qZ3/qfMv5scJrf2+fqMjaZnaa6g5Y3dFZfXCdPP6jX8lNH73WEhLP+Mj/J4c0v1G2b3lV2p//i3RsaJUj37pI5h75pteVNtjTv1vanvuzvPiHdXL0yW+Wu666eZ/w2r/rNWm3bP1ZDjF21FZFbdU4oCq8DvT2y9U/u2ncTtuB1/qlZc1GqZxZLU8/9Hs57sy3y8yGg6z+dFfv3CPeZPw5zOpv07MvWO209MKOV7ZJ90vtpt1f5PBj58shTYfKtIpRgdUWXj/6rc/JKR88fZwvKrzqjt9/+Mm3pbikWNY//if5+nl/L3e2/lzUzyIjDP/jT78jpVPNt81NcCC8Fna+BG0d4TVo4tiDgP8EOnpT8obyWN3K+Q8NCxCAAAQgAAEIQAACoSCQiFIDcRNeqfFa2LmTi/B6yvmny9MPPy5fuPtrcsRbF44TXu+66vvyq39/UBa+43hrR6eWBFj+wxvkXz/3LfntPf9tCa4qSL7jojPlm//nK1YZAN3lueHp9fLuvz1HzvvCJeOA3H/9D+Shm39o7bLdtW2n7Hx1u7z1b95h7Xj9wRe/K48/8CvjwyL5ixFRDz+mWT77g2tEP8JvHxMJryr4Ln/XZTJzzkGWMHzBVz4iP7/tP6Xt+T9L4+Ij5Nlf/kEWn/42+fh3/17+/uRL5YRzTrHE5q++70pLMG46/ihZ9ciTcroRkc/9+4v32ZuM8KonXTj73XLnX1bKtX/zWYTXwk6FUFpHeA1lWHAKAnkRoMZrXvg4GQIQgAAEIAABCECggAQQXgsIH9PRJJCL8Prx735B/vCzx+Sv5mPzVz/4Hfn2JVdbpQbON8Lk5QvPk098b7mcaITKbZtflSuX/K1cfvNyqZ09U75wykfkwyv+Ts76xHlml+nv5JZP3yD/tPKfpaKuSp76r8fkRyt+ILc9/5N9O1N19+xHm/9GLvyHy+TMj59rasRul08vvtCItu+Ri/7xY/Kxo94vV971T9Iw7w2ytfuvcv35X5Rv/u4OqTNi6ljhdcP/rrd2q9of4f/A8r+VOWanqgqvn7n9H+WEs0+2mv/iB/8lJ73/VNkzsEce+v798uRPH5UbHvtXufqsv9snvH6gbqkRkldIsxFedcdqSVmJKV1wguguYD1s4VV3ymrdWz0OPXqeXPFv/2iVGlAfLv3GFVbZg5//ywOy4X+fk3/+491y9dmfkdaR+rm2n8rp1IvPHpdY7HiN5jzL1WuE11zJcR4EwkuAUgPhjQ2eQQACEIAABCAAAQg4E0B4jWCGTFTjNYJDiaTLuQivn73jGml6y1HypVM/Lqecf5q1W1WFV90FevvnbpRb1twv5TXDNT2+uPSj0tA0V5Zd/oFxwqvuVv2lETptkXSP+VKqbV1/lWtWflcWnLzYOvfZXz4l3/y/V8nXHrlF3mR2s+qhtVDftKhJmt9ytHznw9dYX/Rl1279a+fLRtj9jFXKwD50x6uWB9CP/pdNm2L92S4ZoMLrvZt/va/tb/7fw/L4j38lr5p+9EuytCj0/sLr9y//urXbt+7/Z+9N4Kuqrv7vdZOABTKUMRNqhwBJEASs1Fpp/Yvi1L4FxSpPKwqt2kecOtgKaPtWBWzta0XBPmoVBfs4V/tpUYvi04r1b/ERKJCBoQiahASQmgFigeS++7cvJ9zE5Nxzb865Z/odP5jknnX22vu79pl+d511VFkCZOH+P6rcArJ4jcUQXr9xwwwtyGLBy8BgA+EVWcB9juurSyrkf6ZIIAKfesEZcut5c+TfBz+W7979fS3mYoEPvAgsfqHw6svdLOVOU3hNGR03JAHPEqDw6tnQsGMkQAIkQAIkQAIkQAIJCFB49eEUYY1Xd4OWqvA68WuT5N0/vyX3fvd2yVP1TydM+ZJ86RtnysJv/ljuXfuEEg2H6oH94PQr9MusTr/orE7CK0oI/M/vXpJZKgMWy2GVZXqw6YAqI3BmR53WfyqR8tZzr5WfvvhrXdIACzJoT5o0Xr946hffmifX3PMjyTou9ja8jxo+1L6GnVjYATVRqQFDeH1v4za57fw5qm7tZXLq+V/WpQue/9XyTsLrRT+4XJVGaJT69+pk2zsV8tJDz+vM2Z/89yI57qiom2ypAaOj89U4WePV3X3Bi97tFF4fP+0mueHdh6Tx8EHLQ72m5Fx5cPufLdsna3j3+Ctl+gmnJ7sZ7UnA1wRY49XX4WPnSYAESIAESIAESCDUBCi8+jD8rPHqbtB6I7wePnRYfvujX+vM1a/PuVRm/+JGuXHit/XLr5DJue7Vt7V4uXDVb/Sj+NefMkP+z39cIOddNU0/zg+RFuUJpqjarv99x8NS9dY/5Bf/83AnIMgSRYbot356tX4s/+lFj8i535mqa7zecOq35GRVS3bqTd+Sf6xeK3984Bm5a/WDctzRR/zRkFXhdeNf/lfXnP3hY3foF2Yh07Zp30edhNf/8x/ny6LLfqKyXGeoLNUvK/tbdemAec/ebYvw+rEqrXCxqheLF29hyRs6UJc0iKjMW2Nhxqu7+0u6vdslvF5QeIqcr/69XP+u/G1vlVx24iQ5vt9Qeer9NXJS3gl6WMf3HyIP/fPPcvqQMnl597va5suDS+X6dQ8LBNjcrP56/TUl50lun/5y68Yneo2DwmuvEbIBHxJ4ZVemnHdimw97zi6TAAmQAAmQAAmQAAmEnQCF17DPAI4/aQLJCK+7Kv6pMlx/rkXPsWd+QftC3dVFl92ihciLfzhTtr1bqV6kdY+qddogA3KzdYmBc2Z/Qz+2v+Knv9G1YU+aNEHVgf2JvKwyRl968Dlp+ahZP1Z/0Q++LadPO6vTGGq27JT7v7dA1ZOt1y/P6q/ahLB70Q8vl+q3N8lvb/61qiW7Vz/Of+aM89WLrmZ21FtFQ9j2UOu/5brfzOskyNZt/0B+NfM2ueetxzr8LZ2zSNb9+f/Kcdn9dJmAmuqdcvOKBbL46ttl3OSJcuH3LlFjeED+7x/+qsoCtOrM3O+qEgbIwDWWf6ms2wXTb5ZL587WJQTil19+e770y+4vc5be0qmPsLlHlU3457qqTvYoZTDngXnSR5UlMBYKr0lPcV9vYJfwev+Eq+Xu6hfkjrHf0oLpnWO+LTese0j/HVEvV/+lWnfN589Vgus6JbyWatv7TrlKr8NnEGUlIhJVf58xtExmvn2vLVwpvNqCkY34jABLDfgsYOwuCZAACZAACZAACZBABwEKrz6cDCw14G7QzIRX1EJFLVJjOXL4iDR/+JGq35qnslCPfd68v1Gy+mRJv5wB2vRAY4uuqwrh9dP5gzoNEC/cQkYnsjmxwO6AEl7xt1EXtisRCLMQeFHPFYJnd74gvBrlDeK3b/6wUZRWpETS3I6Xa2F925EjOqN1YIESlI4uyMLdpwRe1IKFqIqXe6GMQpNqo++njlPj6y/tbW3yr/oP5d+tH2sb/Itf2tvadV8HfDpHbdO307pG5Q8CNPrSdWlSXI+oDOL4BZm+OaiVq7JqjYXCq7v7S7q92yG85qnsVJQZQKbrBUWnyPXvPixXl0xRZQce7hBXkdV6c+k0eWtftc6MfVBltt5cNlULr39Tn53Qf6hsbtylyxQgE/Z6VbLAjoXCqx0U2YbfCDy8OVOuOokZr36LG/tLAiRAAiRAAiRAAiQgEgrhta6uLlpYeKyGZU+B3717tySyO3DggMpgikp2drbp/LHSFhqwYtfVZ0/Cq5W2UvXZG2Ze9tnS0qKHlkw8exJe//TeG/LvzLYOgZQHGPcJQND+uPGAXDJqimQg/ZBL4AnYIbyilABKA0BUxe/HKxE1r29/eWrXGi2i4psJlByA4PrWvir5celFsqlpV4ytznh9V65W2bAQX39Z/Xsl3n5B1X19xRb2FF5twchGfEag6VBEcvviK0EuJEACJEACJEACJEACJOAvAmbC6/79+7Ue1bdv5yS0riOsra2V4uJi04G3qaQ3tDd0aOz9QT0tTviM7NmzJ5rIMTqk7GTYsGGmHWxtbdXCa//+/U3trLSVqk/UeMXN/dhjiYe6L0767Gmwfvd58GDspTnJxLMn4XXT/u2ysWGr5H+myF9HgQD3Fi/uOn5Avny58OQAj5JDiydgh/DqZaIUXr0cHfbNKQLPbM2Ub45kxqtTfNkuCZAACZAACZAACZCAcwTMhNfGxkYZMGCAZGVlmXagvr5eCgoKTG3a29vlo48+kkGDOj9F3XUjJ3xGlFDKNAnn5lDoWu5JeI0qNfzZLa/K4fYjun7qgLzsTmUHQgfKpQFjd2/5V5MuexBtj8qUEV+WoVmdyxu41DW6TQMBCq9pgEwXJJBmAqzxmmbgdEcCJEACJEACJEACJGAbgVCUGgia8Moar7bN/5Qa6kl4RWMQXzfv/6fsaqyT/S0fpdQ+N+o9gZx+OXLCpwukbPDnpH/kuN43yBZ8Q4DCq29CxY6SgGUCrPFqGRUNSYAESIAESIAESIAEPEaAwqvHAmKlOxRerVByzsZMeHXOK1smARKwQoDCqxVKtCEBEiABEiABEiABEiABEiABEkgHAQqv6aBss4+earza7IbN9UCAwiunBgl4lwCFV+/Ghj0jgVQJMOM1VXLcjgRIgARIgARIgARIwG0CFF7djkAK/hsPxTbKM3/pWQotcxMrBCi8WqFEGxJwhwCFV3e40ysJOEmANV6dpMu2SYAESIAESIAESIAEnCRA4dVJug61zVIDDoG12CyFV4ugaEYCLhCg8OoCdLokAYcJMOPVYcBsngRIgARIgARIgARIwDECFF4dQ+tcwxRenWNrpWUKr1Yo0YYE3CFA4dUd7vRKAiRAAiRAAiRAAiRAAiRAAiTwSQIUXn04K95vFomqfp+Y48POB6DLFF4DEEQOIbAETn7pJmk6fDCw43tw4rUypXBcYMfHgZFAdwRYaoDzggRIgARIgARIgARIwK8EQiG8btq0KVpaWipZWVk9xqmtrU0qKytlzJgxprFsaGiQ9vZ2KSwsNLXbvHmzOOWzpxqvdvqsr6/X4ysoKEg4zrKyMsnMzOw1W6s+VTylvLzcNZ8UXv16uGO/w0Cg5uCHUnNwXyCHmtunv5TnHR/IsXFQJGBGgMIr5wcJkAAJkAAJkAAJkIBfCZgJr++9954MGjRI8vLyTIe3YcMGGTfOPAHn4MGDUlNTIyNHjjRtCz4HDx4subm5tvmMKFE1mpGRkTBGEFSt2CVsSBlYbcuqXbzPnkoNWG3Lqp3b4+zJv9X+W7VLdpwUXq0Qow0JBJ9AbU2trF71msycfUXwB8sRkoCLBFjj1UX4dE0CJEACJEACJEACJNArAmbCazQalUgkkrB9JIuaJTwaDVhpz4oN2kvKp2oUT+YHZmGNV3dDSeHVXf70TgJeITD/5rny4nMvyKo1q6V4eLFXusV+kAAJkAAJkAAJkAAJkAAJkAAJeIRAKEoNBE14ZY1Xd/ceCq/u8qd3EvAKgbqjGa9Tp18kObksuu2VuLAfwSPAUgPBiylHRAIkQAIkQAIkQAJhIUDh1YeRhvCad5z619eHnQ9Alym8BiCIHAIJ2EQAGa9Tp0+zqTU2QwIk0B0BCq+cFyRAAiRAAiRAAiRAAn4lQOHVh5FjqQF3g0bh1V3+9E4CXiJA4dVL0WBfgkrg6a2ZcunItqAOj+MiARIgARIgARIgARIIMAEKrz4MLoVXd4NG4dVd/vROAl4iQOHVS9FgX4JKoOlQRHL7Bqpcf1BDxXGRAAmQAAmQAAmQAAl0IUDh1YdTovGQyEf/FjmRJQVdiR6FV1ew0ykJeJIAhVdPhoWdChgBlhoIWEA5HBIgARIgARIgARIIEQEKrz4MNmu8uhs0Cq/u8qd3EvASAQqvXooG+xJUAhRegxpZjosESIAESIAESIAEgk8gFMLr4cOHo1lZWQmjeeTIEbFil7AhZWC1Lat28T57KjVgtS2rdm6Psyf/Vvtv1S7ZcVJ4tUKMNiQQDgJBFF7feXutrFX/Jp42UU5V/+KXK2fM1H8+9uTycASYo/QEgVd2Zsp5n2GNV08Eg50gARIgARIgARIgARJIioCZ8Nre3i4ZGRkJ21O6pvTp0yehXVtbm2RmZpraOeEzUlFRER01apSpcziuqqqS0aNHm3Zwz549AtuCggJTu8rKSknkE0Cqq6st+YxGo5Kfn6999iS8qnFKaWmp6ThT9dnTYO302dDQoN0Y4/SqTwqvCfd1GpBAaAgEUXidMmmy1NbUatG1q8A6/0dzpam5We5/cIktMYbAO//muaq9pVJaXmpLm2wkeARY4zV4MeWISIAESIAESIAESCAsBMyE1507d8qgQYMkNzfXFMfGjRtl7Nixpjatra1SW1srJSUlpnZ2+jx48KDU1dVJRImWgXojA2u8urt7Unh1lz+9k4CXCARNeK2urJaLL5yqRVD8/vY/3pGcXOcKikN4naWyaCHwds2u9VKc2Rd3CbDUgLv86Z0ESIAESIAESIAESCB1AqEoNRA04ZU1XlOf8HZsSeHVDopsgwSCQSBowiuyTzGmVWtWCzJfr73pOplz43UdwbrhmuskJydHFvxqkf4M4uxddywUlCfAMnX6NLlW2RcPL9ZZsyhNMHPWTLl89hV6ffxnxcOHyyK1bZ2ywze8o5TYa2TYrnj0cXlg8VJpamrSbaFNtI3lrjsWKb9VcuoXJ8oTy5bLWedM7uhPMGYVR9GVAIVXzgkSIAESIAESIAESIAG/EqDw6sPI9VRqwIdD8WWXKbz6MmzsNAk4QiBowivE1lFlZXL/Q0u0aIolvtxA/GcQUadfOE2KhhcpcfZ6LZIuXbxEiag58vzKF7XIqsVbJZrOUQKuIbwan0FIhcC6QomnsCkdXSqTzzlblt67RImuS7TgiyzY11e9JsuVzYK7F2nxFeUOVr/6mhZkIegWFxczW9aR2e2dRiv2R2T0oEA9vOQduOwJCZAACZAACZAACZCAowQovDqK15nGKbw6w9VqqxRerZKiHQkEn0CQhFfjsX9D4IQoiuzS+DIA8cIrsmNXK1EUIitEUCzIfIUNtilSn5kJrxBjuys1gG2QzWpk1aLdTn6V8Pri87GsXMNv8GdauEdI4TXc8efoSYAESIAESIAESMDPBCi8+jB6rPHqbtAovLrLn95JwEsEgiS8xgupYNzc1KzrvSKr9Jbb5mrs8QLoxSrbFfVf4zNisc1pJ5/aURogWeHVyJKdqDJdi1Qmq7FUq5dfoqxBxXvVOuP1nb+v1cIrl3AQYKmBcMSZoyQBEiABEiABEiCBIBKg8OrDqKLGKx64O9G59534kEr6ukzhNX2s6YkEvE4gKMIrBFOIpCgX0HWBuIqXbHUVXs9R9sg4dUJ4PWvK2VJaVvqJviBLlsKr1/cK+/v3QUtEjs9mqQH7ybJFEiABEiABEiABEiABpwlQeHWasAPts9SAA1CTaJLCaxKwaEoCAScQFOEV40DGq1FX1QibUV/VKDfQ9ZF/1Fp9dc3rOvMVi1E64L4HlwqyVpH9Gp8xi6xVZNEadV+7lhowBOBvqFquRpYt2kUmLF7ABT8UXgO+U3F4JEACJEACJEACJEACJBAgAhRefRhMCq/uBo3Cq7v86Z0EvEQgKMIrBFWIm692eXzfEELPOmeyrrkaL7wa9VyRnQrBFtmytyrxFnmJRjsoR1BbU6NE1HkSjYj8QQm82M4QXg0h9vLZM+Us9WItiLV4udaKZY/rbfByLfQL7Rp1Xym8emkPYF9IgARIgARIgARIgARIgATMCIRCeK2rq4sWFhYmnAnKToqKikztDhw4INFoVLKzs03tdu/eLU75RI1XLHl9O3fBqk8rdnaP04rPlpYWPSC72Drlk8Jrwl2JBiQQGgJBEF6NuqpTL57W6YVWRhAhtlZXVunM1uuvmaM/NsoLvL5qtSy6Y6HUKXEUC4RSvJzLeOkVhFVsg/U5KmMV28VnvGKbX9y+UJYvW66zWY2SBsZnRh/i26XwGpzda/vW7fqcX1BUkNSgUt0uKSc0JgESIAESIAESIAESIAEbCJgJr/v379fXw337dhH4uvitra2V4rh3YHTXrba2NkF7Q4cONe21Ez4je/bsiSZyjF4pOxk2bJhpB1tbW5nKTHoAACAASURBVLXw2r9/f1O7vXv3Jhxsqj437lOi63GfrPHqpM+eBuuGTytxSoYtbPv162caz3ifFF5tOPKwCRIICIEgCK/JhCI+4zV+O0N4LVI1X7tbsL6ndbBHZi0Wo2SB8VmzyqKFYBv/eTL9pa23Cdx/z2JpaW6RuT+bL/V19VqAxU8sC++4U+bddqtk52TLtm3bZPyE8R3r9BeryjY7O6djHdox7Lw9avaOBEiABEiABEiABEggTATMhNfGxkYZMGCAZGVlmSJpaGiQ/Px8U5v29nb56KOPZNCgQaZ2TviMKKE0UG9kYKkBd3dRCq/u8qd3EvASgTAJrysefVzuumOR9JQZ66W4sC/eJ1C/u16WPfSIFlZnXfUduf/X98rcn94qyx5+RMafMkGefeppuf77N8qzTz4jk878imzbulW2b90mBfoJpoiyGa/WPS3nfe1C9VmBQMT95oxL5aU/rZSFd9/lfQDsIQmQAAmQAAmQAAmQQCgIhKLUAIXXUMzltA2SwmvaUNMRCXieQJiE19NOniil5aWdSgl4PkDsoGcJvPynl2TDu+uhoUrJyBItqhrC6/kXXiDLfvuIXHLZpbLmr29oYXbhz++UiLKd9d3vyPp161XGa6ESY7fp7aZf9k1Z9PMFSqCdpMcLey4kQAIkQAIkQAIkQAIk4AUCFF69EIUk+9BTjdckm6F5igQovKYIjpuRQAAJhEl4DWD4OCQXCSy6fYESWufrUgMLb79TlRKYoEVUlBGYpz5fqNZDQI1lwI7XPa1X6+KF1zV/eUN/XjJyhGxQYix+1tftlut/cKOLI6NrEiABEiABEiABEiABEjhGgMKrD2cDarxiGTvEh50PQJcpvAYgiBwCCdhEgMKrTSDZDAkcFVZjpQRiS0tzsypFkKMF1/jP49fjxZzGup7sCJcESIAESIAESIAESIAE3CJA4dUt8r3wyxqvvYBnw6YUXm2AyCZIIAAEatULo6orq2XylMkBGA2HQAIkQAIkQAIkQAIkQAIkQAIkYDcBCq92E01DexRe0wDZxAWFV3f503v4CDz71DMyTr3RfIR6jNjqsl7VjsRbz7vLkrPaRiI7vGzqrClnS/Hw4kSmXE8CJEACJEACJEACJEACJEACJBBCAhReQxh0Drl3BCi89o4ftyaBZAig/iNqQeKt5ajbiJqO27dtk5IRI6VACav1dfWqtuM6XQty/bvr9NvPYYPHj/HyneamZl37ES/p2aa2w6PIeHEP3qTemwUlBpqbmuTy2Vf0phluSwIkYIHAK7sy5bwT2yxY0oQESIAESIAESIAESIAEvEWAwqu34mGpN6zxagmTY0YUXh1Dy4YDRGDt22tlS2WVNCnhM5kF2aNTp0/r2ARvPoeA+syTT8vCu++S2d++Uu77zf36xTuTvvoVbYcakKgFCQEWb0VfpN5+Pu6UCZKjPn/pTytl1tXfkef++xn19vSoFmjjs2CRtZpsH3Nzc6S0vExOPW1iMkOjLQmQQIoEHt6cKVedROE1RXzcjARIgARIgARIgARIwEUCoRBeN23aFC0tLZWsrKweUbe1tUllZaWMGTPGNBwNDQ3S3t4uhXEvf+hug82bN4tTPnsqNWCnz/r6ej2sgoICUx6KrZSVldnCNhmf5eXlkpmZ2et4puKTwquLRyy69gUBiJl2CZPIdhWJym6V2arfcP7bR5TwuqRDXIUoG1UWeJP5mr++ocVZQ3iNSER/dsmMb0pUGb2ycqUWZrmQAAmQAAmQAAmQAAmQAAmQAAmQQDoImAmv7733ngwaNEjy8vJMu7JhwwYZN26cqc3BgwelpqZGRo4caWq3Y8cOGTJkiOTm5trmM6JE1WhGRkZCnhBUrdglbEgZWG3Lql28z56EV6ttWbVze5w9+bfaf6t2yY6TwqsVYrQJKwG8cOodle0an7WaKguUGUB911lXzVYZrS3y8sqXtMCKkgP4HJmrhaoEAZZmtX771m2qxECztkXGK9at+esaXV6gRNWHbVHZt8h+5UICJOAvAsx49Ve82FsSIAESIAESIAESIIFjBMyE16jKEIpEIglxIVnULPnQaMBKe1Zs0F5SPlWjSIjiQgK2EKDwagtGNhJQAkvvXSJzbrouoKPjsEiABNwg8P+ty5IfTjjihmv6JAESIAESIAESIAESIIFeEQhFqYGgCa/IeM3rKzJ2SK9iz41TJEDhNUVw3CwUBPDSKTuyXUMBi4MkARKwRIAZr5Yw0YgESIAESIAESIAESMCDBCi8ejAoibrUU6mBRNtxvT0EKLzaw5GtBJMAhVd/x7VZlWOoUi9FwzKxm5eHVVdWq5eRNel6QKXlpZ0Gi21RagLr8ZI0/DNbYIt/XdtCO0YbxvbdfeZv0uw9CZAACZAACZAACZAACZBAGAhQePVhlDd+KNL4b5FJRT7sfAC6TOE1AEHkEBwjQOHVMbSON4wyEQ8sXtLhB8LpsieXawEVAun8m+fq+r3GgszmBXcv0n9CkJ01Y6YWTI3lJ7fNlZmzr/hEvyGiXn/NnE5tnTXlbPVitEWSk5sjmEPwtWrN6g7xtrvPHAdCB54hwFIDngkFO0ICJEACJEACJEACJJAkAQqvSQKjOQlQeOUcIIGeCVB49efsMIRN1Oe9fNYVWkC9UgmpEF0fU+Lr/B/NlbV/X6vF0VNVJuyKRx+Xu+5YpIVXCLAXXzhNb/P7lS9q8fQXty+U115dLa8q8bTrAlEV/tAu2np91WottH5j+lS55bZ5FF79OYUc7TWFV0fxsnESIAESIAESIAESIAEHCVB4dRCuU02zxqtTZK21S+HVGidahZMAhVd/xh0iK7Ja44VSZLFWV1XJ1IunfWJQsJ0yabJce+N1+mVq56jfc5Xget+DS01LDCDb9bSTT9VtLvhVLFsWy11KqF2xbLm8/Y93ZPWq15jx6s9p5Fivn96aKZeObHOsfTZMAiRAAiRAAiRAAiRAAk4RoPDqFFkH22WNVwfhWmiawqsFSDQJLQEKr/4M/ZdOnihnnTO5kxgaPxIIpsuXPa6yU1+Tupq6jpIChvCKuP9CZcAi6xW1X0vLy7Qo27XOqyHYGpmyho/4UgIoZ8BSA/6cR+w1CZAACZAACZAACZAACZBAZwKhEF4PHz4czcrKShj7I0eOiBW7hA0pA6ttWbWL99lTjVerbVm1c3ucPfm32n+rdsmOk8KrFWK0CSsBCq/+jDwyVid+cWKPwiuyW6NqaDNnzVTlAb6oBVVkrhrCK0YNcRaiKUoSIGu1WYmwr655XZceMBZDeO1a/9UoXYC6rhRe/TmHnOw1Sw04SZdtkwAJkAAJkAAJkAAJOEnATHhtb2+XjIyMhO6Vril9+vRJaNfW1iaZmZmmdk74jFRUVERHjRpl6hyOq9QjlaNHjzbt4J49ewS2BQUFpnaVlZWSyCeAVFdXW/IZjUYlPz8/0D4bGhr0+BKNU8VTSktLTeNplW0qPim8JtzXaRBiAhRe/Rn8G665Tta+/fdOQulS9aKt6soquV+VDxj92dJOImvXUgMvPP+ClJWV6WxXLKjbihdoGXVc46kgu3aUssM6Y4kvdWBkv8Zva9SFjX/hlj9Js9epEKDwmgo1bkMCJEACJEACJEACJOAFAmbC686dO2XQoEGqbFuuaVc3btwoY8eONbVpbW2V2tpaKSkpMbVzwmdEiZZI1AnMwhqv7oaSwqu7/Ond2wQovHo7Pj31DvVcZ6k6r8hOvVxltdbW1ukXaKF+K7JakREbURtjXXZervxBlRZAZmp8jdf49U+obZtUBizE067lBozsVryU6wvq5Vr/q9rBvDHKDyBzFhm26MupKgsXFw/InkUfKbz6c371ttev7MyU8z7DGq+95cjtSYAESIAESIAESIAE0k8gFKUGgii8YqpMKkr/hKFHEQqvnAUk0DMBCq/+nR3IYkVmKX5imaZegHWtEl6xxK+DkHrLbfPkrjsW6pdkQUDF+gd0hmy1rvOK7Fdsa2TAdqWCefKiypLFdmgPgu7kKWd3mCFjFjVlsR79QM1Y/I3s2/jSBf6lzZ4nQ6DpUERy+wbqO/Rkhk9bEiABEiABEiABEiABHxOg8OrD4PVU49WHQ/Fllym8+jJs7HSaCFB4TRNouiGBEBFgqYEQBZtDJQESIAESIAESIIGAEaDwGrCAcjjOE6Dw6jxjevAvAQqv/o0de04CXiVA4dWrkWG/SIAESIAESIAESIAEEhGg8JqIkAfXo8YrFpYacCc4FF7d4U6v/iBA4dUfcWIvScBPBCr2R2T0IJYa8FPM2FcSIAESIAESIAESIIEYAQqvPpwJFF7dDRqFV3f507u3CVB49XZ82DsS8CMBCq9+jBr7TAIkQAIkQAIkQAIkQOHVp3MANV5FJX6MHeLTAfi82xRefR5Adt9RAhReHcXLxkkglARYaiCUYeegSYAESIAESIAESCAQBJjx6sMwNh4Syevrw44HpMsUXgMSSA7DEQIUXh3BykZJINQEKLyGOvwcPAmQAAmQAAmQAAn4mkAohNe6urpoYWFhwkApOykqKjK1O3DggESjUcnOzja12717tzjls6dSA3b6bGlp0eNL5zi97DN+blB4Tbgr0SDEBCi8hjj4HDoJOESApQYcAstmSYAESIAESIAESIAEHCdgJrzu379f6259+5pnV9bU1Mjw4cNN+9rW1iZob+jQoaZ2TviM7NmzJ5rIMXql7GTYsGGmHWxtbdXCa//+/U3t9u7dm3CwqfrsSXh10mdPg7Xq04od2GLp16+fLWyd8knh1fHjEh34mACFVx8Hj10nAY8SoPDq0cCwWyRAAiRAAiRAAiRAAgkJmAmvjY2NMmDAAMnKyjJtp6GhQfLz801t2tvbBe0NHDjQ1M4JnxEllAbqVbjvN4t89G/WeE04ux0yoPDqEFg2GwgCFF4DEUYOggQ8RYClBjwVDnaGBEiABEiABEiABEggCQKhKDUQNOEVNV6xsM5rEjPdRlMKrzbCZFOBI0DhNXAh5YBIwHUCFF5dDwE7QAIkQAIkQAIkQAIkkCIBCq8pgnNzs55KDbjZpzD5pvAapmhzrMkSoPCaLDHaWyGw4tHH5awpZ0vx8GIr5rQJGAGWGghYQDkcEiABEiABEiABEggRAQqvPgw2hVd3g0bh1V3+9O5tAhRevR0fP/auurJaLr5wqpx1ztly/0NL/DgE9rmXBN7anSGnF7b3shVuTgIkQAIkQAIkQAIkQALpJ0DhNf3Me+0RNV5RtPbEnF43xQZSIEDhNQVo3CQ0BCi8hibUaR3o66tWy6mnTZScXJ740greI85YasAjgWA3SIAESIAESIAESIAEkiZA4TVpZO5vAOE17zjWeHUrEhRe3SJPv34gQOHVD1HquY+rlcBZXVkluUrg7O7R/rVvr5Utan1TU7OUji6VySoLNX7B+nfUPywQSieqf8bSrLZ57dXXpO6D2m7bx/oXn/u9bhslBbC9UVrghedfkLKyMiktL9XNxbfV1dbfEWDvuyNA4ZXzggRIgARIgARIgARIwK8EKLz6MHIsNeBu0MIivFY2fiCVTR+4C9sh77l9+smUgvEOte69Zp/74K20daq5sUly8nLT5u+0waNkeP/BafMXVEcQMq+ccbkSXauVuFmmxM8mqauplQV3L5Kp06fpYS+9d4k8sHiJyjrN1QIoBFasg038+iIlmuYqGwi41950ncy58TqpVW3NmjEzJtiqbfE32n/syeVaYMXf0y+cpp/mMNZH1O/Pr3xRZ7mO/mypXKvamaPai28Loiv6Ctv7HlzaIcxajVPT4YOyqn6DVXNf2eE4h/0jt09/X/W7u86yxqvvQxjKAaTz3JtuwDz3ppu4P/y9vW+L1LR+6I/OJtnLsN07JIknUOa8Bw5UOD0zGAqvngmF9Y5QeLXOygnLsAivF/7ldqlsrHECoSfavHv8lTL9hNM90RcnO/Hc+2/Jzesfc9KFq21DdF1zTkz445I6AUNUhdBpZJVeqYRSiKevrnldi5tTJk2WqRcrofVXMd544dVddyzS4inEWNRhhTAKgRTLL25fKMuXLZdVa1ZrkXWpEm0h0hpZrF86eaJ84YsTdd3Wu5TtCmX79j/e0UIrxNUHlNB7+ewrdH/ihdf5N88VZNbCL9qCLfqK3/FZMsuMv/1K3t63NZlNfGV720mXyuzPT/ZVn7vrLGu8+j6EoRvAqt3r5Zq1vwnsuHnuDWxoezWwz/7h6l5t7/WNV575UynPG+71brJ/vSQw6dW5UnMwmF8gAE1Y7oF7OQ1s3zwUwuumTZuipaWlkpWV1SPAtrY2qayslDFjxphCbmhokPb2diksLDS127x5szjls6car2qc+lFMO8ZZX18v0Wg04Tjt9gmoBQUFpmzhs7y8XDIzM3sdT4wzWZ9hEV4nvTpPnXT22X7Q8UqDYTnp3Fv9R1m85Y9ewW57P3jzZw/Si1W2KQTPeOESGa0QNCGWNivhFSJrvDALzxBUIbouvff+TsKp0StjfXxtVgil1VVVSphdJMiOhU9D+EWGLMoXGOKv0U688Irf4wVg2BgiMEReQ9i1QibowuuNo74uN5V+3QoKT9uw1ICnw8POdUOAX3pyWoSRQNCF1ye//EM5bcioMIY2VGMO+jwOyz2w1yatmfD63nvvyaBBgyQvL8+02xs2bJBx48aZ2hw8eFBqampk5MiRpnY7duyQwYMH2+ozokTVaEZGRkL2EFSt2CVsSBlYbcuqXbzPnmq8Wm3Lqp3b4+zJv9X+W7VLdpwUXq0Q875NWE46FF69Pxe90MNzVDbrRJV9amSzok8QSJHlCuFVZ6CqjNWK96q77e78H82Vd/6+Vme3drdge2SqblGlDJA9C8G1RZUdGKWyWSG8otTBXXcsVDVeX9CbQzw9a8pkueW2efpvQ3hFaQP0ySg7YPjCy7euv2ZOR+kCq0wpvFol5a4dhVd3+dN78gQovCbPjFv4n0DQBSsKr/6fo1ZGEPR5HJZ7YCuxTqeNmfCKhMdIBIXTzBcki5olHxpbW2nPig3aS8qnahRl4wKzsNSAu6Gk8Oouf7u8h+WkQ+HVrhkT7HYgvHZ9VB+P86MuK2qn1qlvTpHx2lNGaddSAV1pGeUBFioRFzVdsSCbFkvX8gDItH191Wu6TIFRI9YQXmeq0gOnnXyqLkFwy21zO9wYGa9dM3ITRY3CayJC7q9/emumPLstS849sU2uOumI+x1iD0jAAgEKrxYg0SRwBIIuWFF4DdyU7XZAQZ/HYbkH9tpsDUWpAQqvXpt2/u4PhVd/x8/ofVhOOhRegzFfnR6F8ah/vLAKsRQZqEaNVgill8+e2ZGFinWwgTCbq8oUdF0fL4YiW7ZGZb3+fmUso9V4QZZRagDrkQlrZLgiAzZeYI0vNWDUnoXIapQVQBYsvmF9tYeM2574UXh1emb1vv3NH0ZkygufklXT/i0nDW7vfYNsgQTSQIDCaxog04XnCARdsKLw6rkp50iHgj6Pw3IP7Mjk6EWjFF57Ac+tTRsPiXz0b5ETc9zqQbj9UngNRvzDctKh8BqM+er0KCB0XqRejoWHXEaVl+marsg8jX9ZFl52hRdkIWMVdV2RlYparBBAsRhCrZHRiu2NzFRDhD1rytmSm5Mjr7+6WteUNYRXYz22LS4u1mULmlSfnldCLcTVeOHVeJmW0df/VX4gui64e6FMVu0ns1gRXi87YZJ8eWiZvH9gr7y8e51sbtxl6uKyEyfJ3/ZWyQn9h8pHhw9KhYn9l4eUJbSB//cP7pW39nVf5sGsM0Gp8frG++0yNrtRPj1oYDLhpS0JuEaAwqtr6OnYRQJBF6wovLo4udLoOujzOCz3wGmcMpZcUXi1hMlbRj3VePVWL4PbGwqvwYhtWE46FF6DMV/TMQqIr6uVmArBNCcvV73kanJHWQDDP2qprlWiaHNjkxZdIazGL8iCra6q1ushoqImq7FgHdrGgs8hoBq/4yfWrVaCLLaF2PoNZWNktCIjd6JqzxB1sS3a0y/vUn29fNbMpF6qZfTJqvAK+7/tq5IP1AsH758Qe2vzJiWoPvTPP+vf7xzzbcnr01/+9mGVQCg1hFco2Q9u/7P+7KRPnyC3bvyd3Dn2W9KkBNk3lTg7Ju9Egc1Lde8KRFjYXPH2vdKo1huCL9r9r+2v6PUQc+P9JpoXQRBePz74sWxe9w9VE7hFhn/2eCkpM39ZQCImXE8C6SBA4TUdlOnDawSCLlhRePXajHOmP0Gfx2G5B3ZmdqTeKoXX1Nm5tiVrvLqGXjum8Oouf7u8h+WkQ+HVrhnDdoJIwKrwenz/IVp0hfj647KL5Pp3H5IXz5gnU99cqLFAJIXN8QOU3YF98tT7a7RQikzVGTpjdZ8WTTc37ZLReSfIDe8+LPedcpW8tbf6EzZPvv+Gzm69/5SrtZ9rPn9uTIg9mkl70qdP1OKslcXvwivE1s3v/kM+bv24Y7jZudly0oST5VP9P2UFAW1IwBUCFF5dwU6nLhMIumBF4dXlCZYm90Gfx2G5B07TdLHshsKrZVTeMdz4ocj7TSJf+6x3+hSmnlB4DUa0w3LSofAajPnKUThDwKrwiqxTZJp+cPBDJbxO6yS8QnCFGPvUrjfkUiWOVnz0vhZKsWC7vD4DtLiKzFaIspeeeEYn4dWweXNfpZwwYKjOloXIe+eYb2kBF20/uWuNFl7vrvq9nK4EXSPTNhEVPwuvNTs/kO2VW7sd4qf6fUrGffEUiq+JJgDXu0aAwqtr6OnYRQJBF6wovLo4udLoOujzOCz3wGmcMpZcUXi1hMl7Rks3iswZ671+haFHFF6PRfl4lcE1Rj0a23jogOQqceHl3e86NgVOUlliEDMgSNixpHrSqd9dLy//aaXuwrgJE2T8KeOT6s76d9dL/e7dcv7XLujYrr6uXrJzsvU/uxc7hFdk3OUqAemDVpXJpwSgRAuEpPOLTpGmQweVWPW+Fp8S1cVM1GZP64f3HyxrzlmU6uZp227NX96QN//6hpzx1a/KpDMn9cqvMV+MRszmTUtziyx7+BG5/gc3JvSJud3c3Cwb1q2TSy67VNtv27pN/xwxckTH9mgTy/p318mIUSOkoLAwYdteNbAivEJYRfYqFmS8InMVP/EZfmK5oPAUfXxCrVnUdD1JlRDAOnz+kjouGuuxH4xW695S6yCgwhbtxNsYbWK/wTq0q4VbtRi2KFVgZfGr8Lpz2w7Zue090yFm9cmS0rHlMiR/qBUUttpgH3j2qacFP7GvbNu2TSZ9tXf7dSod3K72z5K4fdPYZ3PUuSTRfol9O36/xrbGvt31mNKdbewYsF5aWlqSHnt3/TbG31MfuvKBb/Q/vq+IiXHsMo5nsHn5Ty+pPn7FkXNsT3GzS3i9uXSa3F0deykhFmTX4wuZrr8bxwdcI50+tLTjXG0cg1KZX2bbePXci/mDuYHzLObA7rrdna7TcC6Ozdlj8wHzI/6azG5WybSH/q9R1wrZ2WofLioUK/tyMu07bWunYIVzIM6TuLeI/90Yw/nq/KpL/BwtA4TP8RnscX/y5bj9wK5xB1F4jb+vOf/CC9W8K7ALl2/bsXMeGxAwV69W91NYnnr/TXU/G7uu62m5puRcXarKiSXVe2An+hKmNkMhvB4+fDialZWVMK5HjhwRK3bRaFQiEbzWo+fFaltW7dzwmRCYMrDaf6t2fvAZBuH14c1ZsrhqtRzo+zvTkOAGAKLAGerCKKdvP53Fhc+Q2QWBDhdAWAxB9oLCCZLbd4BeB2ECF0Uv1a3TJ5/47b48pFTVOjxRr2s8fEBmqEwvZI29ubdSv/yn67rNH+1Swt77qs0TOtYlOqGletJZv04Jp+pC3rhIx0V8fX29jBgxQgaom12IYrhogbiKC2jYbd+6XV1I/1XdCBfpGwCIWy0tSuBSNwe4yJn341uU3fl6fYtaN14JumveeEP9XaBuLEfKti3I+opYFuxQKxMCEGpi2iG8Go88o7blg/98RQlPQ1T7EVWn8oC+KMYFBC4owBwCPD6HuDTjhDP0OghXiM/5Kv74Gws+O0E9lm1FyDWbhF69+YvvM+bBotvvVC9/uksLAJgT+InF+B0/MZdwo4U5hPmh55H6HevWKzEU8+j8Cy+QeTffoufCNvV3jro5O0PdQG4/Kvys+esafcNmzE9DIMKcGnf0S4I1f1mjt0cfxp+i5pq6ycP8jaqdC3Mb2+Pzl1e+pOcw5iH6YszXR3/7iETUBDtP9QuixrZtW3XfJn3lK1qAwhw2xmblmJ5uG9SpHaXq06J+rBXhNd39s9OfH4RXHK/wkjXE48jhI6q0wEb5aP+/LGP4zIjPyWdGpPcRoEW3L5BZV83WfXz2yWf0/or90Djmx++v+IICQk92dk7HfoffseB8gP1s/ITxShTM0V9mYOlu3++6f0FYvf+exTL3Z/P1fgjfxj6LduED5534G2ns67DD/o3jyPXfv1EJO8fs4vftQrXPNytb2N//68XaFu0afozjBM5nhoD77FPPdBx/OjFQ503juGD0G18G4TxpjDf++ILjGtbDF0RfzUkdr3A+NMb08sqV+ngYO+bEhDTwM45d6F+M8QQVo5gg67SggNrT1ZXV6iV/k8UO4RVftNw59tsyf+OKjpfr/bhUZcCrciS4JkD2PW7MjXPrZeqcGxOpkGW/T11XnaGviVCaBNdVx6uM+pdVPWlcK0GYMgRcyztbnKGXz72Y2wuPnm8L1TkV4qtxTsK5+Dx13YU5izmKufOK2gcX/FKdn9VPzBvMpZj4GdtnIeTi2nP30S/NjWs67Fv4zDj/Ym4bIhbW4UsBtIlzqL6uU23qL97VOjSIL/Hj7QzfmPOvqHXj1NxF/+P3ZeMci30i0ZcrqcQ1lW1Qb92o5263YGWU9DHuEZqQ6KHuIzCPsW9g/uPaU89pNb+xz6BED76wsJoskMyYgyi8QxVN1QAAIABJREFUGvc1mFP3qXPKDT+4qeO6sFmdu3B+wjlM1JU/5qZxnjPufy657JvJIPSsLeaxfsGruhaxex5j0LjvwTx+UL0bYMVpN8nl6riM+9v31ZNQ+MLMuIeKPQXVr+PpJuMJKjvBpXoPbGcfwtiWmfDa3t4uGRkZCbEoXVP69OmT0K6trU0yMzNN7ZzwGamoqIiOGjXK1DkcV1VVyejRo007uGfPHoFtQYH5t0GVlZVip08Ir/n5+Z361nhIBJmveX1FZRyql5X0r5TVh0ql+UgsaPO+EFuPdXnHqQzZMSJL/hGVf9btky98bqh8a9Sx9SeqewCULoA9lhP7NMrEwf+WZ+uH6b8nFanPlM0TW2Lr8Tf8LntnrwwePFi+OjxD//2nnbH1X/tM7Cf+Rt/L23fI5z//+Y718I2XhBn1avH3mzsapfKjLBkwYIDu+++Ur12x+/dOY9m7d6/8asog+a+KTD227sb6vfI2+X9X75V+gwp0vzG2J9QLoWEfP9YDBw5IWd5h+Xr5pzvG3t1Y933wT6nM+JwW3McXtMrA4yLy512xyXzuie3q/9Ee/750ZJts/jBDKj6MifVd//7hhCPy9NZMqWmJrcffD2/OVNmCif/OVcyvOumY/fHZUTnvM+2qvQy9vfE32sMyelBUTi9q1+1j+VJhuxyfE5VnlH/jb/ycvlJNGLX0GXirZGT1/AZvPAp766bf6ZPJzeoGAPUK8XvTkVhm6s3qBmHm27/WvyPr4nT1ZnCcWNSUkAtVRuT8jU/oOob6Gz013LwsZEa+rx+pfVC9TOaakvOAVp+kUCdx5e7/1Y/iGo/rNh1q1TcOyMhExhi2g5B3gWobF15my08/f7EcfC2WzZdowZvS8SIhLLhAQQZhoToGnPe1C/UN6cK7F+mLFVysx26ws/XFib4ZVjfkELrmqZvjhT9XN+tXf0eLW7gAn3XVd9ScUvvRQ4/IJTMu1RfhuDnEDSZu4o0bctyQXv+DG/SNORbc2OElSD0tW7D+1dfkJ7fNlf2nD5LFW/6YaIim6/8waZ5+ERDe7A6uC/SN4BOK+3mK/xsq9hcJxO/4upaIBcQ5Q3hFTH6pHpNGTPEoNeI9JvdEHdNU3tZudBg3fz9snNjxoqZeDdTGjeNfBIVm77/nPi08GOIn5kmJEju3K9ESYul9v1kii35+p77RwjpkhI1TF7sb1HyDuPDSUcEWWbNYJp2pRE5lgxuv7Vu3akECN4CYe7gpPENl3+EiGjeMuPmDQHPffy3R2xo3pYvUfDxDtYObQsxpzEHMTWS84kYvJgq/rDLqSvTNH/Zb3AyWjBrZ4Rc3k5ivs66erebxoyquUT2HIcDM+u5sLSRbmbM2ok/Y1OvqBV61NTVy/4NL5Z62N+Ttfd0/zp6wIR8YzC78qoz5oL+ne/r6n/HCtr/Lgl8tkhOLTxCUGEh2GZg/WN5cE/tSx4kFN2LxL4qbr4QdfJFiLBBzzlfnA+wLuAnFvonjdf3uOv2FBY71j6p9DDYQXrDfvvmXv+p9/Uq1DsIg9mns9y3NB/Q+h33/DPVlBgRG7FPY93E+we9GFrsWXn86X/uCGAzf2GchFuGmGMcb9AkiFPziPIW+IIsOv89T2+KLQwhTryg7HH+MYwoES3yOff8Z1T/Ywo/xpREE29iXjbEvIvE5PsNxCMc29PeSGejPS9p3x3FBCdboN/qB8yf6j2PWAHXsij++GBnEOF7NVrZgir7A7jHFEpm+OOeijzFRQPSxC19galFNcQdH+IeIG38MhO2KRx+XJvVCQTuXutrYS/+uvek6yZ82QW5e/1ivmje+7LzshK+oa60ndFsQlk5XIiquq5AJH9GSoOhMKmTU43yK9WOU4Irz9JJTrpHr1HkbIq3xEj986fnLqhd69SQKzr0/j54tVZWxrH83F1yf4TrNWJY9/Kg6b54vy377qP7CwPjy49gcKdTnTHx+/tcv0HMDTzDhnIvrrq/g+kvNm7k/nafnPPY37BfGPo1t8YUD9hnMQ/w9bsI4vX7+zXP19dq2LdvkzTfW6C9onn3yWX0+xj55yX98U57976f1NdB0tS9j/9m+bbtuB9eF8L1NndPxOfZH7FPop7EvY9+dpJ6cMfw5NZeTiecTy5arL8+K5LEnV8jY//lhMpsmtMUXDSjDM+PoPoAv+yFM6X1BXZO+f2Cvynit1gIW7htwPQpR1thXjJrpCR1ZNPjZwAvlwLrkz1EWm0+bWdf7GpyncLw0nszquC48+vQTvpzA/oHjMI67ONbi2hX3P8YXAHhB64vP/d7242q6oGAe5+TmyPMrX7R9HmMMRlkqHIeRzXq3OgZDVDWOzXiyEEdzfGmGeybY4QuF+Cce7GJB4dUuksm1Yya87ty5UwYNGiS5ubmmjW7cuFHGjjV/7L21tVVq1fVISUmJaVvwCR0P5xmzJRmfESX8IfmLCwnYQiAMGa8/e7uPPPPeVmntt1gJgz0/0oo3eeNmwBBeIYhCdG1Uj5jjBgDfRk9dE3v5TMfj6uqEgnUQ4CDiQXjFhRNEO5yA8JZvvHwGNQyxDsLr9etiL5jByQgXVzgZ4VE6CK/wj3U4W+nHcNU6tJOo7EGqJ52uGa83/Od1nUQzI7sCN9C4GC8ZVaIusp/RWUm4WZ9+VNzCjSHEKVzowHbWd7+jbhIeURf6t+obaAhaWKLqP9y04ibV6oKMPghLeOO8nRmvRoYzLgRigvd5mj/mATKT8RkEdtTCjBdeEU88ng3bx9W3vLgoxg0jPsMS1KwbI17IDkAWDGKNOYCbKQgTmCsQXJDBEi+84nMjcws/cVGLi2IIIcjY0jeLSozFXDRs8TfmkyF0QrQwMsvw2Zvqhm/xUeEVN5Ra2FXtbUD7ar0hThjCK/qOuWiILPh5gRKN1r/7bkcWji41oAXfOi2qQHwytsONKvpk9Mfq3E2HHQSX0vIyndnAjNd0EDf3gXjkqAtNCJvdvUwrUQ/1y7ZOUS/bUnVf07VgrmP/wIJ9Azeh+NsQaN5UN6SxEgDq+K0ElLk/w3FdfbGijusQZ3D8X/bQb9W+U6/3KywDcgZ0POpv7Newxb5vPBaNbE/DD/Yv+EPbWHDegIiJ40CO+uIklhEay7rDFzFGXyHuQACG8Ittb/jedbF9e53at1X/4Nv44tAQXl/+48oOP8aj0FpkVsKqkf1kiKnwY2QSQpDFMQ996NpvfAmJLx079SHu+IKbfCxoF8IqBCx8eWn0Fcc344sftA/eiAOW679/kz6ugj1iAX5YzlNPlji54EvR19WXohBe7ch4XXfur9UXlZUqa/Uz6lpqQUftaJxzIT7h2mi5OqdqQfWoCGUIr/gb11845z6kvtw2Xs5nXEcl+nI6EScvZ7xCdIcoimW6Ejpf+WPsd2OOYO4YYlH8HB0/IfaUlnGeNa67sJ9h34Doif0H7cfPw/hzHb5AxZzGPvSc2hexT2JfgUCOcyXahA2uBfHlCs6jaLerb0N4xXbx+zKOAbhe9NK5FWLztTde50imIOY57iWw4MsCfb2vjqtI0jDmPH7HfQjuGzDfkRW7uUnVWlf3IvFlCBLNaSvrg5rximtEfPlXMqJEnVce7bguxLUp5r+x/xj3NthH8GUi1gdlcXIegxHmKBJXcLxGshASivB0wkmqZB++JEM9fyPZCMIsklSs3M+mwj/Ve+BUfHGbYwRCUWqAwiunvJ0EwiC8gtekV+dJjUk9VYiceIM3MkxxMoEIh8fQjRPHL6t/ry+WjLdv4+IJQiouhGBnZHDgcSDjBTKxCyuVFXm0Bg6+xca3f8Y33PpEpYTXTSq7Eicro04i2sa32hBt8Y1h0+FW7cNsSfWkg4sOXIQgsxD1Ot9849iNcIkSoXABDVENN8G4GdSPiauLdJxNY5mrN+qbbQheWHBziZtKZDLhsXKsx7fIyGKEWGc8Spnqozx2CK+4sftICaufVsyRnYyLBPxEJkKuehwGLxyCmI4bO9R1RRbrBYUqbf1oyQlk15ykslshImOpUBfJRnuwwUVIqouXb/6MMRl1Vo2/9Y2Xmh/IKIBwgYxoxBvAkIGKOWQIH/oxW2ThHL2JjJ8vJSNG6uwE3IBN+sokwSNhz6nHnrEgAxU3lngMGsI95q0hvKI/81V5i8Xqgjl+ffzcRMa1kV0LgTaW2VOiRRZjneEXQo8xl3EjiXbwGfrkpZvD7uaYk8IrjotWalLHjlnWarYmu5/4odRA1zF93PqxbHj7XcHPRMvwzxyvygx8TlDvNZ0L9svH1M0pjusQEF9Wwo4x7wvVfof9NVaio1BnuuvszrgsT/1Icl2d2qdGxo796liPYzzODVi6HgMgwsTKkOzutH9hPzNKfnQ6b8Sdd/TxQPmPlTyJnZcgYuK4g9+xz6KvOP9MV8cjHEPwMzY+0ccoZO8Z57N4P0af8UWPFprUttpOZRGCSU/HBWQi4jiC8yC44Ya36/HFqEuN8+dzqnYrMowhCMTEbPVFlqov3enYePSLJPDQx0GVfY9zNJjhGBgbt/UvMHs7n3orvOJLzNy+/fU1Fr70RL101ITGgmsklArAl5k4P+OaCE8D4Ty8Wb3cD+fovKwB+noIma948gjXWlhwXWVHFpXXz70Q/BFvXHUYImz8l42YO1pgUnMf+wbmvM4qR9mKo0+UGNdduObDnDPOrcZ2xjyMP9dhHfZ5zDeItfgyAPu33ufUtR3axLEgVpYgNi+Nc2q8b7RhXFMa15DwH6sr/U3PnludeEQbYiqyWXGeRNIG3ivx1ocqs3uweoquda++hsT1qP5CX+0HsMU9Rp7af3BPYeU8bHV/D6LwiutDnHuMpwy6XjdivhpPGBjXrrgWfVOVRDO+gLTKzy92TsxjXBMik9Wo22ocx3GPBOEVWd3vq/mMYz6eKMWCLxB6W5KtO+ap3gP7JX5e7SeFV69Ghv3yLAEKr7HQ2P2yq1QCDvEXNxgQ9SD0JnNxlc6TjpEFhZtx43HvVMabyjZ2CK+p+E3XNl6/+UsXB/pJjYATwqtRxws3iSiTgsX4LP6RMaPOYqyuV/9eldzoafR+FF4xFtR6rd5YKfsaen75hBu1XVObZce2ggCDLHcsuJH1ygt9ejsubv9JAr0VXr3ONEznXlzD4YkTIwvb67Fxs39OCFZujqer7yAKr2Z8cc5aqDK0033v4nbM0z2P8UXagrHf0gJsMveyqXJK5z1wqn0M4nYUXoMYVY7JUQIUXh3Fm3TjEDTwKEayGWPpPukYdf2SHmAvN6Dw2kuA3DzQBHojvN6pLpJv3fg7ldn/LZWR8KbOQotl2LygX3aDrHwIrz8+mmmGbBwcpyCyYsHv56vsh4dUdg6KPR/fb4gWaBtVuZYKlbWGTH9kQuCR4FRfruBX4dWYdDu37ZCd297rNAfxEtTSk8tlSH6sVInfFmSy4SkHr7wYx2/8/NJfCq9+iVTifhovhjPq7CfeIrwW6Ras0k06bMIr+MYyuM1rQKY7Dk77c2MeO/n0U1de6b4HdjpefmmfwqtfIsV+eoYAhVfPhKJXHQnLSYfCa6+mCTcOOIHeCK94/BdiKspqQGC9oGiCElxP0S9MwMtt8Mgj6le/tHudElkP6MeFjfIoqE1n2KEmI+ogI4P/ir/fqx8xQ806tI3yHrgYT7UOst+FV0y/mvc+kO1VsRegoY7ruNNOSWs914DvAhyeQwQovDoEls16moAbglU6gYRReE0nX6/4Cvo8Dss9sFfmk9EPCq9eiwj743kCFF49HyJLHQzLSYfCq6XpQKNeEsDbbF979TUpKytTL64q7WVr6du8N8IraksvP+37ur40slXxEg/U6IJIagiveDmCkcWAbFaIsXiUDHUZkS2LFygYdbKR/XqrWoda2PjMeGM5tguz8IrZgJdu1dfUuVLPNX2zkZ6CRIDCa5CiybFYJRB0wYrCq9WZ4G+7oM/jsNwDe20WUnj1WkTYH88ToPDq+RBZ6mBYTjoUXi1NBxr1kkBtTa1MmTRZv9l4jnqjt1+W3givGCOyVCG4GjVckamKl8fhpXNY8DcyXVFWAEKq3kZlu0KQNdYh49V48RxevBD/sjmjNEGqNb+CkPHql7nEfpJAPAEKr5wPYSQQdMGKwms4ZnXQ53FY7oG9NlspvHotIuyP5wlQePV8iCx1MCwnHQqvlqYDjXpJIKzCay+xOb45hVfHEdMBCXRLgMIrJ0YYCQRdsKLwGo5ZHfR5HJZ7YK/N1lAIr3V1ddHCwsKE7JWdFBUVmdodOHBA2tvbJSdBkendu3eLXT7xEgYs2dnZpn2z0n80YMWOPjujjmdG4TXhruQLg7CcdCi8+mI6ut7JF597Qaorq+Ty2VfIXXcskuamJikeXiy33DZPcnKPvVRh6eIlyq5arz9rymSZdvFFen0i4RWlCJYve7zbbTF4+CwtK5Wp06d1sOjuM7tB9Tbj1e7+2N0ehVe7ibI9ErBGgMKrNU60ChaBoAtWFF6DNV97Gk3Q53FY7oG9NlvNhNf9+/drra9v376m3a6pqZHhw4eb2rS1tQnaGzrU/CW0TviM7NmzJ5rIMXq/d+/ehB1sbW2VaDQq/fvH3krc02KlLa/7RP/69Ys9LpmucfrBJ4VXrx3GUutPWE46FF5Tmx9h22r+j+bKalWjtVidzE89baLUfVCr/4YQuuDuRRrHvJvnyuurVneIo6tXwb5YHntyeULh9eILpyqbOr0tRFu0UzS8SJ5f+aJu+xxVpmDiFyfKgl/FfPX0md1xofBqN1G2RwIkAAIUXjkPwkgg6IIVhddwzOqgz+Ow3AN7bbaaCa+NjY0yYMAAycrKMu12Q0OD5Ofnm9ogSRTtDRw40NTOCZ8RJZRGvQae/fEvAQqv/o1dfM8fnHitTCkcF4zBmIzi0X+uljs2Px3YcZbnHS8rz7wtsONL18AgvL74/Auyas1qLaZiuXLGTJ0F+/Y/3tFC6fXXzJH7Hloik885W69/5+212gbCa5Hapqcar8imna9EWwi4Rkarse1PbpsrM1WWLYVXZyLNjFdnuLJVEkhEgMJrIkJcH0QCQResKLwGcdZ+ckwnv3STrs0f1CUs98Bei18oSg1QePXatPN3f8IivK7avV4qG2v8HSyT3s/+/GT9tvGgLzUHP9SZN0FdThsyUk4bMiqow0vbuAzhteK96g6fS+9dIg+o0gL47K7bF8qKZcvlzriMVBjeqgRbvFALgmpPwquxbXzb2PZLJ0+Us86ZrLNc3RJe032ca25uUqWKctMW1+knnC7D+w9Omz86IgESiBHATTu++EzXku5jC770DMOX1+mKX1D84HoT151BXHDPgHsHLsEnEPR5PP2EL4XiHthrM5XCq9ciwv54nkBYhFfPB4Id9CSBFY8+rkS4WN1PLv4hkEh4NdajDEHXZerF03R5gp6EV2z7zt/X6mza+AViq1GqwC3hNd0Rgpg956br0u2W/kiABAJOgMeWgAeYw/sEAdSWx9Mz8bXhiYkESIAEvEqAwqtXI8N+eZYAhVfPhoYdc5lAxwuWlLA0R2VBcvEPgUTCKwR1vOwKZQe6E9XNXq5lZLx23Xb0Z0v1y7xuUeUGuhNe4zNi/UPSvKcUR4ISSY6DBLxFgMcWb8WDvXGeAIVX5xnTAwmQgH0EKLzax5IthYQAhdeQBJrDTJoALoIfUBl9Z507uaMOaNKNcANXCCQSXg1h9fLZM5VQOk/3EWLsA4uXyn0PLjGt8WrUc43f1ihjgJdrlZaXdtSTXXD3XfrvFcseV+0vF2TTxr9wyxU4NjqlOGIjTDZFAiTQQYDHFk6GsBGg8Bq2iHO8JOBvAhRe/R0/9t4FAhReXYBOl74hgBcp8bEv34Sro6OJhFdDaEXWa25urmSrUhJ1SmhHrPHSLLOMV2wLQX6pqheLbbE0NTXpR+5RHxZLdWW1zFIv6sLnWJAJu3rVazLxixMpvPpvOrHHJEACaSZA4TXNwOnOdQIUXl0PATtAAiSQBAEKr0nAoikJgACFV84DEuiZAIVXf84OCJ/NSvSMr+GKmxqIq10/26Jsm9RLokrLynR2KpbmpmYlnlbpzFfUbe1uQXvGtpPPOfsTJQuM9ShlAJ/IlDVrz4+kKY74MWrsMwl4nwCPLd6PEXtoLwEKr/byZGskQALOEqDw6ixfth5AAhReAxhUDsk2AhRebUPJhgJIgOJIAIPKIZGABwjw2OKBILALaSVA4TWtuOmMBEiglwRCIbxu2rQpWlpaKllZWT3iamtrk4qKChk7dqwp0oaGBmlvb5fCwkJTO+VTylQ2UCKflZWVMmbMGM/5rK+vl2g0mtZxwieWgoKChGzLy8slMzPTNJ5W2Kbik8JrL4863DzQBCi8Bjq8HFwvCVAc6SVAbk4CJNAtAR5bODHCRoDCa9gizvGSgL8JmAmvO3bskMGDB0teXp7pIDds2CDjxo0ztTl48KDU1NTIyJEjTe2c8BlRomo0IyMjYaQgqFqxS9iQMrDallU7+jxGwCozq3bJsqXwaoUYbcJKgMJrWCPPcVshQHHECiXakAAJJEuAx5ZkidHe7wQovPo9guw/CYSLgB0Zr1b1LSRQRiIRU8BWbNBAUj5Vo9FwhZWjdZIAhVcn6bJtvxOg8Or3CLL/ThKgOOIkXbZNAuElwGNLeGMf1pFTeA1r5DluEvAnATuEV6+PPELh1esh8lf/KLz6K17sbXoJUHhNL2968xcBiiP+ihd7SwJ+IcBji18ixX7aRYDCq10k2Q4JkEA6CFB4TQdl+ggUAQqvgQonB2MzAQqvNgNlc4EiQHEkUOHkYEjAMwR4bPFMKNiRNBGg8Jom0HRDAiRgCwEKr7ZgZCNhIkDhNUzR5liTJUDhNVlitA8TAYojYYo2x0oC6SPAY0v6WNOTNwhQePVGHNgLEiABawQovFrjRCsS6CBA4ZWTgQR6JkDhlbODBHomQHGEs4MESMAJAjy2OEGVbXqZAIVXL0eHfSMBEuhKgMIr5wQJJEmAwmuSwGgeKgIUXkMVbg42SQIUR5IERnMSIAFLBHhssYSJRgEiQOE1QMHkUEggBAQovIYgyByivQQovNrLk60FiwCF12DFM12jeeH5F6SsrExKy0vT5dIVPxRHXMFOpyQQeAI8tgQ+xBxgFwIUXjklSIAE/EQgFMLr4cOHo1lZWQnjouykT58+Ce2i0ahEIhFTuyNHjgh9HkPkZbYJA64M4vtP4dUKMdqElQCF1+BGfsWjj8sDi5dKU1OTLLh7kUydPk26flZdVSWvr1otz698UaorqwTz4dqbrtNQpl84Tf7zxjkyc/YVnSDBZuniJfLYk8uleHhxcAGqkVEcCXR4OTgScI0Ajy2uoadjlwhQeHUJPN2SAAmkRMBMeG1vb5eMjIyE7VrV1Nra2iQzM9O0PSd8RioqKqKjRo0ydQ7HVeqGcfTo0aYd3LNnj0B4zc/PN7WrrKwUL/pEEKqrq9M6Trd8btmyRcrLy03j1NDQoNcnE08KrwmPCTQIMQEKr8EMfnNTs5x28qky+ZyzteA6SmWm5ubmfuKz11e9JqtfXa1FVMyF+TfP1b+XlpfJlTNmyuWzZurt45cpkybLtTde94nPg0iS4kgQo8oxkYD7BHhscT8G7EF6CVB4TS9veiMBEugdATPhddeuXTJw4EB9b2W2bNy4UcaOHWtq09raKrW1tVJSUmJqt3PnThk8eLDk5OTY5jOihNJo7zBxaxI4RoDCK2cDCfRMgMJrMGcHbnAgkBqZrhhld5/Fjz5eeD31tInBBJPkqCiOJAmM5iRAApYI8NhiCRONAkSAwmuAgsmhkEAICISi1ACF1xDM5DQOkcJrGmHTle8IUHj1Xcg6OozH/Z94dLkuJYBvXL89e6bMUZmoKB2w6I6FUqfEV3yenZsjM1Xm6vJlyzt9hszWFeozlBjomvFapEoIIOMV211+tNRAfJkClBj4hsqEhb8gLxRHghxdjo0E3CPAY4t77OnZHQIUXt3hTq8kQAKpEaDwmho3bhViAhReQxx8Dj0hAQqvCRF50gA37Q8o4RWi6ORzJss7b6/VdVeR4Yps1S2V1XL9NXM61kNI7foZ7Ob/aK688/e1smrN6k6lBmBvlBSYo2q+9uTvJ7fN/UQNWE8CS7FTFEdSBMfNSIAETAnw2MIJEjYCFF7DFnGOlwT8TYDCq7/jx967QIDCqwvQ6dI3BCi8+iZUnTqKGq64iSlVtVuNZfRnS2XqxdNkwa8WdVtWoLtSA1aFV4iwp35xom7bWG645jqdLQvRNqgLxZGgRpbjIgF3CfDY4i5/ek8/AQqv6WdOjyRAAqkToPCaOjtuGVICFF5DGngO2xIBCq+WMHnSaK3Kcn1dvRirubFJqtXLJqtVlqsTwitergXhdaLKkC0qLu5gYfiseK/ak3zs6BTFETsosg0SIIGuBHhs4ZwIGwEKr2GLOMdLAv4mQOHV3/Fj710gQOHVBeh06RsCFF59E6pOHb1L1XBdoeq7olwAMlGLjy/W5QAmHs1KtfpyLSsZr4bwetaUs6W07FiGrdEhlCII6kJxJKiR5bhIwF0CPLa4y5/e00+Awmv6mdMjCZBA6gQovKbOjluGlACF15AGnsO2RIDCqyVMnjP60skT5SxV2zX+0f/4z+wUXiGsom28TOsWVdPVWOADL+/KUS/vCupCcSSokeW4SMBdAjy2uMuf3tNPgMJr+pnTIwmQQOoEKLymzo5bhpQAhdeQBp7DtkSAwqslTJ4zuvjCaapPUfUyrbu08Lli2eM6A9aJUgPxL9fCy7QmnvZFaWpqkltvniujysvk/geXeI6PXR2iOGIXSbZDAiQQT4DHFs6HsBGg8Bq2iHO8JOBvAqEQXmtra6OFhYUSiURMo1VXVydFRUWmNi0tLRKNRiUnxzwjx0pbcGTFzi2f6F92dnavmSUzTj/4pPDq74Mee+8sAQqvzvJ1qnXUc70jPb89AAAgAElEQVT+mjlSp7JOsUAcfeG5FxwpNWCUEvjF7Qtl+bLlHUNCmYMFdy+S4uHH6r46NV632qU44hZ5+iWBYBPgsSXY8eXoPkmAwitnBQmQgJ8ImAmv+/fv17pb3759TYdUU1Mjw4cPN7Vpa2sTtDd06FBTOzt9HjlyRP71r39JZM+ePdFEjtGrvXv3Juxga2urFl779+9vOhArbSXjE7b9+vWjT4txcpIthVc/HeLY13QToPCabuL2+oPwmpPmx/3d8GkvNeutURyxzoqWJEAC1gnw2GKdFS2DQYDCazDiyFGQQFgImAmvePIP+mJWVpYpjoaGBsnPzze1aW9vl8bGRhk4cKCpnRM+I0oojYYloByn8wQovDrPmB78S4DCq39jx547T4DiiPOM6YEEwkiAx5YwRj3cY6bwGu74c/Qk4DcCoSg1QOHVb9PS2/2l8Ort+LB37hKg8Oouf3r3NgGKI96OD3tHAn4lwGOLXyPHfqdKgMJrquS4HQmQgBsEKLy6QZ0+fU2Awquvw8fOO0yAwqvDgNm8rwlQHPF1+Nh5EvAsAR5bPBsadswhAhReHQLLZkmABBwhQOHVEaxsNMgEKLwGObocW28JUHjtLUFuH2QCFEeCHF2OjQTcI8Bji3vs6dkdAhRe3eFOryRAAqkRoPCaGjduFWICFF5DHHwOPSEBCq8JEdEgxAQojoQ4+Bw6CThIgMcWB+GyaU8SoPDqybCwUyRAAj0QoPDKqUECSRKg8JokMJqHigCF11CFm4NNkgDFkSSB0ZwESMASAR5bLGGiUYAIUHgNUDA5FBIIAQEKryEIModoLwEKr/byZGvBIkDhNVjx5GjsJUBxxF6ebI0ESCBGgMcWzoSwEaDwGraIc7wk4G8CFF79HT/23gUCFF5dgE6XviFA4dU3oWJHXSBAccQF6HRJAiEgwGNLCILMIXYiQOGVE4IESMBPBEIhvG7atClaWloqWVlZPcamra1NKioqZOzYsabxa2hokPb2diksLDS1Uz6lrKzMFp/19fUSjUZt81lZWSljxowx7b9bPtGpgoKChGzLy8slMzPTNJ5Wx5msTwqvfjrEsa/pJkDhNd3E6c9PBCiO+Cla7CsJ+IcAjy3+iRV7ag8BCq/2cGQrJEAC6SFgJrzu2LFDBg8eLHl5eaad2bBhg4wbN87U5uDBg1JTUyMjR440tXPCZ0SJqtGMjIyERCGoWrFL2JAysNqWVTv6PEbAKjOrdsmypfBqhRhtwkqAwmtYI89xWyFAccQKJdqQAAkkS4DHlmSJ0d7vBCi8+j2C7D8JhIuAHRmvVvUtJG1GIhFbACflUzmO2uKVjZCAIkDhldOABHomQOGVs4MEeiZAcYSzgwRIwAkCPLY4QZVtepkAhVcvR4d9IwES6ErADuHV61QjFF69HiJ/9Y/Cq7/ixd6mlwCF1/Typjd/EaA44q94sbck4BcCPLb4JVLsp10EKLzaRZLtkAAJpIMAhdd0UKaPQBGg8BqocHIwNhOg8GozUDYXKAIURwIVTg6GBDxDgMcWz4SCHUkTAQqvaQJNNyRAArYQoPBqC0Y2EiYCFF7DFG2ONVkCFF6TJUb7MBGgOBKmaHOsJJA+Ajy2pI81PXmDAIVXb8SBvSABErBGgMKrNU60IoEOAhReORlIoGcCFF45O0igZwIURzg7SIAEnCDAY4sTVNmmlwlQePVydNg3EiCBrgQovHJOkECSBCi8JgmM5qEiQOE1VOHmYJMkQHEkSWA0JwESsESAxxZLmGgUIAIUXgMUTA6FBEJAgMJrCILMIdpLgMKrvTzZWrAIUHgNVjw5GnsJUByxlydbIwESiBHgsYUzIWwEKLyGLeIcLwn4m0AohNdDhw5F+/TpkzBShw8fFit20WhUIpGIaXtW27JqR5/HcFtlZsUOXLEkE08Krwl3JRqEmACF1xAHn0NPSIDiSEJENCABEkiBAI8tKUDjJr4mQOHV1+Fj50kgdATMhNf29nbJyMhIyMSKvoVG2traJDMz07Q9J3xGKioqoqNGjTJ1DsdVVVUyevRo0w7u2bNHINbl5+eb2lVWVooXfSII1dXVaR0nfG7ZskXKy8vTxjYZn+jUsGHDLMeTwmvCYwINQkyAwmuIg8+hJyRAcSQhIhqQAAmkQIDHlhSgcRNfE6Dw6uvwsfMkEDoCZsLrrl27ZODAgZKbm2vKZdOmTTJmzBhTm9bWVqmtrZWSkhJTu507d8rgwYMlJyfHNp8RJZTG0hq5kIANBCi82gCRTQSWAIXXwIaWA7OBAMURGyCyCRIggU8Q4LGFkyJsBCi8hi3iHC8J+JtAKEoNUHj19yT1Wu8pvHotIuyPlwhQePVSNNgXrxGgOOK1iLA/JBAMAjy2BCOOHIV1AhRerbOiJQmQgPsEKLy6HwP2wGcEKLz6LGDsbloJUHhNK2468xkBiiM+Cxi7SwI+IcBji08CxW7aRoDCq20o2RAJkEAaCFB4TQNkuggWAQqvwYonR2MvAQqv9vJka8EiQHEkWPHkaEjAKwR4bPFKJNiPdBGg8Jou0vRDAiRgBwEKr3ZQZBuhIkDhNVTh5mCTJEDhNUlgNA8VAYojoQo3B0sCaSPAY0vaUNORRwhQePVIINgNEiABSwQovFrCRCMSOEaAwitnAwn0TIDCK2cHCfRMgOIIZwcJkIATBHhscYIq2/QyAQqvXo4O+0YCJNCVAIVXzgkSSJIAhdckgdE8VAQovIYq3BxskgQojiQJjOYkQAKWCPDYYgkTjQJEgMJrgILJoZBACAhQeA1BkDlEewlQeLWXJ1sLFgEKr8GKJ0djLwGKI/byZGskQAIxAjy2cCaEjQCF17BFnOMlAX8TCIXwWltbGy0sLJRIJGIaLWUnxcXFpjYtLS0SjUYlJyfH1K6urk6KiooSzg4rdmHyCWDZ2dlpZZusTwqvCac1DUJMgMJriIPPoSckQHEkISIakAAJpECAx5YUoHETXxOg8Orr8LHzJBA6AmbC64cffqj1xb59+5pyqampkeHDh5vaHDlyRPbv3y/Dhg0ztXPCZ2Tv3r3RIUOGJAyuspOhQ4ea2n388cdaeO3Xr5+p3b59+yTdPq30H522Ytfa2qrHl2icVtoKmk8Krwl3JRqEmACF1xAHn0NPSIDiSEJENCABEkiBAI8tKUDjJr4mQOHV1+Fj50kgdATMhNempibp37+/ZGVlmXJpaGiQ/Px8U5v29nZpbGyUgQMHmto54TOihNJo6CLLATtGgMKrY2jZcAAIUHgNQBA5BMcIUBxxDC0bJoFQE+CxJdThD+XgKbyGMuwcNAn4lkAoSg1QePXt/PRkxym8ejIs7JRHCFB49Ugg2A1PEqA44smwsFMk4HsCPLb4PoQcQJIEKLwmCYzmJEACrhKg8Ooqfjr3IwEKr36MGvucLgIUXtNFmn78SIDiiB+jxj6TgPcJ8Nji/Rixh/YSoPBqL0+2RgIk4CwBCq/O8mXrASRA4TWAQeWQbCOw4tHHZer0iyQn1/wFhLY5ZEMk4CMCFEd8FCwXu9rS3CLZOeYvGu2ue6lsZ2yDn8bSk+9U2ncRY6hc89gSqnBzsIrA2rfXCl6bfeppE8mDBEiABDxPgMKr50PEDnqNAIVXr0WE/fESgeamZlmx7HG59sbrvNQt9oUEPEGA4kh6w/DsU89Ifd1uaWlpkemXfVNGjBzR0YFt27ZJS1OLjD9lvKOdWvPXNfLmX96QgqICLaZectmlCf29/KeXdF/Xr1uv+3/9D260tA2Mzv/aBQltDYNlDz8iJSNGyIhRI+S+exbrvtXv3t1jG/NuvkUW3n2X5fZpmD4CPLakjzU9eYMA57w34sBekAAJWCNA4dUaJ1qRQAcBCq+cDCRgTqC6slqqK6t0FkLx8GLiIgESUATuumOhrHh0udz30BKZfM7ZZJIGAhAWz7/wAi28QswsKCqUluZm7RnZmxA25/30Vnn2yae1zfXfv1FeXrlSZl31HblfCZHjTpkgr/xppVyp/oYQuujnC2Tuz+brdZfMuFRvBzEVYuf999wnZ3z1K7J961b9GX7HNvCLZbxqC/bGgvUb1q1Twmq9FlbRV+Nndk6OjFCC6Hq9frfMuvq7sT6qPqNvy377iGomKiWqfUPIna9E0QVKFF10+wK9Ljs7R42pWduMn3CKav+3+ndsP//muVJQWKBFVowRtob/De+uU+O5UJ596mllX6L+jdTCMeywDtunko2bhnCH1gUeuZ5+4TQ5a8pkNQcWhZYDBx4OArjGfPH5F+TyWTN5jRmOkHOUJBAIAhReAxFGDiKdBCi8ppM2ffmVADJf31GPgTU1N/l1COw3CdhKAKIrvpCA6HrWuZNtbZuNHSMAvkapE4iJEC7Xr9sg9/3X/TJPCY6TvjpJ1r+7XomZ3+nIhh0/YbwWE5998hktVs5VYuyin9+pxcZCJdaOU+uxLHv4Ub29YQchc9vWbXKBEiq3KcEVouQN37tOC7HjJ0zQWa4QXtf89Q0pLCzUPiB2QizF55fM+KbabrsWgyFqzv2Z8nv7nUoULdTbG8IrBONJSqjFgs+2K5/oY3wGKvqL7W/4z+vkvt8s0e0Y44CoDFEWPuHfyLw1fEGchphr2NfvrldjH6/HBsEY/dOCr+KJvw0eOM6vfvU1Tj+XCeBci/rqReqLzjk38WkTl8NB9w4TKC4uZnkBhxmzeRIgAfsJUHi1nylbDDgBCq8BDzCHRwIkQAIOENAvAvn7Wi28sgayA4C7adLIeH155ctaLHxFCY/IWDWEUIiYyPaE0JmjRFEIjShPMPenKqv114t1tmy88ArREuLtDSpDdY3KAoWACsEVNmgTf0MUbVZCJzJfIVZC7ESm6hlnTtLZqIUq03TWd9Xnqk9aBFZZt/D/ssqshRj82EPq8X+dpXpMeC0ZNVKXBIAojLaQKWuIpBBbsaBt9Ls74RUZtOgbxoYsXPQZGbv333Ov9tVVeJVIRPdxd32d9ocxGcIrBGBsw8VbBF5ftVoLr6Xlpd7qGHtDAiRAAiRAAiQgoRBeN27cGC0rK5OsrKweQ97W1iYVFRUyduxY02nR0NAg7e3tOnPBbNm0aZPY5bO+vl6i0ahtPisrK2XMmDGm/fe6z/LycsnMzDSNp9VxopGCgoKE8TR8UnjlkZMESIAESIAEvE8Ama1GXVf9+6gSLYQaWZsQIiE6QjRFVuglqg4sxNcNEEPVdQEyTSHIQhg1FmwDOwiSeBwf6yBGxrJDx3dklSLrFevw+ZuqfSz4DBmuyLDFYmyPz1ELFpml2dnZKiM1R4u5u1GfVn026cyvxATco32E6IvPjJ+xtp7R4qxRo/WYzZqOcaM/8GWUPzB86XqyKuM21mZne7BCPzA2Q9z1fuTZQxIgARIgARIgARLwDgEz4XXHjh0yePBgycvLM+3w+vXrZfx483cTHDx4UGpqamSkKhVltjjhM6JE1WhGRkZC6hBUrdglbEgZWG3Lqh19HiNglZlVu2TZUni1Qow2JEACJEACJEAC6SKgM1PVC8OMMgB2+0X79fW7tbjLhQRIgARIgARIgARIwDoBOzJerepbSNqMqKeX7FiS8qkcR+1wyjZIAAQovHIekAAJkAAJkAAJkAAJkAAJeJ0AajGzvI3Xo8T+kQAJBJ2AHcKr1xlFKLx6PUT+6h+FV3/Fi70lARIgARIgARIgARIggbARWLp4ifxBvXjtJ7fNk8lT+FLHsMWf4yUBEvAOAQqv3okFe+ITAhRefRIodpMESIAESIAESIAESIAEQkoAL3W8csZMeezJ5VKsXr7GhQRIgARIwB0CFF7d4U6vPiZA4dXHwWPXSYAESIAESIAESIAESCAkBCC+UnQNSbA5TBIgAc8SoPDq2dCwY14lQOHVq5Fhv0iABEiABEiABEiABEiABEiABEiABEjAOwQovHonFuyJTwhQePVJoNhNEiABEiABEiABEiABEiABEiABEiABEnCRAIVXF+HTtT8JUHj1Z9zYaxIgARIgARIgARIgARIgARIgARIgARJIJ4FQCK+HDh2K9unTJyHXw4cPixW7aDQqkUjEtD2rbVm1S7dP+MOSznH6xSeF14S7Eg1IgARIgARIgARIgARIgARIgARIgARIIPQEzITX9vZ2ycjISMhI6ZrSt2/fhHZtbW2SmZlpaueEz0hFRUV01KhRps7huKqqSkaPHm3awb179wps8/PzTe0qKyvFLp979uwRiJJ2+EQQtmzZIuXl5ab9D5NPgBg2bJjleFJ4Tbiv04AESIAESIAESIAESIAESIAESIAESIAEQk/ATHjdtWuXDBo0SHJyckw5bdq0ScaMGWNq09raKrW1tVJSUmJq54TPiBItY+mbXEjABgIUXm2AyCZIgARIgARIgARIgARIgARIgARIgARIIOAEQlFqgMJrwGdxmodH4TXNwOmOBEiABEiABEiABEiABEiABEiABEiABHxIgMKrD4PGLrtLgMKru/zpnQRIgARIgARIgARIgARIgARIgARIgAT8QIDCqx+ixD56igCFV0+Fg50hARIgARIgARIgARIgARIgARIgARIgAU8SoPDqybCwU14mQOHVy9Fh30iABEiABEiABEiABEiABEiABEiABEjAGwQovHojDuyFjwhQePVRsNhVEiABEiABEiABEiABEiABEiABEiABEnCJAIVXl8DTrX8JUHj1b+zYcxIgARIgARIgARIgARIgARIgARIgARJIFwEKr+kiTT+BIUDhNTCh5EBIgARIgARIgARIgARIgARIgARIgARIwDECoRBea2tro4WFhRKJRExBKjspLi42tWlpaZFoNCo5OTmmdnV1deKGz6KiooSTxe5xetUnYpCob4gnluzs7ITxNNqi8JpwitGABEiABEiABEiABEiABEiABEiABEiABEJPwEx4/fDDD7W+2LdvX1NOH3zwgRx//PGmNkeOHJH9+/fLsGHDTO2c8BnZu3dvdMiQIQmDrexk6NChpnYff/yxFl779etnardv3z6hz2OIrLBtbW3VG9jF1koMUvFJ4TXhrkQDEiABEiABEiABEiABEiABEiABEiABEgg9ATPhtampSfr37y9ZWVmmnPbs2ZNQUG1vb5fGxkYZOHCgaVtO+IwooTQa+kgTgG0EKLzahpINkQAJkAAJkAAJkAAJkAAJkAAJkAAJkEBgCYSi1ACF18DOX1cGRuHVFex0SgIkQAIkQAIkQAIkQAIkQAIkQAIkQAK+IkDh1VfhYme9QIDCqxeiwD6QAAmQAAmQAAmQAAmQAAmQAAmQAAmQgLcJUHj1dnzYOw8SoPDqwaCwSyRAAiRAAiRAAiRAAiRAAiRAAiRAAiTgMQIUXj0WEHbH+wQovHo/RuwhCZAACZAACZAACZAACZAACZAACZAACbhNgMKr2xGgf98RoPDqu5CxwyRAAiRAAiRAAiRAAiRAAiRAAiRAAiSQdgIUXtOOnA79ToDCq98jyP6TAAmQAAmQAAmQAAmQAAmQAAmQAAmQgPMEKLw6z5geAkaAwmvAAsrhkAAJkAAJkAAJkAAJkAAJkAAJkAAJkIADBEIhvG7cuDFaVlYmWVlZPSJsa2uTiooKGTt2rCnmhoYGaW9vl8LCQlO7TZs2iV0+6+vrJRqN+tpnZWWljBkzxpRZMuMsLy+XzMxM03ha9YlGCgoKEsbT8Enh1YEjEZskARIgARIgARIgARIgARIgARIgARIggYARMBNed+zYIYMHD5a8vDzTUa9fv17Gjx9vanPw4EGpqamRkSNHmto54TOiRNVoRkZGwtBBULVil7AhZWC1Lat29HmMgFVmVu2SZUvh1Qox2pAACZAACZAACZAACZAACZAACZAACZBAuAnYkfFqVd9C0mYkErEFeFI+leOoLV7ZCAkoAhReOQ1IgARIgARIgARIgARIgARIgARIgARIgAQSEbBDeE3kw+31EQqvbocgWP4pvAYrnhwNCZAACZAACZAACZAACZAACZAACZAACThBgMKrE1TZZqAJUHgNdHg5OBIgARIgARIgARIgARIgARIgARIgARKwhQCFV1swspEwEaDwGqZoc6wkQAIkQAIkQAIkQAIkQAIkQAIkQAIkkBoBCq+pceNWISZA4TXEwefQSYAESIAESIAESIAESIAESIAESIAESMAiAQqvFkHRjAQMAhReORdIgARIgARIgARIgARIgARIgARIgARIgAQSEaDwmogQ15NAFwIUXjklSIAESIAESIAESIAESIAESIAESIAESIAEEhEIhfB66NChaJ8+fRKxkMOHD4sVu2g0KpFIxLQ9q21ZsYM/LPQZQ26FmVW7VNhSeE24K9GABEiABEiABEiABEiABEiABEiABEiABEJPwEx4bW9vl4yMjISMlK4pffv2TWjX1tYmmZmZpnZO+IxUVlZGR44caeocjqurq6W8vNy0g3v37hXY5ufnm9opnzJq1ChbfO7Zs0cgEPrVJwK/ZcuWhGwxTizDhg3rNVsnfVJ4Tbiv04AESIAESIAESIAESIAESIAESIAESIAEQk/ATHjdtWuXDBo0SHJyckw5bdq0ScaMGWNq09raKrW1tVJSUmJqZ7fPuro6iSjRMpYyyoUEbCBA4dUGiGyCBEiABEiABEiABEiABEiABEiABEiABAJOIBSlBii8BnwWp3l4FF7TDJzuSIAESIAESIAESIAESIAESIAESIAESMCHBCi8+jBo7LK7BCi8usuf3kmABEiABEiABEiABEiABEiABEiABEjADwQovPohSuyjpwhQePVUONgZEiABEiABEiABEiABEiABEiABEiABEvAkAQqvngwLO+VlAhRevRwd9o0ESIAESIAESIAESIAESIAESIAESIAEvEGAwqs34sBe+IgAhVcfBYtdJQESIAESIAESIAESIAESIAESIAESIAGXCFB4dQk83fqXAIVX/8aOPScBEiABEiABEiABEiABEiABEiABEiCBdBGg8Jou0v9/e/fSXFWxNgC4d24kgUBIQiAgI5RIEKqYaTlW/4BWObXUuZZz/QP+hTPXKn+Bcy8zqojcvKCQCyGBAEkgCEn2l94c5OzvHHp1dCXZl2dXOUqn3+7nfXutvd5sN+K0jIDGa8uk0kYIECBAgAABAgQIECBAgAABAtsm0BaN15mZmerY2FioVCpJyM1x4dixY8kxKysroVqthoGBgeS42dnZsBsxjx49WlgsZe9zp2PmrD8i5IxbXl6ueRXl8z/n0ngtLDEDCBAgQIAAAQIECBAgQIAAAQJtL5BqvN65c6fWj+rp6Uk6TU1NhePHjyfHrK2thcXFxTA6Opoctx0xKwsLC9WRkZHCZG+OC4cOHUqOe/ToUa3x2tfXlxx3+/btkBMzZ5yY9dQ5ZvE3csatrq7WJt9KPjVeC4+SAQQIECBAgAABAgQIECBAgACBthdINV6XlpZCf39/6OrqSjrNz88XNlQ3NjZCnG9wcDA513bErGw2Sqttn2kApQlovJZGaSICBAgQIECAAAECBAgQIECAQMsKtMVXDWi8tmz97srGNF53hV1QAgQIECBAgAABAgQIECBAgEBTCWi8NlW6LLYRBDReGyEL1kCAAAECBAgQIECAAAECBAgQaGwBjdfGzo/VNaCAxmsDJsWSCBAgQIAAAQIECBAgQIAAAQINJqDx2mAJsZzGF9B4bfwcWSEBAgQIECBAgAABAgQIECBAYLcFNF53OwPiN52AxmvTpcyCCRAgQIAAAQIECBAgQIAAAQI7LqDxuuPkAja7gMZrs2fQ+gkQIECAAAECBAgQIECAAAEC2y+g8br9xiK0mIDGa4sl1HYIECBAgAABAgQIECBAgAABAtsg0BaN1wsXLlRPnToVurq6Xki4vr4eLl68GM6ePZtkvnXrVtjY2AhjY2PJcZOTk6GsmHNzc6FarYr5b/Fc20uXLoUzZ84k8xRt4+vIkSOF+ZyYmAidnZ1B43UbrkSmJECAAAECBAgQIECAAAECBAi0mECq8Xrt2rUwPDwcDhw4kNz1+fPnw7lz55JjHj58GKampsL4+HhyXNkxp6enQ2WzqVrt6OgoTF1sqOaMK5xoc0DuXLnjxHwukGuWO26rthqvOWLGECBAgAABAgQIECBAgAABAgTaW6CMT7zm9rfihzYrlUop4FuKuRm4WkpUkxDYFNB4VQYECBAgQIAAAQIECBAgQIAAAQJFAmU0Xoti7PbPKxqvu52C1oqv8dpa+bQbAgQIECBAgAABAgQIECBAgMB2CGi8boeqOVtaQOO1pdNrcwQIECBAgAABAgQIECBAgACBUgQ0XkthNEk7CWi8tlO27ZUAAQIECBAgQIAAAQIECBAg8PcENF7/npvfamMBjdc2Tr6tEyBAgAABAgQIECBAgAABAgQyBTReM6EMI/BMQONVLRAgQIAAAQIECBAgQIAAAQIECBQJaLwWCfk5gf8noPGqJAgQIECAAAECBAgQIECAAAECBIoE2qLx+vjx42p3d3eRRXjy5EkoGletVmvzVCqV5Hw5c8UJcsaJWU+dY7adthqvhUfJAAIECBAgQIAAAQIECBAgQIBA2wukGq8bGxuho6Oj0Gizrxl6enoKx62vr4fOzs7kuO2IWbl06VL15MmTyeAx8JUrV8LExERygQsLCyGOPXz4cHLc5cuXQ1kx5+fnQ2y+FsXc3GcYHx8vZZ9lxoyJv3r1aqFtjBlfo6OjSducfW5nTI3XwrNuAAECBAgQIECAAAECBAgQIECg7QVSjdfr16+HoaGhMDAwkHSanJwMZ86cSY5ZXV0Ns7Oz4cSJE8lx2xGzstm0fPoxVS8CJQhovJaAaAoCBAgQIECAAAECBAgQIECAQIsLtMVXDWi8tngV7/D2NF53GFw4AgQIECBAgAABAgQIECBAgEATCmi8NmHSLHl3BTRed9dfdAIECBAgQIAAAQIECBAgQDyJX3sAAA0BSURBVIBAMwhovDZDlqyxoQQ0XhsqHRZDgAABAgQIECBAgAABAgQIEGhIAY3XhkyLRTWygMZrI2fH2ggQIECAAAECBAgQIECAAAECjSGg8doYebCKJhLQeG2iZFkqAQIECBAgQIAAAQIECBAgQGCXBDRedwle2OYV0Hht3txZOQECBAgQIECAAAECBAgQIEBgpwQ0XndKWpyWEdB4bZlU2ggBAgQIECBAgAABAgQIECBAYNsE2qLxOjMzUx0bGwuVSiUJuTkuHDt2LDlmZWUlVKvVMDAwUDjX0aNH2yJmkVmEyrFdXl6umebY7mZMjddtux6ZmAABAgQIECBAgAABAgQIECDQMgKpxuudO3fCvn37wp49e5L7nZqaCsePH0+OWVtbC4uLi2F0dDQ5LsaMfbeenp7SYlYWFhaqIyMjhUm7fft2KBr36NGjWuO1r68vOV/OXHGCnHFi1lPnmG3FNo7t7e3NzqfGa+FRMoAAAQIECBAgQIAAAQIECBAg0PYCqcbr0tJS6O/vD11dXUmn+fn5wobqxsZGiPMNDg4m59qOmJXNRmm17TMNoDQBjdfSKE1EgAABAgQIECBAgAABAgQIEGhZgbb4qgGN15at313ZmMbrrrALSoAAAQIECBAgQIAAAQIECBBoKgGN16ZKl8U2goDGayNkwRoIECBAgAABAgQIECBAgAABAo0toPHa2PmxugYU0HhtwKRYEgECBAgQIECAAAECBAgQIECgwQQ0XhssIZbT+AIar42fIyskQIAAAQIECBAgQIAAAQIECOy2gMbrbmdA/KYT0HhtupRZMAECBAgQIECAAAECBAgQIEBgxwU0XnecXMBmF9B4bfYMWj8BAgQIECBAgAABAgQIECBAYPsFNF6331iEFhOYXVsM+zv6WmxXtkOAAAECBAgQIECAAAECBAgQIFCmQGfoCH0de8qcsuHmqly4cKF66tSp0NXV9cLFra+vh4sXL4azZ88mNzA3Nxeq1WoYGxtLjpucnAxiPiVqdNu4xiNHjiTzuVlD4fTp06GzszM83Piz9l9XR2fd78S6uHfvXjh48GByrtXV1drP+/rSzdu7d++GwcHBUKlUXjifmPU0Dx8+rHmVYbuxsRHu379fmE8x63OQU7dbse3oqITe3vRZWVxcrOUpdVa2FrNjM2Zv8hyL+Zxnt2yXlpZq18jUK57Pjo7y8tmoMR88eFC7P5VVtzn7FLO+8nKvCY1sG98n79mTfiiI+xwaGkqeu3hNyN1nWTHje83l5eXCa0KsWzGfpy8nn2zry31lZSV0d3eXclZybcuOGec7cOBA8hy3U8yenu7Q0/PPr30xn7m2PT09mzF7Ct9rFl1vxfzv89nMtmtrayHep3LOZ1n7zI0Z77HxPUIZddtuMXsH+sLhrhf3iK5duxaGh4cL837+/Plw7ty5wmefqampMD4+nhxXdszp6elQ2XwDWE09kD9bUXyjGB/QynjFhpiY9Q/mzWybWxu5ec+pMTHrldjmVE39GDWkhrZeNWooZeY6tPWKch1yHdp61bgOuQ6F2gddcp6lcurLdch1KKdOUmPUkBpSQ3kCzkobn5XNG3c1r0yMIkCAAAECBAgQIECAAAECBAgQIECAAIEcgYrGaw6TMQQIECBAgAABAgQIECBAgAABAgQIEMgX0HjNtzKSAAECBAgQIECAAAECBAgQIECAAAECWQIar1lMBhEgQIAAAQIECBAgQIAAAQIECBAgQCBfQOM138pIAgQIECBAgAABAgQIECBAgAABAgQIZAlovGYxGUSAAAECBAgQIECAAAECBAgQIECAAIF8AY3XfCsjCRAgQIAAAQIECBAgQIAAAQIECBAgkCVQefz4cbW7u7tw8JMnT0LRuGq1WpunUqkk58uZK06QM07MeuocM7b1ZmpIDaUuWDlnardqqOham3vWc8fFfebE3LyvhJ6entLuK2I+p2S79euVuq03U0Nbr6GNjY3Q0dFReE3LtV1bWwtdXV3J+cT8e3XL9rmbGlJDqYuMs+KsvKg+3MvqZZyV9jsr6+vrobOzs9T3fZVLly5VT548mZw43rivXLkSJiYmksEXFhZCHHv48OHkuMuXL4dmjjk/Px/ig1wZ+4xJvXr1aqFtjBlfo6OjSdvNfIbx8fFkPtsp5s8//xxOnTqVNLt161atmZRj++qrryYfvqJtbsz4EHfo0KHCfIr5lKiRbefm5mpnrox8xpv7L7/8Uli3MWZ8cB8ZGUnW0MWLF2tzpZoGuxXz119/DbG+U6+y95kT8+bNm7U/NJZlmxszNquHh4cL8xnvxalmdMxnO8SMfxT57bffCmso5rMs29yYs7OzYc+ePaXkM8a8du1a7d6eesWYvb29YWho6B/XUCvE/Omnn8Lp06eTZ6XsfZYZc2ZmJvT394eDBw8m85kTMz5E//7774U11Aox//jjj9ozRupV9j5zYk5PT4e9e/eWls/cmPv27QuDg4Ol1FDZMV977bXkuv78889w/fr1wnxG29x9NmrMGzduhFdeeSXpMTU1FQYGBrLymbPP3Jj79+8PBw4cKKwhMZ8SPXr0KMRc5eSzLNvcmDHnMZdF+ZycnAxnzpxJ5jzGjGfv5ZdfTo6LMeM1KO419RLzuc5u2K6uroZ4byzKZ7wmx/eZ8Vr0T/O5WzHj++UTJ04k11/2PmNMXzWQJPdDAgQIECBAgAABAgQIECBAgAABAgQIbF1A43XrZn6DAAECBAgQIECAAAECBAgQIECAAAECSQGNVwVCgAABAgQIECBAgAABAgQIECBAgACBkgU0XksGNR0BAgQIECBAgAABAgQIECBAgAABAgQ0XtUAAQIECBAgQIAAAQIECBAgQIAAAQIEShbQeC0Z1HQECBAgQIAAAQIECBAgQIAAAQIECBDQeFUDBAgQIECAAAECBAgQIECAAAECBAgQKFlA47VkUNMRIECAAAECBAgQIECAAAECBAgQIECgMj09XT169GioVCpJjZmZmXDs2LHkmJWVlVCtVsPAwEDhXM0cc3l5uba/nH0WmcV5cmzFrC+pHLPdsI31Pzs7W3hWYj7jmdu3b1/hWSmqoUaOubS0FDo6Ogr3uXkdCi+99FLSInefZce8efNmiNer1KudYnZ2doa9e/cmPXLzmWu70zHv378furq6dnSfYtaXVJk1FG27u7tDf3//jtXtbsS8d+9e6OnpKW2fc3NzYWxsLGlWZsyNjY1w69YtMf8tnms7NTUVjh8/nszTVmz37NkT+vr6kvM1e8y7d++G3t7eHd1n2THn5+fDkSNHknkSs54nt25zbeM5iXWUeuXEXF9fDwsLC4X5XFxcrF3fxXwqzvZ55cUaun37djh8+HCyHsuuoZyYd+7cqT0HxntLGWdFzOeKZdqura2FOF9RDbVCzHgORkdHk/VY9j5jzMpm8VaHh4eTgeMPY5GPjIwkxz169KjWeC16w5Yzl5j11NE2voputmXbtkPM1dXVWhN0J21bIWa8IBVdO8reZyPHjA3mojcVueczd5/tEPPhw4chNl530raRY8aHs0OHDhXes3NqKHefYtZz59rG5n1shKZeubbxDdvQ0FByrpjPnY754MGDWlN7J/cpZn0ZlFlDZdrG54HY+Cuq292KGWs21u4/PZ9b2edOx4wfiIn3zp3cZ9kx4x8gDh48mMyTmFu/JsS6ZfvcLdZQfA6M99Ayrgk5tvFDOLFnIuZT8Zx7WW7dlm0b/5g+ODiYrI3cmPEPO0VNv7jPnY4Z/0AbP0i0k/ts5JjRIv6hq+h85uTz2T4rmxeGapz4m2++qSum/fv3h7fffrvur+hx3L/+9a8XFt2nn35a+DBoAAECBAgQIECAAAECBAgQIECAAAECBFpdoPZVAzdu3Ajvv//+/9zru+++Gz7//PNw4MCBEP/XvzfffPOFJtevX291L/sjQIAAAQIECBAgQIAAAQIECBAgQIBAoUBd4zV+yjU2WePrxx9/DN9++23tI8evv/56+Prrr+sar1988cV/fcfpe++9VxjQAAIECBAgQIAAAQIECBAgQIAAAQIECLS6QF3jNf7jNt99991fe/7hhx/++iTsV199VfvagWefeP3+++8L/wGhVsezPwIECBAgQIAAAQIECBAgQIAAAQIECPwvgWTjNf5C/AqC2ICNn4R95513/mq8PmvEPpt0YGCg9nUEXgQIECBAgAABAgQIECBAgAABAgQIEGh3gcLG62effVb7h7fi1wh88sknL/yO1/jzL7/8st097Z8AAQIECBAgQIAAAQIECBAgQIAAAQKhsPH68ccf177r9YMPPggfffTRX43XiYmJuk+4vvXWW+HDDz9ESoAAAQIECBAgQIAAAQIECBAgQIAAgbYXKGy8xu90nZ6ern2a9Y033vAdr21fMgAIECBAgAABAgQIECBAgAABAgQIECgS+D98bDWjyYAS4AAAAABJRU5ErkJggg==;" vertex="1" parent="1">
          <mxGeometry x="950" y="1620" width="1374" height="496" as="geometry" />
        </mxCell>
        <mxCell id="_cFpUyDurThmrXsbFItN-79" value="" style="edgeStyle=orthogonalEdgeStyle;rounded=0;orthogonalLoop=1;jettySize=auto;html=1;fontFamily=Verdana;fontColor=#000000;" edge="1" parent="1" source="_cFpUyDurThmrXsbFItN-68" target="_cFpUyDurThmrXsbFItN-78">
          <mxGeometry relative="1" as="geometry" />
        </mxCell>
        <mxCell id="_cFpUyDurThmrXsbFItN-68" value="/1er encodage (coté client)" style="rounded=0;whiteSpace=wrap;html=1;fontFamily=Verdana;fillColor=#fff2cc;strokeColor=#d6b656;" vertex="1" parent="1">
          <mxGeometry x="583" y="1250" width="120" height="60" as="geometry" />
        </mxCell>
        <mxCell id="_cFpUyDurThmrXsbFItN-75" value="" style="edgeStyle=orthogonalEdgeStyle;rounded=0;orthogonalLoop=1;jettySize=auto;html=1;fontFamily=Verdana;endArrow=none;" edge="1" parent="1" source="_cFpUyDurThmrXsbFItN-4" target="_cFpUyDurThmrXsbFItN-70">
          <mxGeometry relative="1" as="geometry">
            <mxPoint x="320" y="630" as="sourcePoint" />
            <mxPoint x="580" y="630" as="targetPoint" />
          </mxGeometry>
        </mxCell>
        <mxCell id="_cFpUyDurThmrXsbFItN-70" value="+" style="rhombus;labelBackgroundColor=none;labelBorderColor=none;fillStyle=solid;fontFamily=Verdana;" vertex="1" parent="1">
          <mxGeometry x="496" y="615" width="30" height="30" as="geometry" />
        </mxCell>
        <mxCell id="_cFpUyDurThmrXsbFItN-81" value="" style="edgeStyle=orthogonalEdgeStyle;rounded=0;orthogonalLoop=1;jettySize=auto;html=1;fontFamily=Verdana;fontColor=#000000;entryX=0;entryY=0.5;entryDx=0;entryDy=0;" edge="1" parent="1" source="_cFpUyDurThmrXsbFItN-78" target="_cFpUyDurThmrXsbFItN-117">
          <mxGeometry relative="1" as="geometry">
            <mxPoint x="1020" y="1280" as="targetPoint" />
          </mxGeometry>
        </mxCell>
        <mxCell id="_cFpUyDurThmrXsbFItN-116" value="soumet à validation / " style="edgeLabel;html=1;align=center;verticalAlign=middle;resizable=0;points=[];fontFamily=Verdana;fontColor=#000000;" vertex="1" connectable="0" parent="_cFpUyDurThmrXsbFItN-81">
          <mxGeometry x="-0.1691" y="1" relative="1" as="geometry">
            <mxPoint x="10" y="-19" as="offset" />
          </mxGeometry>
        </mxCell>
        <mxCell id="_cFpUyDurThmrXsbFItN-93" value="" style="edgeStyle=orthogonalEdgeStyle;rounded=0;orthogonalLoop=1;jettySize=auto;html=1;fontFamily=Verdana;fontColor=#000000;" edge="1" parent="1" source="_cFpUyDurThmrXsbFItN-78" target="_cFpUyDurThmrXsbFItN-92">
          <mxGeometry relative="1" as="geometry" />
        </mxCell>
        <mxCell id="_cFpUyDurThmrXsbFItN-78" value="Brouillon" style="rounded=0;whiteSpace=wrap;html=1;fontFamily=Verdana;fillColor=#fff2cc;strokeColor=#d6b656;" vertex="1" parent="1">
          <mxGeometry x="783" y="1250" width="120" height="60" as="geometry" />
        </mxCell>
        <mxCell id="_cFpUyDurThmrXsbFItN-80" value="En attente de validation" style="whiteSpace=wrap;html=1;fontFamily=Verdana;fillColor=#d5e8d4;strokeColor=#82b366;rounded=0;" vertex="1" parent="1">
          <mxGeometry x="1360" y="1250" width="120" height="60" as="geometry" />
        </mxCell>
        <mxCell id="_cFpUyDurThmrXsbFItN-85" value="" style="edgeStyle=orthogonalEdgeStyle;rounded=0;orthogonalLoop=1;jettySize=auto;html=1;fontFamily=Verdana;fontColor=#000000;" edge="1" parent="1" target="_cFpUyDurThmrXsbFItN-84">
          <mxGeometry relative="1" as="geometry">
            <mxPoint x="1940" y="1280" as="sourcePoint" />
          </mxGeometry>
        </mxCell>
        <mxCell id="_cFpUyDurThmrXsbFItN-115" value="Valide /" style="edgeLabel;html=1;align=center;verticalAlign=middle;resizable=0;points=[];fontFamily=Verdana;fontColor=#000000;" vertex="1" connectable="0" parent="_cFpUyDurThmrXsbFItN-85">
          <mxGeometry x="-0.275" y="1" relative="1" as="geometry">
            <mxPoint x="9" y="-19" as="offset" />
          </mxGeometry>
        </mxCell>
        <mxCell id="_cFpUyDurThmrXsbFItN-87" value="" style="edgeStyle=orthogonalEdgeStyle;rounded=0;orthogonalLoop=1;jettySize=auto;html=1;fontFamily=Verdana;fontColor=#000000;" edge="1" parent="1" source="_cFpUyDurThmrXsbFItN-84" target="_cFpUyDurThmrXsbFItN-86">
          <mxGeometry relative="1" as="geometry" />
        </mxCell>
        <mxCell id="_cFpUyDurThmrXsbFItN-84" value="Validé" style="whiteSpace=wrap;html=1;fontFamily=Verdana;fillColor=#fff2cc;strokeColor=#d6b656;rounded=0;" vertex="1" parent="1">
          <mxGeometry x="2080" y="1250" width="120" height="60" as="geometry" />
        </mxCell>
        <mxCell id="_cFpUyDurThmrXsbFItN-86" value="Payé" style="whiteSpace=wrap;html=1;fontFamily=Verdana;fillColor=#fff2cc;strokeColor=#d6b656;rounded=0;" vertex="1" parent="1">
          <mxGeometry x="2340" y="1250" width="120" height="60" as="geometry" />
        </mxCell>
        <mxCell id="_cFpUyDurThmrXsbFItN-92" value="Annulé" style="rounded=0;whiteSpace=wrap;html=1;fontFamily=Verdana;fillColor=#fff2cc;strokeColor=#d6b656;" vertex="1" parent="1">
          <mxGeometry x="783" y="1110" width="120" height="60" as="geometry" />
        </mxCell>
        <mxCell id="_cFpUyDurThmrXsbFItN-98" style="edgeStyle=orthogonalEdgeStyle;rounded=0;orthogonalLoop=1;jettySize=auto;html=1;exitX=0.5;exitY=1;exitDx=0;exitDy=0;entryX=0.5;entryY=1;entryDx=0;entryDy=0;fontFamily=Verdana;fontColor=#000000;" edge="1" parent="1" source="_cFpUyDurThmrXsbFItN-96" target="_cFpUyDurThmrXsbFItN-78">
          <mxGeometry relative="1" as="geometry">
            <Array as="points">
              <mxPoint x="1880" y="1400" />
              <mxPoint x="843" y="1400" />
            </Array>
          </mxGeometry>
        </mxCell>
        <mxCell id="_cFpUyDurThmrXsbFItN-103" value="Modifier /" style="edgeLabel;html=1;align=center;verticalAlign=middle;resizable=0;points=[];fontFamily=Verdana;fontColor=#000000;" vertex="1" connectable="0" parent="_cFpUyDurThmrXsbFItN-98">
          <mxGeometry x="-0.5826" y="-2" relative="1" as="geometry">
            <mxPoint x="-706" y="-18" as="offset" />
          </mxGeometry>
        </mxCell>
        <mxCell id="_cFpUyDurThmrXsbFItN-122" style="edgeStyle=orthogonalEdgeStyle;rounded=0;orthogonalLoop=1;jettySize=auto;html=1;exitX=0.75;exitY=1;exitDx=0;exitDy=0;entryX=0;entryY=0.5;entryDx=0;entryDy=0;fontFamily=Verdana;fontColor=#000000;" edge="1" parent="1" source="_cFpUyDurThmrXsbFItN-96" target="_cFpUyDurThmrXsbFItN-101">
          <mxGeometry relative="1" as="geometry" />
        </mxCell>
        <mxCell id="_cFpUyDurThmrXsbFItN-123" value="Refuse /&amp;nbsp; " style="edgeLabel;html=1;align=center;verticalAlign=middle;resizable=0;points=[];fontFamily=Verdana;fontColor=#000000;" vertex="1" connectable="0" parent="_cFpUyDurThmrXsbFItN-122">
          <mxGeometry x="0.0778" y="3" relative="1" as="geometry">
            <mxPoint x="12" y="-47" as="offset" />
          </mxGeometry>
        </mxCell>
        <mxCell id="_cFpUyDurThmrXsbFItN-96" value="A valider" style="whiteSpace=wrap;html=1;fontFamily=Verdana;fillColor=#fff2cc;strokeColor=#d6b656;rounded=0;" vertex="1" parent="1">
          <mxGeometry x="1820" y="1250" width="120" height="60" as="geometry" />
        </mxCell>
        <mxCell id="_cFpUyDurThmrXsbFItN-99" style="edgeStyle=orthogonalEdgeStyle;rounded=0;orthogonalLoop=1;jettySize=auto;html=1;exitX=0.5;exitY=1;exitDx=0;exitDy=0;entryX=0.5;entryY=1;entryDx=0;entryDy=0;fontFamily=Verdana;fontColor=#000000;" edge="1" parent="1" source="_cFpUyDurThmrXsbFItN-97" target="_cFpUyDurThmrXsbFItN-78">
          <mxGeometry relative="1" as="geometry">
            <Array as="points">
              <mxPoint x="1420" y="1400" />
              <mxPoint x="843" y="1400" />
            </Array>
          </mxGeometry>
        </mxCell>
        <mxCell id="_cFpUyDurThmrXsbFItN-102" style="edgeStyle=orthogonalEdgeStyle;rounded=0;orthogonalLoop=1;jettySize=auto;html=1;exitX=1;exitY=0.5;exitDx=0;exitDy=0;entryX=0;entryY=0.5;entryDx=0;entryDy=0;fontFamily=Verdana;fontColor=#000000;" edge="1" parent="1" source="_cFpUyDurThmrXsbFItN-97" target="_cFpUyDurThmrXsbFItN-96">
          <mxGeometry relative="1" as="geometry" />
        </mxCell>
        <mxCell id="_cFpUyDurThmrXsbFItN-104" value="Autorisation Validation [Si contrat validé] / " style="edgeLabel;html=1;align=center;verticalAlign=middle;resizable=0;points=[];fontFamily=Verdana;fontColor=#000000;" vertex="1" connectable="0" parent="_cFpUyDurThmrXsbFItN-102">
          <mxGeometry x="-0.3182" y="1" relative="1" as="geometry">
            <mxPoint x="43" y="-19" as="offset" />
          </mxGeometry>
        </mxCell>
        <mxCell id="_cFpUyDurThmrXsbFItN-97" value="En attente de validation" style="whiteSpace=wrap;html=1;fontFamily=Verdana;fillColor=#fff2cc;strokeColor=#d6b656;rounded=0;" vertex="1" parent="1">
          <mxGeometry x="1360" y="1250" width="120" height="60" as="geometry" />
        </mxCell>
        <mxCell id="_cFpUyDurThmrXsbFItN-101" value="Refusé" style="whiteSpace=wrap;html=1;fontFamily=Verdana;fillColor=#fff2cc;strokeColor=#d6b656;rounded=0;" vertex="1" parent="1">
          <mxGeometry x="2165" y="1430" width="120" height="60" as="geometry" />
        </mxCell>
        <mxCell id="_cFpUyDurThmrXsbFItN-118" style="edgeStyle=orthogonalEdgeStyle;rounded=0;orthogonalLoop=1;jettySize=auto;html=1;exitX=1;exitY=0.5;exitDx=0;exitDy=0;entryX=0;entryY=0.5;entryDx=0;entryDy=0;fontFamily=Verdana;fontColor=#000000;" edge="1" parent="1" source="_cFpUyDurThmrXsbFItN-117" target="_cFpUyDurThmrXsbFItN-97">
          <mxGeometry relative="1" as="geometry" />
        </mxCell>
        <mxCell id="_cFpUyDurThmrXsbFItN-121" style="edgeStyle=orthogonalEdgeStyle;rounded=0;orthogonalLoop=1;jettySize=auto;html=1;exitX=0.5;exitY=1;exitDx=0;exitDy=0;entryX=0.5;entryY=1;entryDx=0;entryDy=0;fontFamily=Verdana;fontColor=#000000;" edge="1" parent="1" source="_cFpUyDurThmrXsbFItN-117" target="_cFpUyDurThmrXsbFItN-78">
          <mxGeometry relative="1" as="geometry">
            <Array as="points">
              <mxPoint x="1150" y="1400" />
              <mxPoint x="843" y="1400" />
            </Array>
          </mxGeometry>
        </mxCell>
        <mxCell id="_cFpUyDurThmrXsbFItN-117" value="A signer" style="rounded=0;whiteSpace=wrap;html=1;fontFamily=Verdana;fillColor=#f5f5f5;strokeColor=#666666;fontColor=#333333;" vertex="1" parent="1">
          <mxGeometry x="1090" y="1250" width="120" height="60" as="geometry" />
        </mxCell>
        <mxCell id="_cFpUyDurThmrXsbFItN-124" value="Enregistre Raison /&amp;nbsp; " style="edgeLabel;html=1;align=center;verticalAlign=middle;resizable=0;points=[];fontFamily=Verdana;fontColor=#000000;" vertex="1" connectable="0" parent="1">
          <mxGeometry x="2050.001158164066" y="1420.0222042380965" as="geometry">
            <mxPoint x="-24" y="20" as="offset" />
          </mxGeometry>
        </mxCell>
      </root>
    </mxGraphModel>
  </diagram>
</mxfile>
